<svg width="370" height="450" viewBox="0 0 469 633" fill="none" xmlns="http://www.w3.org/2000/svg">
<path d="M235.075 0C155.823 111.876 79.1902 219.966 0.0979004 331.576C24.9647 331.576 43.2003 337.281 57.853 315.898C110.046 239.803 164.112 164.988 217.588 89.7461C222.936 82.2273 228.765 75.1351 234.862 67.2963C280.959 122.594 280.959 122.594 315.826 113.849L235.075 0ZM468.288 303.953C440.052 297.394 421.817 301.18 405.613 325.976C367.377 384.634 325.398 440.839 284.755 498.003C269.033 520.133 253.044 542.103 235.022 567.326C223.257 550.955 216.038 534.051 203.257 525.039C190.476 516.027 173.203 516.134 157.801 512.188L155.181 519.706L235.396 632.329L468.288 303.953ZM141.598 316.218C193.043 325.176 225.343 353.012 235.289 406.337C244.648 350.986 280.317 326.35 329.302 315.258C275.45 308.006 245.236 277.93 234.648 225.299C225.343 280.063 193.524 306.726 141.598 316.111V316.218Z" fill="#27282A"/>
</svg>
