<svg width="209" height="62" viewBox="0 0 209 62" fill="none" xmlns="http://www.w3.org/2000/svg">
<g filter="url(#filter0_b_1024_3417)">
<rect width="208.499" height="61.2299" rx="14" fill="#313131" fill-opacity="0.6"/>
<path d="M47.697 25.6152L46.871 23.2632H42.671L41.845 25.6152H40.333L43.973 15.8152H45.569L49.209 25.6152H47.697ZM43.119 21.9752H46.409L44.771 17.3132L43.119 21.9752ZM53.2353 21.4992C54.9713 21.8632 55.5453 22.4232 55.5453 23.4872C55.5453 24.7472 54.6493 25.7972 52.7593 25.7972C51.3593 25.7972 50.1833 25.2372 49.9033 24.1732L51.1493 23.7532C51.2613 24.1172 51.6393 24.6212 52.7873 24.6212C53.7113 24.6212 54.2293 24.2432 54.2293 23.6132C54.2293 22.7872 53.0393 22.7872 52.0593 22.5632C50.7293 22.2692 50.1553 21.6252 50.1553 20.5752C50.1553 19.2732 51.2333 18.3492 52.7733 18.3492C53.9213 18.3492 54.9433 18.9372 55.1953 19.9872L54.0053 20.3092C53.8793 19.9172 53.4593 19.4972 52.6613 19.4972C51.9613 19.4972 51.4433 19.8892 51.4433 20.4772C51.4433 21.2752 52.4233 21.3312 53.2353 21.4992ZM59.5791 21.4992C61.3151 21.8632 61.8891 22.4232 61.8891 23.4872C61.8891 24.7472 60.9931 25.7972 59.1031 25.7972C57.7031 25.7972 56.5271 25.2372 56.2471 24.1732L57.4931 23.7532C57.6051 24.1172 57.9831 24.6212 59.1311 24.6212C60.0551 24.6212 60.5731 24.2432 60.5731 23.6132C60.5731 22.7872 59.3831 22.7872 58.4031 22.5632C57.0731 22.2692 56.4991 21.6252 56.4991 20.5752C56.4991 19.2732 57.5771 18.3492 59.1171 18.3492C60.2651 18.3492 61.2871 18.9372 61.5391 19.9872L60.3491 20.3092C60.2231 19.9172 59.8031 19.4972 59.0051 19.4972C58.3051 19.4972 57.7871 19.8892 57.7871 20.4772C57.7871 21.2752 58.7671 21.3312 59.5791 21.4992ZM66.3988 18.3492C68.3308 18.3492 70.1368 19.9732 69.8008 22.6192H64.1588C64.3548 23.7812 65.2228 24.5792 66.6088 24.5792C67.3788 24.5792 68.0788 24.2852 68.4708 23.7812L69.5208 24.4532C68.8908 25.3072 67.8548 25.7972 66.6088 25.7972C64.2568 25.7972 62.8008 24.1172 62.8008 22.0732C62.8008 20.0292 64.3128 18.3492 66.3988 18.3492ZM64.1588 21.5272H68.5128C68.3448 20.3232 67.6028 19.5532 66.3988 19.5532C65.1808 19.5532 64.3548 20.3512 64.1588 21.5272ZM73.9482 21.4992C75.6842 21.8632 76.2582 22.4232 76.2582 23.4872C76.2582 24.7472 75.3622 25.7972 73.4722 25.7972C72.0722 25.7972 70.8962 25.2372 70.6162 24.1732L71.8622 23.7532C71.9742 24.1172 72.3522 24.6212 73.5002 24.6212C74.4242 24.6212 74.9422 24.2432 74.9422 23.6132C74.9422 22.7872 73.7522 22.7872 72.7722 22.5632C71.4422 22.2692 70.8682 21.6252 70.8682 20.5752C70.8682 19.2732 71.9462 18.3492 73.4862 18.3492C74.6342 18.3492 75.6562 18.9372 75.9082 19.9872L74.7182 20.3092C74.5922 19.9172 74.1722 19.4972 73.3742 19.4972C72.6742 19.4972 72.1562 19.8892 72.1562 20.4772C72.1562 21.2752 73.1362 21.3312 73.9482 21.4992ZM80.292 21.4992C82.028 21.8632 82.602 22.4232 82.602 23.4872C82.602 24.7472 81.706 25.7972 79.816 25.7972C78.416 25.7972 77.24 25.2372 76.96 24.1732L78.206 23.7532C78.318 24.1172 78.696 24.6212 79.844 24.6212C80.768 24.6212 81.286 24.2432 81.286 23.6132C81.286 22.7872 80.096 22.7872 79.116 22.5632C77.786 22.2692 77.212 21.6252 77.212 20.5752C77.212 19.2732 78.29 18.3492 79.83 18.3492C80.978 18.3492 82 18.9372 82.252 19.9872L81.062 20.3092C80.936 19.9172 80.516 19.4972 79.718 19.4972C79.018 19.4972 78.5 19.8892 78.5 20.4772C78.5 21.2752 79.48 21.3312 80.292 21.4992ZM91.1791 18.3492C92.7751 18.3492 93.9091 19.6792 93.9091 21.1772V25.6152H92.6211V21.5412C92.6211 20.5472 92.2011 19.5532 90.8711 19.5532C89.5271 19.5532 88.9811 20.7152 88.9811 21.5412V25.6152H87.7071V15.8152H88.9811V19.5112C89.4011 18.8812 90.1011 18.3492 91.1791 18.3492ZM99.0365 18.3492C101.179 18.3492 102.761 20.0292 102.761 22.0732C102.761 24.1172 101.179 25.7972 99.0365 25.7972C96.8945 25.7972 95.3125 24.1172 95.3125 22.0732C95.3125 20.0292 96.8945 18.3492 99.0365 18.3492ZM99.0365 24.5792C100.437 24.5792 101.459 23.5152 101.459 22.0732C101.459 20.6172 100.437 19.5532 99.0365 19.5532C97.6365 19.5532 96.6285 20.6172 96.6285 22.0732C96.6285 23.5152 97.6365 24.5792 99.0365 24.5792ZM112.113 18.5172H113.527L111.147 25.6152H109.943L108.389 20.7852L106.849 25.6152H105.645L103.251 18.5172H104.679L106.261 23.7532L107.927 18.5172H108.851L110.517 23.7532L112.113 18.5172ZM121.786 16.7112C120.638 16.7112 120.498 17.4532 120.484 18.5172H122.122V19.7352H120.484V25.6152H119.21V19.7352H118.076V18.5172H119.21C119.21 17.0332 119.7 15.6472 121.646 15.6472C121.842 15.6472 121.954 15.6472 122.122 15.6752V16.7252C122.038 16.7252 121.884 16.7112 121.786 16.7112ZM126.154 18.3492C128.198 18.3492 128.87 19.6372 128.87 21.3312V25.6152H127.596V24.6352C127.274 25.1812 126.392 25.7972 125.272 25.7972C123.928 25.7972 122.752 24.9852 122.752 23.7112C122.752 21.4852 125.454 21.4292 126.448 21.4292C126.812 21.4292 127.414 21.4292 127.596 21.4292C127.596 20.3512 127.372 19.5112 125.902 19.5112C125.16 19.5112 124.376 19.8892 124.068 20.1412L123.172 19.4552C123.956 18.7412 125.034 18.3492 126.154 18.3492ZM127.596 23.5852V22.4232C127.554 22.4232 127.19 22.4232 127.106 22.4232C125.79 22.4232 124.068 22.4092 124.068 23.6552C124.068 24.2012 124.418 24.7612 125.552 24.7612C126.77 24.7612 127.512 23.9072 127.596 23.5852ZM133.394 21.4992C135.13 21.8632 135.704 22.4232 135.704 23.4872C135.704 24.7472 134.808 25.7972 132.918 25.7972C131.518 25.7972 130.342 25.2372 130.062 24.1732L131.308 23.7532C131.42 24.1172 131.798 24.6212 132.946 24.6212C133.87 24.6212 134.388 24.2432 134.388 23.6132C134.388 22.7872 133.198 22.7872 132.218 22.5632C130.888 22.2692 130.314 21.6252 130.314 20.5752C130.314 19.2732 131.392 18.3492 132.932 18.3492C134.08 18.3492 135.102 18.9372 135.354 19.9872L134.164 20.3092C134.038 19.9172 133.618 19.4972 132.82 19.4972C132.12 19.4972 131.602 19.8892 131.602 20.4772C131.602 21.2752 132.582 21.3312 133.394 21.4992ZM140.29 19.7352H138.652V22.8432C138.652 23.8512 138.666 24.5232 139.772 24.5232C139.982 24.5232 140.136 24.5092 140.29 24.4952V25.6152C140.108 25.6572 139.884 25.6852 139.604 25.6852C138.064 25.6852 137.378 24.8592 137.378 23.3052V19.7352H136.272V18.5172H137.378V17.0332H138.652V18.5172H140.29V19.7352ZM150.59 18.5172H152.004L148.126 28.3172H146.754L148.014 25.2512L145.046 18.5172H146.46L148.644 23.6412L150.59 18.5172ZM156.226 18.3492C158.368 18.3492 159.95 20.0292 159.95 22.0732C159.95 24.1172 158.368 25.7972 156.226 25.7972C154.084 25.7972 152.502 24.1172 152.502 22.0732C152.502 20.0292 154.084 18.3492 156.226 18.3492ZM156.226 24.5792C157.626 24.5792 158.648 23.5152 158.648 22.0732C158.648 20.6172 157.626 19.5532 156.226 19.5532C154.826 19.5532 153.818 20.6172 153.818 22.0732C153.818 23.5152 154.826 24.5792 156.226 24.5792ZM166.258 18.5172H167.532V25.6152H166.258V24.6352C165.838 25.2652 165.138 25.7972 164.074 25.7972C162.478 25.7972 161.344 24.4672 161.344 22.9692V18.5172H162.618V22.5912C162.618 23.5992 163.038 24.5792 164.368 24.5792C165.712 24.5792 166.258 23.4312 166.258 22.5912V18.5172ZM22.8698 38.3492C24.9138 38.3492 25.5858 39.6372 25.5858 41.3312V45.6152H24.3118V44.6352C23.9898 45.1812 23.1078 45.7972 21.9878 45.7972C20.6438 45.7972 19.4678 44.9852 19.4678 43.7112C19.4678 41.4852 22.1698 41.4292 23.1638 41.4292C23.5278 41.4292 24.1298 41.4292 24.3118 41.4292C24.3118 40.3512 24.0878 39.5112 22.6178 39.5112C21.8758 39.5112 21.0918 39.8892 20.7838 40.1412L19.8878 39.4552C20.6718 38.7412 21.7498 38.3492 22.8698 38.3492ZM24.3118 43.5852V42.4232C24.2698 42.4232 23.9058 42.4232 23.8218 42.4232C22.5058 42.4232 20.7838 42.4092 20.7838 43.6552C20.7838 44.2012 21.1338 44.7612 22.2678 44.7612C23.4858 44.7612 24.2278 43.9072 24.3118 43.5852ZM30.7113 44.5792C31.6073 44.5792 32.3493 44.1452 32.7693 43.4452L33.8613 44.0332C33.2173 45.0832 32.0973 45.7972 30.7113 45.7972C28.5693 45.7972 26.9873 44.1172 26.9873 42.0732C26.9873 40.0292 28.5693 38.3492 30.7113 38.3492C32.0973 38.3492 33.2173 39.0632 33.8613 40.0992L32.7693 40.7012C32.3493 40.0012 31.6073 39.5532 30.7113 39.5532C29.3113 39.5532 28.2893 40.6172 28.2893 42.0732C28.2893 43.5152 29.3113 44.5792 30.7113 44.5792ZM38.5219 38.3492C40.1179 38.3492 41.2519 39.6792 41.2519 41.1772V45.6152H39.9639V41.5412C39.9639 40.5472 39.5439 39.5532 38.2139 39.5532C36.8699 39.5532 36.3239 40.7152 36.3239 41.5412V45.6152H35.0499V35.8152H36.3239V39.5112C36.7439 38.8812 37.4439 38.3492 38.5219 38.3492ZM43.0753 45.6152V38.5172H44.3633V45.6152H43.0753ZM43.7193 37.2572C43.3133 37.2572 42.9913 36.9352 42.9913 36.5292C42.9913 36.1372 43.3133 35.8012 43.7193 35.8012C44.1253 35.8012 44.4473 36.1372 44.4473 36.5292C44.4473 36.9352 44.1253 37.2572 43.7193 37.2572ZM49.3568 38.3492C51.2888 38.3492 53.0948 39.9732 52.7588 42.6192H47.1168C47.3128 43.7812 48.1808 44.5792 49.5668 44.5792C50.3368 44.5792 51.0368 44.2852 51.4288 43.7812L52.4788 44.4532C51.8488 45.3072 50.8128 45.7972 49.5668 45.7972C47.2148 45.7972 45.7588 44.1172 45.7588 42.0732C45.7588 40.0292 47.2708 38.3492 49.3568 38.3492ZM47.1168 41.5272H51.4708C51.3028 40.3232 50.5608 39.5532 49.3568 39.5532C48.1388 39.5532 47.3128 40.3512 47.1168 41.5272ZM58.8588 38.5172H60.2728L57.5148 45.6152H56.0588L53.3008 38.5172H54.7288L56.7868 44.0892L58.8588 38.5172ZM64.3685 38.3492C66.3005 38.3492 68.1065 39.9732 67.7705 42.6192H62.1285C62.3245 43.7812 63.1925 44.5792 64.5785 44.5792C65.3485 44.5792 66.0485 44.2852 66.4405 43.7812L67.4905 44.4532C66.8605 45.3072 65.8245 45.7972 64.5785 45.7972C62.2265 45.7972 60.7705 44.1172 60.7705 42.0732C60.7705 40.0292 62.2825 38.3492 64.3685 38.3492ZM62.1285 41.5272H66.4825C66.3145 40.3232 65.5725 39.5532 64.3685 39.5532C63.1505 39.5532 62.3245 40.3512 62.1285 41.5272ZM74.9139 35.8152H76.1879V45.6152H74.9139V44.6212C74.3819 45.2932 73.5699 45.7972 72.3379 45.7972C70.1259 45.7972 68.7959 43.9352 68.7959 42.0732C68.7959 40.2112 70.1259 38.3492 72.3379 38.3492C73.5699 38.3492 74.3819 38.8532 74.9139 39.5112V35.8152ZM72.4639 44.5792C74.0179 44.5792 74.9139 43.4732 74.9139 42.0732C74.9139 40.6732 74.0179 39.5532 72.4639 39.5532C70.9939 39.5532 70.1119 40.6452 70.1119 42.0732C70.1119 43.5012 70.9939 44.5792 72.4639 44.5792ZM86.6944 38.5172H88.1084L84.2304 48.3172H82.8584L84.1184 45.2512L81.1504 38.5172H82.5644L84.7484 43.6412L86.6944 38.5172ZM92.3305 38.3492C94.4725 38.3492 96.0545 40.0292 96.0545 42.0732C96.0545 44.1172 94.4725 45.7972 92.3305 45.7972C90.1885 45.7972 88.6065 44.1172 88.6065 42.0732C88.6065 40.0292 90.1885 38.3492 92.3305 38.3492ZM92.3305 44.5792C93.7305 44.5792 94.7525 43.5152 94.7525 42.0732C94.7525 40.6172 93.7305 39.5532 92.3305 39.5532C90.9305 39.5532 89.9225 40.6172 89.9225 42.0732C89.9225 43.5152 90.9305 44.5792 92.3305 44.5792ZM102.362 38.5172H103.636V45.6152H102.362V44.6352C101.942 45.2652 101.242 45.7972 100.178 45.7972C98.5824 45.7972 97.4484 44.4672 97.4484 42.9692V38.5172H98.7224V42.5912C98.7224 43.5992 99.1424 44.5792 100.472 44.5792C101.816 44.5792 102.362 43.4312 102.362 42.5912V38.5172ZM106.734 39.7492C107.21 38.7972 108.19 38.3492 109.1 38.3492V39.7912C107 39.5392 106.734 41.1352 106.734 42.4372V45.6152H105.46V38.5172H106.734V39.7492ZM119.808 38.5172H121.096V44.8732C121.096 46.8892 120.018 48.4432 117.456 48.4432C116.056 48.4432 114.81 47.8832 114.236 47.0152L115.328 46.3712C115.594 46.7632 116.28 47.2392 117.456 47.2392C119.15 47.2392 119.808 46.1612 119.808 44.7472V44.2012C119.332 44.8872 118.562 45.4192 117.4 45.4192C115.314 45.4192 113.858 43.6412 113.858 41.8772C113.858 40.1272 115.314 38.3492 117.4 38.3492C118.562 38.3492 119.332 38.8812 119.808 39.5532V38.5172ZM117.526 44.2152C118.884 44.2152 119.808 43.2212 119.808 41.8772C119.808 40.5472 118.884 39.5532 117.526 39.5532C116.196 39.5532 115.174 40.5472 115.174 41.8772C115.174 43.2212 116.196 44.2152 117.526 44.2152ZM126.223 38.3492C128.365 38.3492 129.947 40.0292 129.947 42.0732C129.947 44.1172 128.365 45.7972 126.223 45.7972C124.081 45.7972 122.499 44.1172 122.499 42.0732C122.499 40.0292 124.081 38.3492 126.223 38.3492ZM126.223 44.5792C127.623 44.5792 128.645 43.5152 128.645 42.0732C128.645 40.6172 127.623 39.5532 126.223 39.5532C124.823 39.5532 123.815 40.6172 123.815 42.0732C123.815 43.5152 124.823 44.5792 126.223 44.5792ZM134.323 38.3492C136.367 38.3492 137.039 39.6372 137.039 41.3312V45.6152H135.765V44.6352C135.443 45.1812 134.561 45.7972 133.441 45.7972C132.097 45.7972 130.921 44.9852 130.921 43.7112C130.921 41.4852 133.623 41.4292 134.617 41.4292C134.981 41.4292 135.583 41.4292 135.765 41.4292C135.765 40.3512 135.541 39.5112 134.071 39.5112C133.329 39.5112 132.545 39.8892 132.237 40.1412L131.341 39.4552C132.125 38.7412 133.203 38.3492 134.323 38.3492ZM135.765 43.5852V42.4232C135.723 42.4232 135.359 42.4232 135.275 42.4232C133.959 42.4232 132.237 42.4092 132.237 43.6552C132.237 44.2012 132.587 44.7612 133.721 44.7612C134.939 44.7612 135.681 43.9072 135.765 43.5852ZM138.86 35.8152H140.134V45.6152H138.86V35.8152ZM144.652 41.4992C146.388 41.8632 146.962 42.4232 146.962 43.4872C146.962 44.7472 146.066 45.7972 144.176 45.7972C142.776 45.7972 141.6 45.2372 141.32 44.1732L142.566 43.7532C142.678 44.1172 143.056 44.6212 144.204 44.6212C145.128 44.6212 145.646 44.2432 145.646 43.6132C145.646 42.7872 144.456 42.7872 143.476 42.5632C142.146 42.2692 141.572 41.6252 141.572 40.5752C141.572 39.2732 142.65 38.3492 144.19 38.3492C145.338 38.3492 146.36 38.9372 146.612 39.9872L145.422 40.3092C145.296 39.9172 144.876 39.4972 144.078 39.4972C143.378 39.4972 142.86 39.8892 142.86 40.4772C142.86 41.2752 143.84 41.3312 144.652 41.4992ZM154.77 41.4992C156.506 41.8632 157.08 42.4232 157.08 43.4872C157.08 44.7472 156.184 45.7972 154.294 45.7972C152.894 45.7972 151.718 45.2372 151.438 44.1732L152.684 43.7532C152.796 44.1172 153.174 44.6212 154.322 44.6212C155.246 44.6212 155.764 44.2432 155.764 43.6132C155.764 42.7872 154.574 42.7872 153.594 42.5632C152.264 42.2692 151.69 41.6252 151.69 40.5752C151.69 39.2732 152.768 38.3492 154.308 38.3492C155.456 38.3492 156.478 38.9372 156.73 39.9872L155.54 40.3092C155.414 39.9172 154.994 39.4972 154.196 39.4972C153.496 39.4972 152.978 39.8892 152.978 40.4772C152.978 41.2752 153.958 41.3312 154.77 41.4992ZM161.715 38.3492C163.857 38.3492 165.439 40.0292 165.439 42.0732C165.439 44.1172 163.857 45.7972 161.715 45.7972C159.573 45.7972 157.991 44.1172 157.991 42.0732C157.991 40.0292 159.573 38.3492 161.715 38.3492ZM161.715 44.5792C163.115 44.5792 164.137 43.5152 164.137 42.0732C164.137 40.6172 163.115 39.5532 161.715 39.5532C160.315 39.5532 159.307 40.6172 159.307 42.0732C159.307 43.5152 160.315 44.5792 161.715 44.5792ZM173.897 36.7112C172.749 36.7112 172.609 37.4532 172.595 38.5172H174.233V39.7352H172.595V45.6152H171.321V39.7352H170.187V38.5172H171.321C171.321 37.0332 171.811 35.6472 173.757 35.6472C173.953 35.6472 174.065 35.6472 174.233 35.6752V36.7252C174.149 36.7252 173.995 36.7112 173.897 36.7112ZM178.264 38.3492C180.308 38.3492 180.98 39.6372 180.98 41.3312V45.6152H179.706V44.6352C179.384 45.1812 178.502 45.7972 177.382 45.7972C176.038 45.7972 174.862 44.9852 174.862 43.7112C174.862 41.4852 177.564 41.4292 178.558 41.4292C178.922 41.4292 179.524 41.4292 179.706 41.4292C179.706 40.3512 179.482 39.5112 178.012 39.5112C177.27 39.5112 176.486 39.8892 176.178 40.1412L175.282 39.4552C176.066 38.7412 177.144 38.3492 178.264 38.3492ZM179.706 43.5852V42.4232C179.664 42.4232 179.3 42.4232 179.216 42.4232C177.9 42.4232 176.178 42.4092 176.178 43.6552C176.178 44.2012 176.528 44.7612 177.662 44.7612C178.88 44.7612 179.622 43.9072 179.706 43.5852ZM184.076 39.7492C184.552 38.7972 185.532 38.3492 186.442 38.3492V39.7912C184.342 39.5392 184.076 41.1352 184.076 42.4372V45.6152H182.802V38.5172H184.076V39.7492ZM187.944 44.0472C188.434 44.0472 188.826 44.4392 188.826 44.9152C188.826 45.4052 188.434 45.7972 187.944 45.7972C187.468 45.7972 187.076 45.4052 187.076 44.9152C187.076 44.4392 187.468 44.0472 187.944 44.0472Z" fill="white"/>
<rect x="0.331717" y="0.331717" width="207.835" height="60.5665" rx="13.6683" stroke="url(#paint0_linear_1024_3417)" stroke-width="0.663435"/>
</g>
<defs>
<filter id="filter0_b_1024_3417" x="-17.9127" y="-17.9127" width="244.324" height="97.055" filterUnits="userSpaceOnUse" color-interpolation-filters="sRGB">
<feFlood flood-opacity="0" result="BackgroundImageFix"/>
<feGaussianBlur in="BackgroundImageFix" stdDeviation="8.95637"/>
<feComposite in2="SourceAlpha" operator="in" result="effect1_backgroundBlur_1024_3417"/>
<feBlend mode="normal" in="SourceGraphic" in2="effect1_backgroundBlur_1024_3417" result="shape"/>
</filter>
<linearGradient id="paint0_linear_1024_3417" x1="92.1145" y1="1.91666e-06" x2="134.969" y2="84.6907" gradientUnits="userSpaceOnUse">
<stop stop-color="white"/>
<stop offset="1" stop-color="white" stop-opacity="0"/>
</linearGradient>
</defs>
</svg>
