<svg width="460" height="118" viewBox="0 0 460 118" fill="none" xmlns="http://www.w3.org/2000/svg">
<g filter="url(#filter0_b_973_4337)">
<rect width="459.357" height="117.452" rx="14" fill="#313131" fill-opacity="0.54"/>
<path d="M44.9078 65.2266L43.8458 62.2026H38.4458L37.3838 65.2266H35.4398L40.1198 52.6266H42.1718L46.8518 65.2266H44.9078ZM39.0218 60.5466H43.2518L41.1458 54.5526L39.0218 60.5466ZM52.0285 59.9346C54.2605 60.4026 54.9985 61.1226 54.9985 62.4906C54.9985 64.1106 53.8465 65.4606 51.4165 65.4606C49.6165 65.4606 48.1045 64.7406 47.7445 63.3726L49.3465 62.8326C49.4905 63.3006 49.9765 63.9486 51.4525 63.9486C52.6405 63.9486 53.3065 63.4626 53.3065 62.6526C53.3065 61.5906 51.7765 61.5906 50.5165 61.3026C48.8065 60.9246 48.0685 60.0966 48.0685 58.7466C48.0685 57.0726 49.4545 55.8846 51.4345 55.8846C52.9105 55.8846 54.2245 56.6406 54.5485 57.9906L53.0185 58.4046C52.8565 57.9006 52.3165 57.3606 51.2905 57.3606C50.3905 57.3606 49.7245 57.8646 49.7245 58.6206C49.7245 59.6466 50.9845 59.7186 52.0285 59.9346ZM60.1848 59.9346C62.4168 60.4026 63.1548 61.1226 63.1548 62.4906C63.1548 64.1106 62.0028 65.4606 59.5728 65.4606C57.7728 65.4606 56.2608 64.7406 55.9008 63.3726L57.5028 62.8326C57.6468 63.3006 58.1328 63.9486 59.6088 63.9486C60.7968 63.9486 61.4628 63.4626 61.4628 62.6526C61.4628 61.5906 59.9328 61.5906 58.6728 61.3026C56.9628 60.9246 56.2248 60.0966 56.2248 58.7466C56.2248 57.0726 57.6108 55.8846 59.5908 55.8846C61.0668 55.8846 62.3808 56.6406 62.7048 57.9906L61.1748 58.4046C61.0128 57.9006 60.4728 57.3606 59.4468 57.3606C58.5468 57.3606 57.8808 57.8646 57.8808 58.6206C57.8808 59.6466 59.1408 59.7186 60.1848 59.9346ZM68.953 55.8846C71.437 55.8846 73.759 57.9726 73.327 61.3746H66.073C66.325 62.8686 67.441 63.8946 69.223 63.8946C70.213 63.8946 71.113 63.5166 71.617 62.8686L72.967 63.7326C72.157 64.8306 70.825 65.4606 69.223 65.4606C66.199 65.4606 64.327 63.3006 64.327 60.6726C64.327 58.0446 66.271 55.8846 68.953 55.8846ZM66.073 59.9706H71.671C71.455 58.4226 70.501 57.4326 68.953 57.4326C67.387 57.4326 66.325 58.4586 66.073 59.9706ZM78.6594 59.9346C80.8914 60.4026 81.6294 61.1226 81.6294 62.4906C81.6294 64.1106 80.4774 65.4606 78.0474 65.4606C76.2474 65.4606 74.7354 64.7406 74.3754 63.3726L75.9774 62.8326C76.1214 63.3006 76.6074 63.9486 78.0834 63.9486C79.2714 63.9486 79.9374 63.4626 79.9374 62.6526C79.9374 61.5906 78.4074 61.5906 77.1474 61.3026C75.4374 60.9246 74.6994 60.0966 74.6994 58.7466C74.6994 57.0726 76.0854 55.8846 78.0654 55.8846C79.5414 55.8846 80.8554 56.6406 81.1794 57.9906L79.6494 58.4046C79.4874 57.9006 78.9474 57.3606 77.9214 57.3606C77.0214 57.3606 76.3554 57.8646 76.3554 58.6206C76.3554 59.6466 77.6154 59.7186 78.6594 59.9346ZM86.8156 59.9346C89.0476 60.4026 89.7856 61.1226 89.7856 62.4906C89.7856 64.1106 88.6336 65.4606 86.2036 65.4606C84.4036 65.4606 82.8916 64.7406 82.5316 63.3726L84.1336 62.8326C84.2776 63.3006 84.7636 63.9486 86.2396 63.9486C87.4276 63.9486 88.0936 63.4626 88.0936 62.6526C88.0936 61.5906 86.5636 61.5906 85.3036 61.3026C83.5936 60.9246 82.8556 60.0966 82.8556 58.7466C82.8556 57.0726 84.2416 55.8846 86.2216 55.8846C87.6976 55.8846 89.0116 56.6406 89.3356 57.9906L87.8056 58.4046C87.6436 57.9006 87.1036 57.3606 86.0776 57.3606C85.1776 57.3606 84.5116 57.8646 84.5116 58.6206C84.5116 59.6466 85.7716 59.7186 86.8156 59.9346ZM100.813 55.8846C102.865 55.8846 104.323 57.5946 104.323 59.5206V65.2266H102.667V59.9886C102.667 58.7106 102.127 57.4326 100.417 57.4326C98.6894 57.4326 97.9874 58.9266 97.9874 59.9886V65.2266H96.3494V52.6266H97.9874V57.3786C98.5274 56.5686 99.4274 55.8846 100.813 55.8846ZM110.916 55.8846C113.67 55.8846 115.704 58.0446 115.704 60.6726C115.704 63.3006 113.67 65.4606 110.916 65.4606C108.162 65.4606 106.128 63.3006 106.128 60.6726C106.128 58.0446 108.162 55.8846 110.916 55.8846ZM110.916 63.8946C112.716 63.8946 114.03 62.5266 114.03 60.6726C114.03 58.8006 112.716 57.4326 110.916 57.4326C109.116 57.4326 107.82 58.8006 107.82 60.6726C107.82 62.5266 109.116 63.8946 110.916 63.8946ZM127.728 56.1006H129.546L126.486 65.2266H124.938L122.94 59.0166L120.96 65.2266H119.412L116.334 56.1006H118.17L120.204 62.8326L122.346 56.1006H123.534L125.676 62.8326L127.728 56.1006ZM140.165 53.7786C138.689 53.7786 138.509 54.7326 138.491 56.1006H140.597V57.6666H138.491V65.2266H136.853V57.6666H135.395V56.1006H136.853C136.853 54.1926 137.483 52.4106 139.985 52.4106C140.237 52.4106 140.381 52.4106 140.597 52.4466V53.7966C140.489 53.7966 140.291 53.7786 140.165 53.7786ZM145.781 55.8846C148.409 55.8846 149.273 57.5406 149.273 59.7186V65.2266H147.635V63.9666C147.221 64.6686 146.087 65.4606 144.647 65.4606C142.919 65.4606 141.407 64.4166 141.407 62.7786C141.407 59.9166 144.881 59.8446 146.159 59.8446C146.627 59.8446 147.401 59.8446 147.635 59.8446C147.635 58.4586 147.347 57.3786 145.457 57.3786C144.503 57.3786 143.495 57.8646 143.099 58.1886L141.947 57.3066C142.955 56.3886 144.341 55.8846 145.781 55.8846ZM147.635 62.6166V61.1226C147.581 61.1226 147.113 61.1226 147.005 61.1226C145.313 61.1226 143.099 61.1046 143.099 62.7066C143.099 63.4086 143.549 64.1286 145.007 64.1286C146.573 64.1286 147.527 63.0306 147.635 62.6166ZM155.089 59.9346C157.321 60.4026 158.059 61.1226 158.059 62.4906C158.059 64.1106 156.907 65.4606 154.477 65.4606C152.677 65.4606 151.165 64.7406 150.805 63.3726L152.407 62.8326C152.551 63.3006 153.037 63.9486 154.513 63.9486C155.701 63.9486 156.367 63.4626 156.367 62.6526C156.367 61.5906 154.837 61.5906 153.577 61.3026C151.867 60.9246 151.129 60.0966 151.129 58.7466C151.129 57.0726 152.515 55.8846 154.495 55.8846C155.971 55.8846 157.285 56.6406 157.609 57.9906L156.079 58.4046C155.917 57.9006 155.377 57.3606 154.351 57.3606C153.451 57.3606 152.785 57.8646 152.785 58.6206C152.785 59.6466 154.045 59.7186 155.089 59.9346ZM163.956 57.6666H161.85V61.6626C161.85 62.9586 161.868 63.8226 163.29 63.8226C163.56 63.8226 163.758 63.8046 163.956 63.7866V65.2266C163.722 65.2806 163.434 65.3166 163.074 65.3166C161.094 65.3166 160.212 64.2546 160.212 62.2566V57.6666H158.79V56.1006H160.212V54.1926H161.85V56.1006H163.956V57.6666ZM177.199 56.1006H179.017L174.031 68.7006H172.267L173.887 64.7586L170.071 56.1006H171.889L174.697 62.6886L177.199 56.1006ZM184.445 55.8846C187.199 55.8846 189.233 58.0446 189.233 60.6726C189.233 63.3006 187.199 65.4606 184.445 65.4606C181.691 65.4606 179.657 63.3006 179.657 60.6726C179.657 58.0446 181.691 55.8846 184.445 55.8846ZM184.445 63.8946C186.245 63.8946 187.559 62.5266 187.559 60.6726C187.559 58.8006 186.245 57.4326 184.445 57.4326C182.645 57.4326 181.349 58.8006 181.349 60.6726C181.349 62.5266 182.645 63.8946 184.445 63.8946ZM197.343 56.1006H198.981V65.2266H197.343V63.9666C196.803 64.7766 195.903 65.4606 194.535 65.4606C192.483 65.4606 191.025 63.7506 191.025 61.8246V56.1006H192.663V61.3386C192.663 62.6346 193.203 63.8946 194.913 63.8946C196.641 63.8946 197.343 62.4186 197.343 61.3386V56.1006ZM210.012 55.8846C212.64 55.8846 213.504 57.5406 213.504 59.7186V65.2266H211.866V63.9666C211.452 64.6686 210.318 65.4606 208.878 65.4606C207.15 65.4606 205.638 64.4166 205.638 62.7786C205.638 59.9166 209.112 59.8446 210.39 59.8446C210.858 59.8446 211.632 59.8446 211.866 59.8446C211.866 58.4586 211.578 57.3786 209.688 57.3786C208.734 57.3786 207.726 57.8646 207.33 58.1886L206.178 57.3066C207.186 56.3886 208.572 55.8846 210.012 55.8846ZM211.866 62.6166V61.1226C211.812 61.1226 211.344 61.1226 211.236 61.1226C209.544 61.1226 207.33 61.1046 207.33 62.7066C207.33 63.4086 207.78 64.1286 209.238 64.1286C210.804 64.1286 211.758 63.0306 211.866 62.6166ZM220.094 63.8946C221.246 63.8946 222.2 63.3366 222.74 62.4366L224.144 63.1926C223.316 64.5426 221.876 65.4606 220.094 65.4606C217.34 65.4606 215.306 63.3006 215.306 60.6726C215.306 58.0446 217.34 55.8846 220.094 55.8846C221.876 55.8846 223.316 56.8026 224.144 58.1346L222.74 58.9086C222.2 58.0086 221.246 57.4326 220.094 57.4326C218.294 57.4326 216.98 58.8006 216.98 60.6726C216.98 62.5266 218.294 63.8946 220.094 63.8946ZM230.136 55.8846C232.188 55.8846 233.646 57.5946 233.646 59.5206V65.2266H231.99V59.9886C231.99 58.7106 231.45 57.4326 229.74 57.4326C228.012 57.4326 227.31 58.9266 227.31 59.9886V65.2266H225.672V52.6266H227.31V57.3786C227.85 56.5686 228.75 55.8846 230.136 55.8846ZM235.99 65.2266V56.1006H237.646V65.2266H235.99ZM236.818 54.4806C236.296 54.4806 235.882 54.0666 235.882 53.5446C235.882 53.0406 236.296 52.6086 236.818 52.6086C237.34 52.6086 237.754 53.0406 237.754 53.5446C237.754 54.0666 237.34 54.4806 236.818 54.4806ZM244.066 55.8846C246.55 55.8846 248.872 57.9726 248.44 61.3746H241.186C241.438 62.8686 242.554 63.8946 244.336 63.8946C245.326 63.8946 246.226 63.5166 246.73 62.8686L248.08 63.7326C247.27 64.8306 245.938 65.4606 244.336 65.4606C241.312 65.4606 239.44 63.3006 239.44 60.6726C239.44 58.0446 241.384 55.8846 244.066 55.8846ZM241.186 59.9706H246.784C246.568 58.4226 245.614 57.4326 244.066 57.4326C242.5 57.4326 241.438 58.4586 241.186 59.9706ZM256.283 56.1006H258.101L254.555 65.2266H252.683L249.137 56.1006H250.973L253.619 63.2646L256.283 56.1006ZM263.367 55.8846C265.851 55.8846 268.173 57.9726 267.741 61.3746H260.487C260.739 62.8686 261.855 63.8946 263.637 63.8946C264.627 63.8946 265.527 63.5166 266.031 62.8686L267.381 63.7326C266.571 64.8306 265.239 65.4606 263.637 65.4606C260.613 65.4606 258.741 63.3006 258.741 60.6726C258.741 58.0446 260.685 55.8846 263.367 55.8846ZM260.487 59.9706H266.085C265.869 58.4226 264.915 57.4326 263.367 57.4326C261.801 57.4326 260.739 58.4586 260.487 59.9706ZM276.925 52.6266H278.563V65.2266H276.925V63.9486C276.241 64.8126 275.197 65.4606 273.613 65.4606C270.769 65.4606 269.059 63.0666 269.059 60.6726C269.059 58.2786 270.769 55.8846 273.613 55.8846C275.197 55.8846 276.241 56.5326 276.925 57.3786V52.6266ZM273.775 63.8946C275.773 63.8946 276.925 62.4726 276.925 60.6726C276.925 58.8726 275.773 57.4326 273.775 57.4326C271.885 57.4326 270.751 58.8366 270.751 60.6726C270.751 62.5086 271.885 63.8946 273.775 63.8946ZM292.072 56.1006H293.89L288.904 68.7006H287.14L288.76 64.7586L284.944 56.1006H286.762L289.57 62.6886L292.072 56.1006ZM299.318 55.8846C302.072 55.8846 304.106 58.0446 304.106 60.6726C304.106 63.3006 302.072 65.4606 299.318 65.4606C296.564 65.4606 294.53 63.3006 294.53 60.6726C294.53 58.0446 296.564 55.8846 299.318 55.8846ZM299.318 63.8946C301.118 63.8946 302.432 62.5266 302.432 60.6726C302.432 58.8006 301.118 57.4326 299.318 57.4326C297.518 57.4326 296.222 58.8006 296.222 60.6726C296.222 62.5266 297.518 63.8946 299.318 63.8946ZM312.216 56.1006H313.854V65.2266H312.216V63.9666C311.676 64.7766 310.776 65.4606 309.408 65.4606C307.356 65.4606 305.898 63.7506 305.898 61.8246V56.1006H307.536V61.3386C307.536 62.6346 308.076 63.8946 309.786 63.8946C311.514 63.8946 312.216 62.4186 312.216 61.3386V56.1006ZM317.837 57.6846C318.449 56.4606 319.709 55.8846 320.879 55.8846V57.7386C318.179 57.4146 317.837 59.4666 317.837 61.1406V65.2266H316.199V56.1006H317.837V57.6846ZM334.647 56.1006H336.303V64.2726C336.303 66.8646 334.917 68.8626 331.623 68.8626C329.823 68.8626 328.221 68.1426 327.483 67.0266L328.887 66.1986C329.229 66.7026 330.111 67.3146 331.623 67.3146C333.801 67.3146 334.647 65.9286 334.647 64.1106V63.4086C334.035 64.2906 333.045 64.9746 331.551 64.9746C328.869 64.9746 326.997 62.6886 326.997 60.4206C326.997 58.1706 328.869 55.8846 331.551 55.8846C333.045 55.8846 334.035 56.5686 334.647 57.4326V56.1006ZM331.713 63.4266C333.459 63.4266 334.647 62.1486 334.647 60.4206C334.647 58.7106 333.459 57.4326 331.713 57.4326C330.003 57.4326 328.689 58.7106 328.689 60.4206C328.689 62.1486 330.003 63.4266 331.713 63.4266ZM342.894 55.8846C345.648 55.8846 347.682 58.0446 347.682 60.6726C347.682 63.3006 345.648 65.4606 342.894 65.4606C340.14 65.4606 338.106 63.3006 338.106 60.6726C338.106 58.0446 340.14 55.8846 342.894 55.8846ZM342.894 63.8946C344.694 63.8946 346.008 62.5266 346.008 60.6726C346.008 58.8006 344.694 57.4326 342.894 57.4326C341.094 57.4326 339.798 58.8006 339.798 60.6726C339.798 62.5266 341.094 63.8946 342.894 63.8946ZM353.308 55.8846C355.936 55.8846 356.8 57.5406 356.8 59.7186V65.2266H355.162V63.9666C354.748 64.6686 353.614 65.4606 352.174 65.4606C350.446 65.4606 348.934 64.4166 348.934 62.7786C348.934 59.9166 352.408 59.8446 353.686 59.8446C354.154 59.8446 354.928 59.8446 355.162 59.8446C355.162 58.4586 354.874 57.3786 352.984 57.3786C352.03 57.3786 351.022 57.8646 350.626 58.1886L349.474 57.3066C350.482 56.3886 351.868 55.8846 353.308 55.8846ZM355.162 62.6166V61.1226C355.108 61.1226 354.64 61.1226 354.532 61.1226C352.84 61.1226 350.626 61.1046 350.626 62.7066C350.626 63.4086 351.076 64.1286 352.534 64.1286C354.1 64.1286 355.054 63.0306 355.162 62.6166ZM359.142 52.6266H360.78V65.2266H359.142V52.6266ZM366.589 59.9346C368.821 60.4026 369.559 61.1226 369.559 62.4906C369.559 64.1106 368.407 65.4606 365.977 65.4606C364.177 65.4606 362.665 64.7406 362.305 63.3726L363.907 62.8326C364.051 63.3006 364.537 63.9486 366.013 63.9486C367.201 63.9486 367.867 63.4626 367.867 62.6526C367.867 61.5906 366.337 61.5906 365.077 61.3026C363.367 60.9246 362.629 60.0966 362.629 58.7466C362.629 57.0726 364.015 55.8846 365.995 55.8846C367.471 55.8846 368.785 56.6406 369.109 57.9906L367.579 58.4046C367.417 57.9006 366.877 57.3606 365.851 57.3606C364.951 57.3606 364.285 57.8646 364.285 58.6206C364.285 59.6466 365.545 59.7186 366.589 59.9346ZM379.597 59.9346C381.829 60.4026 382.567 61.1226 382.567 62.4906C382.567 64.1106 381.415 65.4606 378.985 65.4606C377.185 65.4606 375.673 64.7406 375.313 63.3726L376.915 62.8326C377.059 63.3006 377.545 63.9486 379.021 63.9486C380.209 63.9486 380.875 63.4626 380.875 62.6526C380.875 61.5906 379.345 61.5906 378.085 61.3026C376.375 60.9246 375.637 60.0966 375.637 58.7466C375.637 57.0726 377.023 55.8846 379.003 55.8846C380.479 55.8846 381.793 56.6406 382.117 57.9906L380.587 58.4046C380.425 57.9006 379.885 57.3606 378.859 57.3606C377.959 57.3606 377.293 57.8646 377.293 58.6206C377.293 59.6466 378.553 59.7186 379.597 59.9346ZM388.527 55.8846C391.281 55.8846 393.315 58.0446 393.315 60.6726C393.315 63.3006 391.281 65.4606 388.527 65.4606C385.773 65.4606 383.739 63.3006 383.739 60.6726C383.739 58.0446 385.773 55.8846 388.527 55.8846ZM388.527 63.8946C390.327 63.8946 391.641 62.5266 391.641 60.6726C391.641 58.8006 390.327 57.4326 388.527 57.4326C386.727 57.4326 385.431 58.8006 385.431 60.6726C385.431 62.5266 386.727 63.8946 388.527 63.8946ZM404.189 53.7786C402.713 53.7786 402.533 54.7326 402.515 56.1006H404.621V57.6666H402.515V65.2266H400.877V57.6666H399.419V56.1006H400.877C400.877 54.1926 401.507 52.4106 404.009 52.4106C404.261 52.4106 404.405 52.4106 404.621 52.4466V53.7966C404.513 53.7966 404.315 53.7786 404.189 53.7786ZM409.805 55.8846C412.433 55.8846 413.297 57.5406 413.297 59.7186V65.2266H411.659V63.9666C411.245 64.6686 410.111 65.4606 408.671 65.4606C406.943 65.4606 405.431 64.4166 405.431 62.7786C405.431 59.9166 408.905 59.8446 410.183 59.8446C410.651 59.8446 411.425 59.8446 411.659 59.8446C411.659 58.4586 411.371 57.3786 409.481 57.3786C408.527 57.3786 407.519 57.8646 407.123 58.1886L405.971 57.3066C406.979 56.3886 408.365 55.8846 409.805 55.8846ZM411.659 62.6166V61.1226C411.605 61.1226 411.137 61.1226 411.029 61.1226C409.337 61.1226 407.123 61.1046 407.123 62.7066C407.123 63.4086 407.573 64.1286 409.031 64.1286C410.597 64.1286 411.551 63.0306 411.659 62.6166ZM417.277 57.6846C417.889 56.4606 419.149 55.8846 420.319 55.8846V57.7386C417.619 57.4146 417.277 59.4666 417.277 61.1406V65.2266H415.639V56.1006H417.277V57.6846ZM422.25 63.2106C422.88 63.2106 423.384 63.7146 423.384 64.3266C423.384 64.9566 422.88 65.4606 422.25 65.4606C421.638 65.4606 421.134 64.9566 421.134 64.3266C421.134 63.7146 421.638 63.2106 422.25 63.2106Z" fill="white"/>
<rect x="0.666894" y="0.666894" width="458.023" height="116.119" rx="13.3331" stroke="url(#paint0_linear_973_4337)" stroke-opacity="0.99" stroke-width="1.33379"/>
</g>
<defs>
<filter id="filter0_b_973_4337" x="-36.0123" y="-36.0123" width="531.381" height="189.477" filterUnits="userSpaceOnUse" color-interpolation-filters="sRGB">
<feFlood flood-opacity="0" result="BackgroundImageFix"/>
<feGaussianBlur in="BackgroundImageFix" stdDeviation="18.0061"/>
<feComposite in2="SourceAlpha" operator="in" result="effect1_backgroundBlur_973_4337"/>
<feBlend mode="normal" in="SourceGraphic" in2="effect1_backgroundBlur_973_4337" result="shape"/>
</filter>
<linearGradient id="paint0_linear_973_4337" x1="229.678" y1="3.08667e-05" x2="148.513" y2="127.214" gradientUnits="userSpaceOnUse">
<stop stop-color="white"/>
<stop offset="1" stop-color="white" stop-opacity="0"/>
</linearGradient>
</defs>
</svg>
