<svg width="418" height="118" viewBox="0 0 418 118" fill="none" xmlns="http://www.w3.org/2000/svg">
<g filter="url(#filter0_b_973_4339)">
<rect y="0.338867" width="417.357" height="117.452" rx="14" fill="#313131" fill-opacity="0.54"/>
<path d="M42.1894 64.1074C43.7194 64.1074 44.9074 63.4414 45.6994 62.4694L47.1934 63.4594C46.0414 64.8994 44.2774 65.7994 42.1894 65.7994C38.4634 65.7994 35.7814 62.9554 35.7814 59.2654C35.7814 55.5754 38.4634 52.7494 42.1894 52.7494C44.2774 52.7494 46.0414 53.6314 47.1934 55.0894L45.6994 56.0614C44.9074 55.0894 43.7194 54.4234 42.1894 54.4234C39.2554 54.4234 37.6174 56.8174 37.6174 59.2654C37.6174 61.7134 39.2554 64.1074 42.1894 64.1074ZM50.4533 58.0234C51.0653 56.7994 52.3253 56.2234 53.4953 56.2234V58.0774C50.7953 57.7534 50.4533 59.8054 50.4533 61.4794V65.5654H48.8153V56.4394H50.4533V58.0234ZM59.036 56.2234C61.52 56.2234 63.842 58.3114 63.41 61.7134H56.156C56.408 63.2074 57.524 64.2334 59.306 64.2334C60.296 64.2334 61.196 63.8554 61.7 63.2074L63.05 64.0714C62.24 65.1694 60.908 65.7994 59.306 65.7994C56.282 65.7994 54.41 63.6394 54.41 61.0114C54.41 58.3834 56.354 56.2234 59.036 56.2234ZM56.156 60.3094H61.754C61.538 58.7614 60.584 57.7714 59.036 57.7714C57.47 57.7714 56.408 58.7974 56.156 60.3094ZM69.1024 56.2234C71.7304 56.2234 72.5944 57.8794 72.5944 60.0574V65.5654H70.9564V64.3054C70.5424 65.0074 69.4084 65.7994 67.9684 65.7994C66.2404 65.7994 64.7284 64.7554 64.7284 63.1174C64.7284 60.2554 68.2024 60.1834 69.4804 60.1834C69.9484 60.1834 70.7224 60.1834 70.9564 60.1834C70.9564 58.7974 70.6684 57.7174 68.7784 57.7174C67.8244 57.7174 66.8164 58.2034 66.4204 58.5274L65.2684 57.6454C66.2764 56.7274 67.6624 56.2234 69.1024 56.2234ZM70.9564 62.9554V61.4614C70.9024 61.4614 70.4344 61.4614 70.3264 61.4614C68.6344 61.4614 66.4204 61.4434 66.4204 63.0454C66.4204 63.7474 66.8704 64.4674 68.3284 64.4674C69.8944 64.4674 70.8484 63.3694 70.9564 62.9554ZM79.1208 58.0054H77.0148V62.0014C77.0148 63.2974 77.0328 64.1614 78.4548 64.1614C78.7248 64.1614 78.9228 64.1434 79.1208 64.1254V65.5654C78.8868 65.6194 78.5988 65.6554 78.2388 65.6554C76.2588 65.6554 75.3768 64.5934 75.3768 62.5954V58.0054H73.9548V56.4394H75.3768V54.5314H77.0148V56.4394H79.1208V58.0054ZM85.1044 56.2234C87.5884 56.2234 89.9104 58.3114 89.4784 61.7134H82.2244C82.4764 63.2074 83.5924 64.2334 85.3744 64.2334C86.3644 64.2334 87.2644 63.8554 87.7684 63.2074L89.1184 64.0714C88.3084 65.1694 86.9764 65.7994 85.3744 65.7994C82.3504 65.7994 80.4784 63.6394 80.4784 61.0114C80.4784 58.3834 82.4224 56.2234 85.1044 56.2234ZM82.2244 60.3094H87.8224C87.6064 58.7614 86.6524 57.7714 85.1044 57.7714C83.5384 57.7714 82.4764 58.7974 82.2244 60.3094ZM100.022 56.2234C102.65 56.2234 103.514 57.8794 103.514 60.0574V65.5654H101.876V64.3054C101.462 65.0074 100.328 65.7994 98.8883 65.7994C97.1603 65.7994 95.6483 64.7554 95.6483 63.1174C95.6483 60.2554 99.1223 60.1834 100.4 60.1834C100.868 60.1834 101.642 60.1834 101.876 60.1834C101.876 58.7974 101.588 57.7174 99.6983 57.7174C98.7443 57.7174 97.7363 58.2034 97.3403 58.5274L96.1883 57.6454C97.1963 56.7274 98.5823 56.2234 100.022 56.2234ZM101.876 62.9554V61.4614C101.822 61.4614 101.354 61.4614 101.246 61.4614C99.5543 61.4614 97.3403 61.4434 97.3403 63.0454C97.3403 63.7474 97.7903 64.4674 99.2483 64.4674C100.814 64.4674 101.768 63.3694 101.876 62.9554ZM112.346 58.0234C112.958 56.7994 114.218 56.2234 115.388 56.2234V58.0774C112.688 57.7534 112.346 59.8054 112.346 61.4794V65.5654H110.708V56.4394H112.346V58.0234ZM120.929 56.2234C123.413 56.2234 125.735 58.3114 125.303 61.7134H118.049C118.301 63.2074 119.417 64.2334 121.199 64.2334C122.189 64.2334 123.089 63.8554 123.593 63.2074L124.943 64.0714C124.133 65.1694 122.801 65.7994 121.199 65.7994C118.175 65.7994 116.303 63.6394 116.303 61.0114C116.303 58.3834 118.247 56.2234 120.929 56.2234ZM118.049 60.3094H123.647C123.431 58.7614 122.477 57.7714 120.929 57.7714C119.363 57.7714 118.301 58.7974 118.049 60.3094ZM130.995 56.2234C133.623 56.2234 134.487 57.8794 134.487 60.0574V65.5654H132.849V64.3054C132.435 65.0074 131.301 65.7994 129.861 65.7994C128.133 65.7994 126.621 64.7554 126.621 63.1174C126.621 60.2554 130.095 60.1834 131.373 60.1834C131.841 60.1834 132.615 60.1834 132.849 60.1834C132.849 58.7974 132.561 57.7174 130.671 57.7174C129.717 57.7174 128.709 58.2034 128.313 58.5274L127.161 57.6454C128.169 56.7274 129.555 56.2234 130.995 56.2234ZM132.849 62.9554V61.4614C132.795 61.4614 132.327 61.4614 132.219 61.4614C130.527 61.4614 128.313 61.4434 128.313 63.0454C128.313 63.7474 128.763 64.4674 130.221 64.4674C131.787 64.4674 132.741 63.3694 132.849 62.9554ZM136.829 52.9654H138.467V65.5654H136.829V52.9654ZM140.802 65.5654V56.4394H142.458V65.5654H140.802ZM141.63 54.8194C141.108 54.8194 140.694 54.4054 140.694 53.8834C140.694 53.3794 141.108 52.9474 141.63 52.9474C142.152 52.9474 142.566 53.3794 142.566 53.8834C142.566 54.4054 142.152 54.8194 141.63 54.8194ZM148.442 60.2734C150.674 60.7414 151.412 61.4614 151.412 62.8294C151.412 64.4494 150.26 65.7994 147.83 65.7994C146.03 65.7994 144.518 65.0794 144.158 63.7114L145.76 63.1714C145.904 63.6394 146.39 64.2874 147.866 64.2874C149.054 64.2874 149.72 63.8014 149.72 62.9914C149.72 61.9294 148.19 61.9294 146.93 61.6414C145.22 61.2634 144.482 60.4354 144.482 59.0854C144.482 57.4114 145.868 56.2234 147.848 56.2234C149.324 56.2234 150.638 56.9794 150.962 58.3294L149.432 58.7434C149.27 58.2394 148.73 57.6994 147.704 57.6994C146.804 57.6994 146.138 58.2034 146.138 58.9594C146.138 59.9854 147.398 60.0574 148.442 60.2734ZM157.308 58.0054H155.202V62.0014C155.202 63.2974 155.22 64.1614 156.642 64.1614C156.912 64.1614 157.11 64.1434 157.308 64.1254V65.5654C157.074 65.6194 156.786 65.6554 156.426 65.6554C154.446 65.6554 153.564 64.5934 153.564 62.5954V58.0054H152.142V56.4394H153.564V54.5314H155.202V56.4394H157.308V58.0054ZM159.382 65.5654V56.4394H161.038V65.5654H159.382ZM160.21 54.8194C159.688 54.8194 159.274 54.4054 159.274 53.8834C159.274 53.3794 159.688 52.9474 160.21 52.9474C160.732 52.9474 161.146 53.3794 161.146 53.8834C161.146 54.4054 160.732 54.8194 160.21 54.8194ZM167.62 64.2334C168.772 64.2334 169.726 63.6754 170.266 62.7754L171.67 63.5314C170.842 64.8814 169.402 65.7994 167.62 65.7994C164.866 65.7994 162.832 63.6394 162.832 61.0114C162.832 58.3834 164.866 56.2234 167.62 56.2234C169.402 56.2234 170.842 57.1414 171.67 58.4734L170.266 59.2474C169.726 58.3474 168.772 57.7714 167.62 57.7714C165.82 57.7714 164.506 59.1394 164.506 61.0114C164.506 62.8654 165.82 64.2334 167.62 64.2334ZM184.386 56.4394H186.204L182.658 65.5654H180.786L177.24 56.4394H179.076L181.722 63.6034L184.386 56.4394ZM187.735 65.5654V56.4394H189.391V65.5654H187.735ZM188.563 54.8194C188.041 54.8194 187.627 54.4054 187.627 53.8834C187.627 53.3794 188.041 52.9474 188.563 52.9474C189.085 52.9474 189.499 53.3794 189.499 53.8834C189.499 54.4054 189.085 54.8194 188.563 54.8194ZM195.375 60.2734C197.607 60.7414 198.345 61.4614 198.345 62.8294C198.345 64.4494 197.193 65.7994 194.763 65.7994C192.963 65.7994 191.451 65.0794 191.091 63.7114L192.693 63.1714C192.837 63.6394 193.323 64.2874 194.799 64.2874C195.987 64.2874 196.653 63.8014 196.653 62.9914C196.653 61.9294 195.123 61.9294 193.863 61.6414C192.153 61.2634 191.415 60.4354 191.415 59.0854C191.415 57.4114 192.801 56.2234 194.781 56.2234C196.257 56.2234 197.571 56.9794 197.895 58.3294L196.365 58.7434C196.203 58.2394 195.663 57.6994 194.637 57.6994C193.737 57.6994 193.071 58.2034 193.071 58.9594C193.071 59.9854 194.331 60.0574 195.375 60.2734ZM200.057 65.5654V56.4394H201.713V65.5654H200.057ZM200.885 54.8194C200.363 54.8194 199.949 54.4054 199.949 53.8834C199.949 53.3794 200.363 52.9474 200.885 52.9474C201.407 52.9474 201.821 53.3794 201.821 53.8834C201.821 54.4054 201.407 54.8194 200.885 54.8194ZM208.296 56.2234C211.05 56.2234 213.084 58.3834 213.084 61.0114C213.084 63.6394 211.05 65.7994 208.296 65.7994C205.542 65.7994 203.508 63.6394 203.508 61.0114C203.508 58.3834 205.542 56.2234 208.296 56.2234ZM208.296 64.2334C210.096 64.2334 211.41 62.8654 211.41 61.0114C211.41 59.1394 210.096 57.7714 208.296 57.7714C206.496 57.7714 205.2 59.1394 205.2 61.0114C205.2 62.8654 206.496 64.2334 208.296 64.2334ZM219.34 56.2234C221.392 56.2234 222.832 57.9334 222.832 59.8594V65.5654H221.194V60.3274C221.194 59.0494 220.654 57.7714 218.944 57.7714C217.216 57.7714 216.514 59.2654 216.514 60.3274V65.5654H214.876V56.4394H216.514V57.7174C217.054 56.9074 217.954 56.2234 219.34 56.2234ZM234.258 54.1174C232.782 54.1174 232.602 55.0714 232.584 56.4394H234.69V58.0054H232.584V65.5654H230.946V58.0054H229.488V56.4394H230.946C230.946 54.5314 231.576 52.7494 234.078 52.7494C234.33 52.7494 234.474 52.7494 234.69 52.7854V54.1354C234.582 54.1354 234.384 54.1174 234.258 54.1174ZM240.464 56.2234C243.218 56.2234 245.252 58.3834 245.252 61.0114C245.252 63.6394 243.218 65.7994 240.464 65.7994C237.71 65.7994 235.676 63.6394 235.676 61.0114C235.676 58.3834 237.71 56.2234 240.464 56.2234ZM240.464 64.2334C242.264 64.2334 243.578 62.8654 243.578 61.0114C243.578 59.1394 242.264 57.7714 240.464 57.7714C238.664 57.7714 237.368 59.1394 237.368 61.0114C237.368 62.8654 238.664 64.2334 240.464 64.2334ZM248.682 58.0234C249.294 56.7994 250.554 56.2234 251.724 56.2234V58.0774C249.024 57.7534 248.682 59.8054 248.682 61.4794V65.5654H247.044V56.4394H248.682V58.0234ZM264.7 56.4394H266.518L261.532 69.0394H259.768L261.388 65.0974L257.572 56.4394H259.39L262.198 63.0274L264.7 56.4394ZM271.946 56.2234C274.7 56.2234 276.734 58.3834 276.734 61.0114C276.734 63.6394 274.7 65.7994 271.946 65.7994C269.192 65.7994 267.158 63.6394 267.158 61.0114C267.158 58.3834 269.192 56.2234 271.946 56.2234ZM271.946 64.2334C273.746 64.2334 275.06 62.8654 275.06 61.0114C275.06 59.1394 273.746 57.7714 271.946 57.7714C270.146 57.7714 268.85 59.1394 268.85 61.0114C268.85 62.8654 270.146 64.2334 271.946 64.2334ZM284.844 56.4394H286.482V65.5654H284.844V64.3054C284.304 65.1154 283.404 65.7994 282.036 65.7994C279.984 65.7994 278.526 64.0894 278.526 62.1634V56.4394H280.164V61.6774C280.164 62.9734 280.704 64.2334 282.414 64.2334C284.142 64.2334 284.844 62.7574 284.844 61.6774V56.4394ZM290.465 58.0234C291.077 56.7994 292.337 56.2234 293.507 56.2234V58.0774C290.807 57.7534 290.465 59.8054 290.465 61.4794V65.5654H288.827V56.4394H290.465V58.0234ZM304.395 54.1174C302.919 54.1174 302.739 55.0714 302.721 56.4394H304.827V58.0054H302.721V65.5654H301.083V58.0054H299.625V56.4394H301.083C301.083 54.5314 301.713 52.7494 304.215 52.7494C304.467 52.7494 304.611 52.7494 304.827 52.7854V54.1354C304.719 54.1354 304.521 54.1174 304.395 54.1174ZM312.846 56.4394H314.484V65.5654H312.846V64.3054C312.306 65.1154 311.406 65.7994 310.038 65.7994C307.986 65.7994 306.528 64.0894 306.528 62.1634V56.4394H308.166V61.6774C308.166 62.9734 308.706 64.2334 310.416 64.2334C312.144 64.2334 312.846 62.7574 312.846 61.6774V56.4394ZM321.365 58.0054H319.259V62.0014C319.259 63.2974 319.277 64.1614 320.699 64.1614C320.969 64.1614 321.167 64.1434 321.365 64.1254V65.5654C321.131 65.6194 320.843 65.6554 320.483 65.6554C318.503 65.6554 317.621 64.5934 317.621 62.5954V58.0054H316.199V56.4394H317.621V54.5314H319.259V56.4394H321.365V58.0054ZM329.756 56.4394H331.394V65.5654H329.756V64.3054C329.216 65.1154 328.316 65.7994 326.948 65.7994C324.896 65.7994 323.438 64.0894 323.438 62.1634V56.4394H325.076V61.6774C325.076 62.9734 325.616 64.2334 327.326 64.2334C329.054 64.2334 329.756 62.7574 329.756 61.6774V56.4394ZM335.377 58.0234C335.989 56.7994 337.249 56.2234 338.419 56.2234V58.0774C335.719 57.7534 335.377 59.8054 335.377 61.4794V65.5654H333.739V56.4394H335.377V58.0234ZM343.96 56.2234C346.444 56.2234 348.766 58.3114 348.334 61.7134H341.08C341.332 63.2074 342.448 64.2334 344.23 64.2334C345.22 64.2334 346.12 63.8554 346.624 63.2074L347.974 64.0714C347.164 65.1694 345.832 65.7994 344.23 65.7994C341.206 65.7994 339.334 63.6394 339.334 61.0114C339.334 58.3834 341.278 56.2234 343.96 56.2234ZM341.08 60.3094H346.678C346.462 58.7614 345.508 57.7714 343.96 57.7714C342.394 57.7714 341.332 58.7974 341.08 60.3094ZM355.044 52.9654H356.682V65.5654H355.044V52.9654ZM359.016 65.5654V56.4394H360.672V65.5654H359.016ZM359.844 54.8194C359.322 54.8194 358.908 54.4054 358.908 53.8834C358.908 53.3794 359.322 52.9474 359.844 52.9474C360.366 52.9474 360.78 53.3794 360.78 53.8834C360.78 54.4054 360.366 54.8194 359.844 54.8194ZM367.237 54.1174C365.761 54.1174 365.581 55.0714 365.563 56.4394H367.669V58.0054H365.563V65.5654H363.925V58.0054H362.467V56.4394H363.925C363.925 54.5314 364.555 52.7494 367.057 52.7494C367.309 52.7494 367.453 52.7494 367.669 52.7854V54.1354C367.561 54.1354 367.363 54.1174 367.237 54.1174ZM373.28 56.2234C375.764 56.2234 378.086 58.3114 377.654 61.7134H370.4C370.652 63.2074 371.768 64.2334 373.55 64.2334C374.54 64.2334 375.44 63.8554 375.944 63.2074L377.294 64.0714C376.484 65.1694 375.152 65.7994 373.55 65.7994C370.526 65.7994 368.654 63.6394 368.654 61.0114C368.654 58.3834 370.598 56.2234 373.28 56.2234ZM370.4 60.3094H375.998C375.782 58.7614 374.828 57.7714 373.28 57.7714C371.714 57.7714 370.652 58.7974 370.4 60.3094ZM380.359 63.5494C380.989 63.5494 381.493 64.0534 381.493 64.6654C381.493 65.2954 380.989 65.7994 380.359 65.7994C379.747 65.7994 379.243 65.2954 379.243 64.6654C379.243 64.0534 379.747 63.5494 380.359 63.5494Z" fill="white"/>
<rect x="0.666894" y="1.00576" width="416.023" height="116.119" rx="13.3331" stroke="url(#paint0_linear_973_4339)" stroke-opacity="0.99" stroke-width="1.33379"/>
</g>
<defs>
<filter id="filter0_b_973_4339" x="-36.0123" y="-35.6734" width="489.381" height="189.477" filterUnits="userSpaceOnUse" color-interpolation-filters="sRGB">
<feFlood flood-opacity="0" result="BackgroundImageFix"/>
<feGaussianBlur in="BackgroundImageFix" stdDeviation="18.0061"/>
<feComposite in2="SourceAlpha" operator="in" result="effect1_backgroundBlur_973_4339"/>
<feBlend mode="normal" in="SourceGraphic" in2="effect1_backgroundBlur_973_4339" result="shape"/>
</filter>
<linearGradient id="paint0_linear_973_4339" x1="164.746" y1="117.791" x2="114.067" y2="-31.3859" gradientUnits="userSpaceOnUse">
<stop stop-color="white"/>
<stop offset="1" stop-color="white" stop-opacity="0"/>
</linearGradient>
</defs>
</svg>
