<svg width="572" height="118" viewBox="0 0 572 118" fill="none" xmlns="http://www.w3.org/2000/svg">
<g filter="url(#filter0_b_973_4341)">
<rect y="0.547852" width="571.357" height="117.452" rx="14" fill="#313131" fill-opacity="0.54"/>
<path d="M161.526 51.8164C163.056 51.8164 164.244 51.1504 165.036 50.1784L166.53 51.1684C165.378 52.6084 163.614 53.5084 161.526 53.5084C157.8 53.5084 155.118 50.6644 155.118 46.9744C155.118 43.2844 157.8 40.4584 161.526 40.4584C163.614 40.4584 165.378 41.3404 166.53 42.7984L165.036 43.7704C164.244 42.7984 163.056 42.1324 161.526 42.1324C158.592 42.1324 156.954 44.5264 156.954 46.9744C156.954 49.4224 158.592 51.8164 161.526 51.8164ZM172.4 43.9324C175.154 43.9324 177.188 46.0924 177.188 48.7204C177.188 51.3484 175.154 53.5084 172.4 53.5084C169.646 53.5084 167.612 51.3484 167.612 48.7204C167.612 46.0924 169.646 43.9324 172.4 43.9324ZM172.4 51.9424C174.2 51.9424 175.514 50.5744 175.514 48.7204C175.514 46.8484 174.2 45.4804 172.4 45.4804C170.6 45.4804 169.304 46.8484 169.304 48.7204C169.304 50.5744 170.6 51.9424 172.4 51.9424ZM183.444 43.9324C185.496 43.9324 186.936 45.6424 186.936 47.5684V53.2744H185.298V48.0364C185.298 46.7584 184.758 45.4804 183.048 45.4804C181.32 45.4804 180.618 46.9744 180.618 48.0364V53.2744H178.98V44.1484H180.618V45.4264C181.158 44.6164 182.058 43.9324 183.444 43.9324ZM192.755 47.9824C194.987 48.4504 195.725 49.1704 195.725 50.5384C195.725 52.1584 194.573 53.5084 192.143 53.5084C190.343 53.5084 188.831 52.7884 188.471 51.4204L190.073 50.8804C190.217 51.3484 190.703 51.9964 192.179 51.9964C193.367 51.9964 194.033 51.5104 194.033 50.7004C194.033 49.6384 192.503 49.6384 191.243 49.3504C189.533 48.9724 188.795 48.1444 188.795 46.7944C188.795 45.1204 190.181 43.9324 192.161 43.9324C193.637 43.9324 194.951 44.6884 195.275 46.0384L193.745 46.4524C193.583 45.9484 193.043 45.4084 192.017 45.4084C191.117 45.4084 190.451 45.9124 190.451 46.6684C190.451 47.6944 191.711 47.7664 192.755 47.9824ZM201.622 45.7144H199.516V49.7104C199.516 51.0064 199.534 51.8704 200.956 51.8704C201.226 51.8704 201.424 51.8524 201.622 51.8344V53.2744C201.388 53.3284 201.1 53.3644 200.74 53.3644C198.76 53.3644 197.878 52.3024 197.878 50.3044V45.7144H196.456V44.1484H197.878V42.2404H199.516V44.1484H201.622V45.7144ZM207.529 43.9324C210.157 43.9324 211.021 45.5884 211.021 47.7664V53.2744H209.383V52.0144C208.969 52.7164 207.835 53.5084 206.395 53.5084C204.667 53.5084 203.155 52.4644 203.155 50.8264C203.155 47.9644 206.629 47.8924 207.907 47.8924C208.375 47.8924 209.149 47.8924 209.383 47.8924C209.383 46.5064 209.095 45.4264 207.205 45.4264C206.251 45.4264 205.243 45.9124 204.847 46.2364L203.695 45.3544C204.703 44.4364 206.089 43.9324 207.529 43.9324ZM209.383 50.6644V49.1704C209.329 49.1704 208.861 49.1704 208.753 49.1704C207.061 49.1704 204.847 49.1524 204.847 50.7544C204.847 51.4564 205.297 52.1764 206.755 52.1764C208.321 52.1764 209.275 51.0784 209.383 50.6644ZM217.827 43.9324C219.879 43.9324 221.319 45.6424 221.319 47.5684V53.2744H219.681V48.0364C219.681 46.7584 219.141 45.4804 217.431 45.4804C215.703 45.4804 215.001 46.9744 215.001 48.0364V53.2744H213.363V44.1484H215.001V45.4264C215.541 44.6164 216.441 43.9324 217.827 43.9324ZM228.024 45.7144H225.918V49.7104C225.918 51.0064 225.936 51.8704 227.358 51.8704C227.628 51.8704 227.826 51.8524 228.024 51.8344V53.2744C227.79 53.3284 227.502 53.3644 227.142 53.3644C225.162 53.3644 224.28 52.3024 224.28 50.3044V45.7144H222.858V44.1484H224.28V42.2404H225.918V44.1484H228.024V45.7144ZM230.097 40.6744H231.735V53.2744H230.097V40.6744ZM240.388 44.1484H242.206L237.22 56.7484H235.456L237.076 52.8064L233.26 44.1484H235.078L237.886 50.7364L240.388 44.1484ZM252.676 43.9324C255.16 43.9324 257.482 46.0204 257.05 49.4224H249.796C250.048 50.9164 251.164 51.9424 252.946 51.9424C253.936 51.9424 254.836 51.5644 255.34 50.9164L256.69 51.7804C255.88 52.8784 254.548 53.5084 252.946 53.5084C249.922 53.5084 248.05 51.3484 248.05 48.7204C248.05 46.0924 249.994 43.9324 252.676 43.9324ZM249.796 48.0184H255.394C255.178 46.4704 254.224 45.4804 252.676 45.4804C251.11 45.4804 250.048 46.5064 249.796 48.0184ZM264.892 44.1484H266.71L263.164 53.2744H261.292L257.746 44.1484H259.582L262.228 51.3124L264.892 44.1484ZM271.531 43.9324C274.159 43.9324 275.023 45.5884 275.023 47.7664V53.2744H273.385V52.0144C272.971 52.7164 271.837 53.5084 270.397 53.5084C268.669 53.5084 267.157 52.4644 267.157 50.8264C267.157 47.9644 270.631 47.8924 271.909 47.8924C272.377 47.8924 273.151 47.8924 273.385 47.8924C273.385 46.5064 273.097 45.4264 271.207 45.4264C270.253 45.4264 269.245 45.9124 268.849 46.2364L267.697 45.3544C268.705 44.4364 270.091 43.9324 271.531 43.9324ZM273.385 50.6644V49.1704C273.331 49.1704 272.863 49.1704 272.755 49.1704C271.063 49.1704 268.849 49.1524 268.849 50.7544C268.849 51.4564 269.299 52.1764 270.757 52.1764C272.323 52.1764 273.277 51.0784 273.385 50.6644ZM277.365 40.6744H279.003V53.2744H277.365V40.6744ZM287.656 44.1484H289.294V53.2744H287.656V52.0144C287.116 52.8244 286.216 53.5084 284.848 53.5084C282.796 53.5084 281.338 51.7984 281.338 49.8724V44.1484H282.976V49.3864C282.976 50.6824 283.516 51.9424 285.226 51.9424C286.954 51.9424 287.656 50.4664 287.656 49.3864V44.1484ZM295.473 43.9324C298.101 43.9324 298.965 45.5884 298.965 47.7664V53.2744H297.327V52.0144C296.913 52.7164 295.779 53.5084 294.339 53.5084C292.611 53.5084 291.099 52.4644 291.099 50.8264C291.099 47.9644 294.573 47.8924 295.851 47.8924C296.319 47.8924 297.093 47.8924 297.327 47.8924C297.327 46.5064 297.039 45.4264 295.149 45.4264C294.195 45.4264 293.187 45.9124 292.791 46.2364L291.639 45.3544C292.647 44.4364 294.033 43.9324 295.473 43.9324ZM297.327 50.6644V49.1704C297.273 49.1704 296.805 49.1704 296.697 49.1704C295.005 49.1704 292.791 49.1524 292.791 50.7544C292.791 51.4564 293.241 52.1764 294.699 52.1764C296.265 52.1764 297.219 51.0784 297.327 50.6644ZM305.491 45.7144H303.385V49.7104C303.385 51.0064 303.403 51.8704 304.825 51.8704C305.095 51.8704 305.293 51.8524 305.491 51.8344V53.2744C305.257 53.3284 304.969 53.3644 304.609 53.3644C302.629 53.3644 301.747 52.3024 301.747 50.3044V45.7144H300.325V44.1484H301.747V42.2404H303.385V44.1484H305.491V45.7144ZM311.475 43.9324C313.959 43.9324 316.281 46.0204 315.849 49.4224H308.595C308.847 50.9164 309.963 51.9424 311.745 51.9424C312.735 51.9424 313.635 51.5644 314.139 50.9164L315.489 51.7804C314.679 52.8784 313.347 53.5084 311.745 53.5084C308.721 53.5084 306.849 51.3484 306.849 48.7204C306.849 46.0924 308.793 43.9324 311.475 43.9324ZM308.595 48.0184H314.193C313.977 46.4704 313.023 45.4804 311.475 45.4804C309.909 45.4804 308.847 46.5064 308.595 48.0184ZM326.392 43.9324C329.02 43.9324 329.884 45.5884 329.884 47.7664V53.2744H328.246V52.0144C327.832 52.7164 326.698 53.5084 325.258 53.5084C323.53 53.5084 322.018 52.4644 322.018 50.8264C322.018 47.9644 325.492 47.8924 326.77 47.8924C327.238 47.8924 328.012 47.8924 328.246 47.8924C328.246 46.5064 327.958 45.4264 326.068 45.4264C325.114 45.4264 324.106 45.9124 323.71 46.2364L322.558 45.3544C323.566 44.4364 324.952 43.9324 326.392 43.9324ZM328.246 50.6644V49.1704C328.192 49.1704 327.724 49.1704 327.616 49.1704C325.924 49.1704 323.71 49.1524 323.71 50.7544C323.71 51.4564 324.16 52.1764 325.618 52.1764C327.184 52.1764 328.138 51.0784 328.246 50.6644ZM336.69 43.9324C338.742 43.9324 340.182 45.6424 340.182 47.5684V53.2744H338.544V48.0364C338.544 46.7584 338.004 45.4804 336.294 45.4804C334.566 45.4804 333.864 46.9744 333.864 48.0364V53.2744H332.226V44.1484H333.864V45.4264C334.404 44.6164 335.304 43.9324 336.69 43.9324ZM349.853 40.6744H351.491V53.2744H349.853V51.9964C349.169 52.8604 348.125 53.5084 346.541 53.5084C343.697 53.5084 341.987 51.1144 341.987 48.7204C341.987 46.3264 343.697 43.9324 346.541 43.9324C348.125 43.9324 349.169 44.5804 349.853 45.4264V40.6744ZM346.703 51.9424C348.701 51.9424 349.853 50.5204 349.853 48.7204C349.853 46.9204 348.701 45.4804 346.703 45.4804C344.813 45.4804 343.679 46.8844 343.679 48.7204C343.679 50.5564 344.813 51.9424 346.703 51.9424ZM362.515 43.9324C365.143 43.9324 366.007 45.5884 366.007 47.7664V53.2744H364.369V52.0144C363.955 52.7164 362.821 53.5084 361.381 53.5084C359.653 53.5084 358.141 52.4644 358.141 50.8264C358.141 47.9644 361.615 47.8924 362.893 47.8924C363.361 47.8924 364.135 47.8924 364.369 47.8924C364.369 46.5064 364.081 45.4264 362.191 45.4264C361.237 45.4264 360.229 45.9124 359.833 46.2364L358.681 45.3544C359.689 44.4364 361.075 43.9324 362.515 43.9324ZM364.369 50.6644V49.1704C364.315 49.1704 363.847 49.1704 363.739 49.1704C362.047 49.1704 359.833 49.1524 359.833 50.7544C359.833 51.4564 360.283 52.1764 361.741 52.1764C363.307 52.1764 364.261 51.0784 364.369 50.6644ZM375.675 40.6744H377.313V53.2744H375.675V51.9964C374.991 52.8604 373.947 53.5084 372.363 53.5084C369.519 53.5084 367.809 51.1144 367.809 48.7204C367.809 46.3264 369.519 43.9324 372.363 43.9324C373.947 43.9324 374.991 44.5804 375.675 45.4264V40.6744ZM372.525 51.9424C374.523 51.9424 375.675 50.5204 375.675 48.7204C375.675 46.9204 374.523 45.4804 372.525 45.4804C370.635 45.4804 369.501 46.8844 369.501 48.7204C369.501 50.5564 370.635 51.9424 372.525 51.9424ZM379.67 53.1124V44.1484H381.308V53.4364C381.308 55.1464 380.354 56.6044 378.14 56.6044C377.906 56.6044 377.708 56.5864 377.528 56.5684V55.1104C379.274 55.1644 379.67 54.3364 379.67 53.1124ZM380.48 42.5284C379.976 42.5284 379.544 42.1144 379.544 41.5924C379.544 41.0884 379.976 40.6564 380.48 40.6564C381.002 40.6564 381.416 41.0884 381.416 41.5924C381.416 42.1144 381.002 42.5284 380.48 42.5284ZM389.96 44.1484H391.598V53.2744H389.96V52.0144C389.42 52.8244 388.52 53.5084 387.152 53.5084C385.1 53.5084 383.642 51.7984 383.642 49.8724V44.1484H385.28V49.3864C385.28 50.6824 385.82 51.9424 387.53 51.9424C389.258 51.9424 389.96 50.4664 389.96 49.3864V44.1484ZM397.417 47.9824C399.649 48.4504 400.387 49.1704 400.387 50.5384C400.387 52.1584 399.235 53.5084 396.805 53.5084C395.005 53.5084 393.493 52.7884 393.133 51.4204L394.735 50.8804C394.879 51.3484 395.365 51.9964 396.841 51.9964C398.029 51.9964 398.695 51.5104 398.695 50.7004C398.695 49.6384 397.165 49.6384 395.905 49.3504C394.195 48.9724 393.457 48.1444 393.457 46.7944C393.457 45.1204 394.843 43.9324 396.823 43.9324C398.299 43.9324 399.613 44.6884 399.937 46.0384L398.407 46.4524C398.245 45.9484 397.705 45.4084 396.679 45.4084C395.779 45.4084 395.113 45.9124 395.113 46.6684C395.113 47.6944 396.373 47.7664 397.417 47.9824ZM406.284 45.7144H404.178V49.7104C404.178 51.0064 404.196 51.8704 405.618 51.8704C405.888 51.8704 406.086 51.8524 406.284 51.8344V53.2744C406.05 53.3284 405.762 53.3644 405.402 53.3644C403.422 53.3644 402.54 52.3024 402.54 50.3044V45.7144H401.118V44.1484H402.54V42.2404H404.178V44.1484H406.284V45.7144ZM409.995 46.1824C409.383 46.1824 408.879 45.6784 408.879 45.0484C408.879 44.4364 409.383 43.9324 409.995 43.9324C410.625 43.9324 411.111 44.4364 411.111 45.0484C411.111 45.6784 410.625 46.1824 409.995 46.1824ZM407.727 54.6604L409.347 51.2404L410.859 52.1044L408.807 55.2724L407.727 54.6604ZM40.3583 68.9324C42.8423 68.9324 45.1643 71.0204 44.7323 74.4224H37.4783C37.7303 75.9164 38.8463 76.9424 40.6283 76.9424C41.6183 76.9424 42.5183 76.5644 43.0223 75.9164L44.3723 76.7804C43.5623 77.8784 42.2303 78.5084 40.6283 78.5084C37.6043 78.5084 35.7323 76.3484 35.7323 73.7204C35.7323 71.0924 37.6763 68.9324 40.3583 68.9324ZM37.4783 73.0184H43.0763C42.8603 71.4704 41.9063 70.4804 40.3583 70.4804C38.7923 70.4804 37.7303 71.5064 37.4783 73.0184ZM46.5907 78.2744V69.1484H48.2467V78.2744H46.5907ZM47.4187 67.5284C46.8967 67.5284 46.4827 67.1144 46.4827 66.5924C46.4827 66.0884 46.8967 65.6564 47.4187 65.6564C47.9407 65.6564 48.3547 66.0884 48.3547 66.5924C48.3547 67.1144 47.9407 67.5284 47.4187 67.5284ZM55.1169 70.7144H53.0109V74.7104C53.0109 76.0064 53.0289 76.8704 54.4509 76.8704C54.7209 76.8704 54.9189 76.8524 55.1169 76.8344V78.2744C54.8829 78.3284 54.5949 78.3644 54.2349 78.3644C52.2549 78.3644 51.3729 77.3024 51.3729 75.3044V70.7144H49.9509V69.1484H51.3729V67.2404H53.0109V69.1484H55.1169V70.7144ZM61.6543 68.9324C63.7063 68.9324 65.1643 70.6424 65.1643 72.5684V78.2744H63.5083V73.0364C63.5083 71.7584 62.9683 70.4804 61.2583 70.4804C59.5303 70.4804 58.8283 71.9744 58.8283 73.0364V78.2744H57.1903V65.6744H58.8283V70.4264C59.3683 69.6164 60.2683 68.9324 61.6543 68.9324ZM71.5946 68.9324C74.0786 68.9324 76.4006 71.0204 75.9686 74.4224H68.7146C68.9666 75.9164 70.0826 76.9424 71.8646 76.9424C72.8546 76.9424 73.7546 76.5644 74.2586 75.9164L75.6086 76.7804C74.7986 77.8784 73.4666 78.5084 71.8646 78.5084C68.8406 78.5084 66.9686 76.3484 66.9686 73.7204C66.9686 71.0924 68.9126 68.9324 71.5946 68.9324ZM68.7146 73.0184H74.3126C74.0966 71.4704 73.1426 70.4804 71.5946 70.4804C70.0286 70.4804 68.9666 71.5064 68.7146 73.0184ZM79.465 70.7324C80.077 69.5084 81.337 68.9324 82.507 68.9324V70.7864C79.807 70.4624 79.465 72.5144 79.465 74.1884V78.2744H77.827V69.1484H79.465V70.7324ZM95.4829 69.1484H97.3009L92.3149 81.7484H90.5509L92.1709 77.8064L88.3549 69.1484H90.1729L92.9809 75.7364L95.4829 69.1484ZM102.729 68.9324C105.483 68.9324 107.517 71.0924 107.517 73.7204C107.517 76.3484 105.483 78.5084 102.729 78.5084C99.9753 78.5084 97.9413 76.3484 97.9413 73.7204C97.9413 71.0924 99.9753 68.9324 102.729 68.9324ZM102.729 76.9424C104.529 76.9424 105.843 75.5744 105.843 73.7204C105.843 71.8484 104.529 70.4804 102.729 70.4804C100.929 70.4804 99.6333 71.8484 99.6333 73.7204C99.6333 75.5744 100.929 76.9424 102.729 76.9424ZM115.627 69.1484H117.265V78.2744H115.627V77.0144C115.087 77.8244 114.187 78.5084 112.819 78.5084C110.767 78.5084 109.309 76.7984 109.309 74.8724V69.1484H110.947V74.3864C110.947 75.6824 111.487 76.9424 113.197 76.9424C114.925 76.9424 115.627 75.4664 115.627 74.3864V69.1484ZM121.248 70.7324C121.86 69.5084 123.12 68.9324 124.29 68.9324V70.7864C121.59 70.4624 121.248 72.5144 121.248 74.1884V78.2744H119.61V69.1484H121.248V70.7324ZM138.058 69.1484H139.714V77.3204C139.714 79.9124 138.328 81.9104 135.034 81.9104C133.234 81.9104 131.632 81.1904 130.894 80.0744L132.298 79.2464C132.64 79.7504 133.522 80.3624 135.034 80.3624C137.212 80.3624 138.058 78.9764 138.058 77.1584V76.4564C137.446 77.3384 136.456 78.0224 134.962 78.0224C132.28 78.0224 130.408 75.7364 130.408 73.4684C130.408 71.2184 132.28 68.9324 134.962 68.9324C136.456 68.9324 137.446 69.6164 138.058 70.4804V69.1484ZM135.124 76.4744C136.87 76.4744 138.058 75.1964 138.058 73.4684C138.058 71.7584 136.87 70.4804 135.124 70.4804C133.414 70.4804 132.1 71.7584 132.1 73.4684C132.1 75.1964 133.414 76.4744 135.124 76.4744ZM146.305 68.9324C149.059 68.9324 151.093 71.0924 151.093 73.7204C151.093 76.3484 149.059 78.5084 146.305 78.5084C143.551 78.5084 141.517 76.3484 141.517 73.7204C141.517 71.0924 143.551 68.9324 146.305 68.9324ZM146.305 76.9424C148.105 76.9424 149.419 75.5744 149.419 73.7204C149.419 71.8484 148.105 70.4804 146.305 70.4804C144.505 70.4804 143.209 71.8484 143.209 73.7204C143.209 75.5744 144.505 76.9424 146.305 76.9424ZM156.72 68.9324C159.348 68.9324 160.212 70.5884 160.212 72.7664V78.2744H158.574V77.0144C158.16 77.7164 157.026 78.5084 155.586 78.5084C153.858 78.5084 152.346 77.4644 152.346 75.8264C152.346 72.9644 155.82 72.8924 157.098 72.8924C157.566 72.8924 158.34 72.8924 158.574 72.8924C158.574 71.5064 158.286 70.4264 156.396 70.4264C155.442 70.4264 154.434 70.9124 154.038 71.2364L152.886 70.3544C153.894 69.4364 155.28 68.9324 156.72 68.9324ZM158.574 75.6644V74.1704C158.52 74.1704 158.052 74.1704 157.944 74.1704C156.252 74.1704 154.038 74.1524 154.038 75.7544C154.038 76.4564 154.488 77.1764 155.946 77.1764C157.512 77.1764 158.466 76.0784 158.574 75.6644ZM162.554 65.6744H164.192V78.2744H162.554V65.6744ZM170 72.9824C172.232 73.4504 172.97 74.1704 172.97 75.5384C172.97 77.1584 171.818 78.5084 169.388 78.5084C167.588 78.5084 166.076 77.7884 165.716 76.4204L167.318 75.8804C167.462 76.3484 167.948 76.9964 169.424 76.9964C170.612 76.9964 171.278 76.5104 171.278 75.7004C171.278 74.6384 169.748 74.6384 168.488 74.3504C166.778 73.9724 166.04 73.1444 166.04 71.7944C166.04 70.1204 167.426 68.9324 169.406 68.9324C170.882 68.9324 172.196 69.6884 172.52 71.0384L170.99 71.4524C170.828 70.9484 170.288 70.4084 169.262 70.4084C168.362 70.4084 167.696 70.9124 167.696 71.6684C167.696 72.6944 168.956 72.7664 170 72.9824ZM184.07 70.7144H181.964V74.7104C181.964 76.0064 181.982 76.8704 183.404 76.8704C183.674 76.8704 183.872 76.8524 184.07 76.8344V78.2744C183.836 78.3284 183.548 78.3644 183.188 78.3644C181.208 78.3644 180.326 77.3024 180.326 75.3044V70.7144H178.904V69.1484H180.326V67.2404H181.964V69.1484H184.07V70.7144ZM190.216 68.9324C192.97 68.9324 195.004 71.0924 195.004 73.7204C195.004 76.3484 192.97 78.5084 190.216 78.5084C187.462 78.5084 185.428 76.3484 185.428 73.7204C185.428 71.0924 187.462 68.9324 190.216 68.9324ZM190.216 76.9424C192.016 76.9424 193.33 75.5744 193.33 73.7204C193.33 71.8484 192.016 70.4804 190.216 70.4804C188.416 70.4804 187.12 71.8484 187.12 73.7204C187.12 75.5744 188.416 76.9424 190.216 76.9424ZM207.965 69.1484H209.783L204.797 81.7484H203.033L204.653 77.8064L200.837 69.1484H202.655L205.463 75.7364L207.965 69.1484ZM215.212 68.9324C217.966 68.9324 220 71.0924 220 73.7204C220 76.3484 217.966 78.5084 215.212 78.5084C212.458 78.5084 210.424 76.3484 210.424 73.7204C210.424 71.0924 212.458 68.9324 215.212 68.9324ZM215.212 76.9424C217.012 76.9424 218.326 75.5744 218.326 73.7204C218.326 71.8484 217.012 70.4804 215.212 70.4804C213.412 70.4804 212.116 71.8484 212.116 73.7204C212.116 75.5744 213.412 76.9424 215.212 76.9424ZM228.11 69.1484H229.748V78.2744H228.11V77.0144C227.57 77.8244 226.67 78.5084 225.302 78.5084C223.25 78.5084 221.792 76.7984 221.792 74.8724V69.1484H223.43V74.3864C223.43 75.6824 223.97 76.9424 225.68 76.9424C227.408 76.9424 228.11 75.4664 228.11 74.3864V69.1484ZM233.731 70.7324C234.343 69.5084 235.603 68.9324 236.773 68.9324V70.7864C234.073 70.4624 233.731 72.5144 233.731 74.1884V78.2744H232.093V69.1484H233.731V70.7324ZM247.516 68.9324C250 68.9324 252.322 71.0204 251.89 74.4224H244.636C244.888 75.9164 246.004 76.9424 247.786 76.9424C248.776 76.9424 249.676 76.5644 250.18 75.9164L251.53 76.7804C250.72 77.8784 249.388 78.5084 247.786 78.5084C244.762 78.5084 242.89 76.3484 242.89 73.7204C242.89 71.0924 244.834 68.9324 247.516 68.9324ZM244.636 73.0184H250.234C250.018 71.4704 249.064 70.4804 247.516 70.4804C245.95 70.4804 244.888 71.5064 244.636 73.0184ZM257.803 66.8264C256.327 66.8264 256.147 67.7804 256.129 69.1484H258.235V70.7144H256.129V78.2744H254.491V70.7144H253.033V69.1484H254.491C254.491 67.2404 255.121 65.4584 257.623 65.4584C257.875 65.4584 258.019 65.4584 258.235 65.4944V66.8444C258.127 66.8444 257.929 66.8264 257.803 66.8264ZM263.815 66.8264C262.339 66.8264 262.159 67.7804 262.141 69.1484H264.247V70.7144H262.141V78.2744H260.503V70.7144H259.045V69.1484H260.503C260.503 67.2404 261.133 65.4584 263.635 65.4584C263.887 65.4584 264.031 65.4584 264.247 65.4944V66.8444C264.139 66.8444 263.941 66.8264 263.815 66.8264ZM270.02 68.9324C272.774 68.9324 274.808 71.0924 274.808 73.7204C274.808 76.3484 272.774 78.5084 270.02 78.5084C267.266 78.5084 265.232 76.3484 265.232 73.7204C265.232 71.0924 267.266 68.9324 270.02 68.9324ZM270.02 76.9424C271.82 76.9424 273.134 75.5744 273.134 73.7204C273.134 71.8484 271.82 70.4804 270.02 70.4804C268.22 70.4804 266.924 71.8484 266.924 73.7204C266.924 75.5744 268.22 76.9424 270.02 76.9424ZM278.238 70.7324C278.85 69.5084 280.11 68.9324 281.28 68.9324V70.7864C278.58 70.4624 278.238 72.5144 278.238 74.1884V78.2744H276.6V69.1484H278.238V70.7324ZM287.447 70.7144H285.341V74.7104C285.341 76.0064 285.359 76.8704 286.781 76.8704C287.051 76.8704 287.249 76.8524 287.447 76.8344V78.2744C287.213 78.3284 286.925 78.3644 286.565 78.3644C284.585 78.3644 283.703 77.3024 283.703 75.3044V70.7144H282.281V69.1484H283.703V67.2404H285.341V69.1484H287.447V70.7144ZM292.994 72.9824C295.226 73.4504 295.964 74.1704 295.964 75.5384C295.964 77.1584 294.812 78.5084 292.382 78.5084C290.582 78.5084 289.07 77.7884 288.71 76.4204L290.312 75.8804C290.456 76.3484 290.942 76.9964 292.418 76.9964C293.606 76.9964 294.272 76.5104 294.272 75.7004C294.272 74.6384 292.742 74.6384 291.482 74.3504C289.772 73.9724 289.034 73.1444 289.034 71.7944C289.034 70.1204 290.42 68.9324 292.4 68.9324C293.876 68.9324 295.19 69.6884 295.514 71.0384L293.984 71.4524C293.822 70.9484 293.282 70.4084 292.256 70.4084C291.356 70.4084 290.69 70.9124 290.69 71.6684C290.69 72.6944 291.95 72.7664 292.994 72.9824ZM306.776 68.9324C309.53 68.9324 311.564 71.0924 311.564 73.7204C311.564 76.3484 309.53 78.5084 306.776 78.5084C304.022 78.5084 301.988 76.3484 301.988 73.7204C301.988 71.0924 304.022 68.9324 306.776 68.9324ZM306.776 76.9424C308.576 76.9424 309.89 75.5744 309.89 73.7204C309.89 71.8484 308.576 70.4804 306.776 70.4804C304.976 70.4804 303.68 71.8484 303.68 73.7204C303.68 75.5744 304.976 76.9424 306.776 76.9424ZM314.994 70.7324C315.606 69.5084 316.866 68.9324 318.036 68.9324V70.7864C315.336 70.4624 314.994 72.5144 314.994 74.1884V78.2744H313.356V69.1484H314.994V70.7324ZM331.012 69.1484H332.83L327.844 81.7484H326.08L327.7 77.8064L323.884 69.1484H325.702L328.51 75.7364L331.012 69.1484ZM338.259 68.9324C341.013 68.9324 343.047 71.0924 343.047 73.7204C343.047 76.3484 341.013 78.5084 338.259 78.5084C335.505 78.5084 333.471 76.3484 333.471 73.7204C333.471 71.0924 335.505 68.9324 338.259 68.9324ZM338.259 76.9424C340.059 76.9424 341.373 75.5744 341.373 73.7204C341.373 71.8484 340.059 70.4804 338.259 70.4804C336.459 70.4804 335.163 71.8484 335.163 73.7204C335.163 75.5744 336.459 76.9424 338.259 76.9424ZM351.157 69.1484H352.795V78.2744H351.157V77.0144C350.617 77.8244 349.717 78.5084 348.349 78.5084C346.297 78.5084 344.839 76.7984 344.839 74.8724V69.1484H346.477V74.3864C346.477 75.6824 347.017 76.9424 348.727 76.9424C350.455 76.9424 351.157 75.4664 351.157 74.3864V69.1484ZM356.777 70.7324C357.389 69.5084 358.649 68.9324 359.819 68.9324V70.7864C357.119 70.4624 356.777 72.5144 356.777 74.1884V78.2744H355.139V69.1484H356.777V70.7324ZM370.563 68.9324C373.047 68.9324 375.369 71.0204 374.937 74.4224H367.683C367.935 75.9164 369.051 76.9424 370.833 76.9424C371.823 76.9424 372.723 76.5644 373.227 75.9164L374.577 76.7804C373.767 77.8784 372.435 78.5084 370.833 78.5084C367.809 78.5084 365.937 76.3484 365.937 73.7204C365.937 71.0924 367.881 68.9324 370.563 68.9324ZM367.683 73.0184H373.281C373.065 71.4704 372.111 70.4804 370.563 70.4804C368.997 70.4804 367.935 71.5064 367.683 73.0184ZM380.85 66.8264C379.374 66.8264 379.194 67.7804 379.176 69.1484H381.282V70.7144H379.176V78.2744H377.538V70.7144H376.08V69.1484H377.538C377.538 67.2404 378.168 65.4584 380.67 65.4584C380.922 65.4584 381.066 65.4584 381.282 65.4944V66.8444C381.174 66.8444 380.976 66.8264 380.85 66.8264ZM386.862 66.8264C385.386 66.8264 385.206 67.7804 385.188 69.1484H387.294V70.7144H385.188V78.2744H383.55V70.7144H382.092V69.1484H383.55C383.55 67.2404 384.18 65.4584 386.682 65.4584C386.934 65.4584 387.078 65.4584 387.294 65.4944V66.8444C387.186 66.8444 386.988 66.8264 386.862 66.8264ZM393.067 68.9324C395.821 68.9324 397.855 71.0924 397.855 73.7204C397.855 76.3484 395.821 78.5084 393.067 78.5084C390.313 78.5084 388.279 76.3484 388.279 73.7204C388.279 71.0924 390.313 68.9324 393.067 68.9324ZM393.067 76.9424C394.867 76.9424 396.181 75.5744 396.181 73.7204C396.181 71.8484 394.867 70.4804 393.067 70.4804C391.267 70.4804 389.971 71.8484 389.971 73.7204C389.971 75.5744 391.267 76.9424 393.067 76.9424ZM401.285 70.7324C401.897 69.5084 403.157 68.9324 404.327 68.9324V70.7864C401.627 70.4624 401.285 72.5144 401.285 74.1884V78.2744H399.647V69.1484H401.285V70.7324ZM410.494 70.7144H408.388V74.7104C408.388 76.0064 408.406 76.8704 409.828 76.8704C410.098 76.8704 410.296 76.8524 410.494 76.8344V78.2744C410.26 78.3284 409.972 78.3644 409.612 78.3644C407.632 78.3644 406.75 77.3024 406.75 75.3044V70.7144H405.328V69.1484H406.75V67.2404H408.388V69.1484H410.494V70.7144ZM416.041 72.9824C418.273 73.4504 419.011 74.1704 419.011 75.5384C419.011 77.1584 417.859 78.5084 415.429 78.5084C413.629 78.5084 412.117 77.7884 411.757 76.4204L413.359 75.8804C413.503 76.3484 413.989 76.9964 415.465 76.9964C416.653 76.9964 417.319 76.5104 417.319 75.7004C417.319 74.6384 415.789 74.6384 414.529 74.3504C412.819 73.9724 412.081 73.1444 412.081 71.7944C412.081 70.1204 413.467 68.9324 415.447 68.9324C416.923 68.9324 418.237 69.6884 418.561 71.0384L417.031 71.4524C416.869 70.9484 416.329 70.4084 415.303 70.4084C414.403 70.4084 413.737 70.9124 413.737 71.6684C413.737 72.6944 414.997 72.7664 416.041 72.9824ZM430.111 70.7144H428.005V74.7104C428.005 76.0064 428.023 76.8704 429.445 76.8704C429.715 76.8704 429.913 76.8524 430.111 76.8344V78.2744C429.877 78.3284 429.589 78.3644 429.229 78.3644C427.249 78.3644 426.367 77.3024 426.367 75.3044V70.7144H424.945V69.1484H426.367V67.2404H428.005V69.1484H430.111V70.7144ZM436.257 68.9324C439.011 68.9324 441.045 71.0924 441.045 73.7204C441.045 76.3484 439.011 78.5084 436.257 78.5084C433.503 78.5084 431.469 76.3484 431.469 73.7204C431.469 71.0924 433.503 68.9324 436.257 68.9324ZM436.257 76.9424C438.057 76.9424 439.371 75.5744 439.371 73.7204C439.371 71.8484 438.057 70.4804 436.257 70.4804C434.457 70.4804 433.161 71.8484 433.161 73.7204C433.161 75.5744 434.457 76.9424 436.257 76.9424ZM454.006 69.1484H455.824L450.838 81.7484H449.074L450.694 77.8064L446.878 69.1484H448.696L451.504 75.7364L454.006 69.1484ZM461.253 68.9324C464.007 68.9324 466.041 71.0924 466.041 73.7204C466.041 76.3484 464.007 78.5084 461.253 78.5084C458.499 78.5084 456.465 76.3484 456.465 73.7204C456.465 71.0924 458.499 68.9324 461.253 68.9324ZM461.253 76.9424C463.053 76.9424 464.367 75.5744 464.367 73.7204C464.367 71.8484 463.053 70.4804 461.253 70.4804C459.453 70.4804 458.157 71.8484 458.157 73.7204C458.157 75.5744 459.453 76.9424 461.253 76.9424ZM474.151 69.1484H475.789V78.2744H474.151V77.0144C473.611 77.8244 472.711 78.5084 471.343 78.5084C469.291 78.5084 467.833 76.7984 467.833 74.8724V69.1484H469.471V74.3864C469.471 75.6824 470.011 76.9424 471.721 76.9424C473.449 76.9424 474.151 75.4664 474.151 74.3864V69.1484ZM479.772 70.7324C480.384 69.5084 481.644 68.9324 482.814 68.9324V70.7864C480.114 70.4624 479.772 72.5144 479.772 74.1884V78.2744H478.134V69.1484H479.772V70.7324ZM496.582 69.1484H498.238V77.3204C498.238 79.9124 496.852 81.9104 493.558 81.9104C491.758 81.9104 490.156 81.1904 489.418 80.0744L490.822 79.2464C491.164 79.7504 492.046 80.3624 493.558 80.3624C495.736 80.3624 496.582 78.9764 496.582 77.1584V76.4564C495.97 77.3384 494.98 78.0224 493.486 78.0224C490.804 78.0224 488.932 75.7364 488.932 73.4684C488.932 71.2184 490.804 68.9324 493.486 68.9324C494.98 68.9324 495.97 69.6164 496.582 70.4804V69.1484ZM493.648 76.4744C495.394 76.4744 496.582 75.1964 496.582 73.4684C496.582 71.7584 495.394 70.4804 493.648 70.4804C491.938 70.4804 490.624 71.7584 490.624 73.4684C490.624 75.1964 491.938 76.4744 493.648 76.4744ZM504.829 68.9324C507.583 68.9324 509.617 71.0924 509.617 73.7204C509.617 76.3484 507.583 78.5084 504.829 78.5084C502.075 78.5084 500.041 76.3484 500.041 73.7204C500.041 71.0924 502.075 68.9324 504.829 68.9324ZM504.829 76.9424C506.629 76.9424 507.943 75.5744 507.943 73.7204C507.943 71.8484 506.629 70.4804 504.829 70.4804C503.029 70.4804 501.733 71.8484 501.733 73.7204C501.733 75.5744 503.029 76.9424 504.829 76.9424ZM515.243 68.9324C517.871 68.9324 518.735 70.5884 518.735 72.7664V78.2744H517.097V77.0144C516.683 77.7164 515.549 78.5084 514.109 78.5084C512.381 78.5084 510.869 77.4644 510.869 75.8264C510.869 72.9644 514.343 72.8924 515.621 72.8924C516.089 72.8924 516.863 72.8924 517.097 72.8924C517.097 71.5064 516.809 70.4264 514.919 70.4264C513.965 70.4264 512.957 70.9124 512.561 71.2364L511.409 70.3544C512.417 69.4364 513.803 68.9324 515.243 68.9324ZM517.097 75.6644V74.1704C517.043 74.1704 516.575 74.1704 516.467 74.1704C514.775 74.1704 512.561 74.1524 512.561 75.7544C512.561 76.4564 513.011 77.1764 514.469 77.1764C516.035 77.1764 516.989 76.0784 517.097 75.6644ZM521.077 65.6744H522.715V78.2744H521.077V65.6744ZM528.524 72.9824C530.756 73.4504 531.494 74.1704 531.494 75.5384C531.494 77.1584 530.342 78.5084 527.912 78.5084C526.112 78.5084 524.6 77.7884 524.24 76.4204L525.842 75.8804C525.986 76.3484 526.472 76.9964 527.948 76.9964C529.136 76.9964 529.802 76.5104 529.802 75.7004C529.802 74.6384 528.272 74.6384 527.012 74.3504C525.302 73.9724 524.564 73.1444 524.564 71.7944C524.564 70.1204 525.95 68.9324 527.93 68.9324C529.406 68.9324 530.72 69.6884 531.044 71.0384L529.514 71.4524C529.352 70.9484 528.812 70.4084 527.786 70.4084C526.886 70.4084 526.22 70.9124 526.22 71.6684C526.22 72.6944 527.48 72.7664 528.524 72.9824ZM534.228 76.2584C534.858 76.2584 535.362 76.7624 535.362 77.3744C535.362 78.0044 534.858 78.5084 534.228 78.5084C533.616 78.5084 533.112 78.0044 533.112 77.3744C533.112 76.7624 533.616 76.2584 534.228 76.2584Z" fill="white"/>
<rect x="0.666894" y="1.21475" width="570.023" height="116.119" rx="13.3331" stroke="url(#paint0_linear_973_4341)" stroke-opacity="0.99" stroke-width="1.33379"/>
</g>
<defs>
<filter id="filter0_b_973_4341" x="-36.0123" y="-35.4644" width="643.381" height="189.477" filterUnits="userSpaceOnUse" color-interpolation-filters="sRGB">
<feFlood flood-opacity="0" result="BackgroundImageFix"/>
<feGaussianBlur in="BackgroundImageFix" stdDeviation="18.0061"/>
<feComposite in2="SourceAlpha" operator="in" result="effect1_backgroundBlur_973_4341"/>
<feBlend mode="normal" in="SourceGraphic" in2="effect1_backgroundBlur_973_4341" result="shape"/>
</filter>
<linearGradient id="paint0_linear_973_4341" x1="401.574" y1="134.684" x2="467.686" y2="-21.9261" gradientUnits="userSpaceOnUse">
<stop stop-color="white"/>
<stop offset="1" stop-color="white" stop-opacity="0"/>
</linearGradient>
</defs>
</svg>
