<svg width="318" height="118" viewBox="0 0 318 118" fill="none" xmlns="http://www.w3.org/2000/svg">
<g filter="url(#filter0_b_973_4343)">
<rect x="0.980225" y="0.135742" width="316.357" height="117.452" rx="14" fill="#313131" fill-opacity="0.54"/>
<path d="M44.2034 58.7923C45.4634 59.2603 46.2374 60.1963 46.2374 61.7083C46.2374 63.8143 44.8154 65.3623 41.9174 65.3623H37.3454V52.7623H41.4314C44.2574 52.7623 45.7154 54.0943 45.7154 56.1103C45.7154 57.3163 45.1754 58.2163 44.2034 58.7563V58.7923ZM41.4314 54.4003H39.1454V58.1983H41.2694C42.6194 58.1983 43.9154 57.8023 43.9154 56.2543C43.9154 54.7963 42.7274 54.4003 41.4314 54.4003ZM41.9174 63.7243C43.4114 63.7243 44.3834 63.0403 44.3834 61.7083C44.3834 60.1603 43.1054 59.7103 41.7554 59.7103H39.1454V63.7243H41.9174ZM49.7567 57.8203C50.3687 56.5963 51.6287 56.0203 52.7987 56.0203V57.8743C50.0987 57.5503 49.7567 59.6023 49.7567 61.2763V65.3623H48.1187V56.2363H49.7567V57.8203ZM58.3395 56.0203C60.8235 56.0203 63.1455 58.1083 62.7135 61.5103H55.4595C55.7115 63.0043 56.8275 64.0303 58.6095 64.0303C59.5995 64.0303 60.4995 63.6523 61.0035 63.0043L62.3535 63.8683C61.5435 64.9663 60.2115 65.5963 58.6095 65.5963C55.5855 65.5963 53.7135 63.4363 53.7135 60.8083C53.7135 58.1803 55.6575 56.0203 58.3395 56.0203ZM55.4595 60.1063H61.0575C60.8415 58.5583 59.8875 57.5683 58.3395 57.5683C56.7735 57.5683 55.7115 58.5943 55.4595 60.1063ZM68.4059 56.0203C71.0339 56.0203 71.8979 57.6763 71.8979 59.8543V65.3623H70.2599V64.1023C69.8459 64.8043 68.7119 65.5963 67.2719 65.5963C65.5439 65.5963 64.0319 64.5523 64.0319 62.9143C64.0319 60.0523 67.5059 59.9803 68.7839 59.9803C69.2519 59.9803 70.0259 59.9803 70.2599 59.9803C70.2599 58.5943 69.9719 57.5143 68.0819 57.5143C67.1279 57.5143 66.1199 58.0003 65.7239 58.3243L64.5719 57.4423C65.5799 56.5243 66.9659 56.0203 68.4059 56.0203ZM70.2599 62.7523V61.2583C70.2059 61.2583 69.7379 61.2583 69.6299 61.2583C67.9379 61.2583 65.7239 61.2403 65.7239 62.8423C65.7239 63.5443 66.1739 64.2643 67.6319 64.2643C69.1979 64.2643 70.1519 63.1663 70.2599 62.7523ZM77.6418 60.5023L81.7458 65.3623H79.6038L75.8778 60.9883V65.3623H74.2398V52.7623H75.8778V60.3043L79.1898 56.2363H81.1878L77.6418 60.5023ZM88.1265 65.3623V56.2363H89.7825V65.3623H88.1265ZM88.9545 54.6163C88.4325 54.6163 88.0185 54.2023 88.0185 53.6803C88.0185 53.1763 88.4325 52.7443 88.9545 52.7443C89.4765 52.7443 89.8905 53.1763 89.8905 53.6803C89.8905 54.2023 89.4765 54.6163 88.9545 54.6163ZM96.6528 57.8023H94.5468V61.7983C94.5468 63.0943 94.5648 63.9583 95.9868 63.9583C96.2568 63.9583 96.4548 63.9403 96.6528 63.9223V65.3623C96.4188 65.4163 96.1308 65.4523 95.7708 65.4523C93.7908 65.4523 92.9088 64.3903 92.9088 62.3923V57.8023H91.4868V56.2363H92.9088V54.3283H94.5468V56.2363H96.6528V57.8023ZM103.578 65.3623V56.2363H105.234V65.3623H103.578ZM104.406 54.6163C103.884 54.6163 103.47 54.2023 103.47 53.6803C103.47 53.1763 103.884 52.7443 104.406 52.7443C104.928 52.7443 105.342 53.1763 105.342 53.6803C105.342 54.2023 104.928 54.6163 104.406 54.6163ZM112.032 56.0203C114.084 56.0203 115.524 57.7303 115.524 59.6563V65.3623H113.886V60.1243C113.886 58.8463 113.346 57.5683 111.636 57.5683C109.908 57.5683 109.206 59.0623 109.206 60.1243V65.3623H107.568V56.2363H109.206V57.5143C109.746 56.7043 110.646 56.0203 112.032 56.0203ZM122.229 57.8023H120.123V61.7983C120.123 63.0943 120.141 63.9583 121.563 63.9583C121.833 63.9583 122.031 63.9403 122.229 63.9223V65.3623C121.995 65.4163 121.707 65.4523 121.347 65.4523C119.367 65.4523 118.485 64.3903 118.485 62.3923V57.8023H117.063V56.2363H118.485V54.3283H120.123V56.2363H122.229V57.8023ZM128.375 56.0203C131.129 56.0203 133.163 58.1803 133.163 60.8083C133.163 63.4363 131.129 65.5963 128.375 65.5963C125.621 65.5963 123.587 63.4363 123.587 60.8083C123.587 58.1803 125.621 56.0203 128.375 56.0203ZM128.375 64.0303C130.175 64.0303 131.489 62.6623 131.489 60.8083C131.489 58.9363 130.175 57.5683 128.375 57.5683C126.575 57.5683 125.279 58.9363 125.279 60.8083C125.279 62.6623 126.575 64.0303 128.375 64.0303ZM149.436 56.0203C151.164 56.0203 152.64 57.4063 152.64 59.3323V65.3623H151.002V59.8183C151.002 58.5223 150.372 57.5683 149.04 57.5683C147.762 57.5683 147.042 58.6483 147.042 59.8183V65.3623H145.404V59.8183C145.404 58.5223 144.774 57.5683 143.46 57.5683C142.164 57.5683 141.444 58.6483 141.444 59.8183V65.3623H139.806V56.2363H141.444V57.3163C141.948 56.5963 142.74 56.0203 143.892 56.0203C144.99 56.0203 145.962 56.5963 146.52 57.4963C147.096 56.6863 148.068 56.0203 149.436 56.0203ZM159.062 56.0203C161.546 56.0203 163.868 58.1083 163.436 61.5103H156.182C156.434 63.0043 157.55 64.0303 159.332 64.0303C160.322 64.0303 161.222 63.6523 161.726 63.0043L163.076 63.8683C162.266 64.9663 160.934 65.5963 159.332 65.5963C156.308 65.5963 154.436 63.4363 154.436 60.8083C154.436 58.1803 156.38 56.0203 159.062 56.0203ZM156.182 60.1063H161.78C161.564 58.5583 160.61 57.5683 159.062 57.5683C157.496 57.5683 156.434 58.5943 156.182 60.1063ZM169.129 56.0203C171.757 56.0203 172.621 57.6763 172.621 59.8543V65.3623H170.983V64.1023C170.569 64.8043 169.435 65.5963 167.995 65.5963C166.267 65.5963 164.755 64.5523 164.755 62.9143C164.755 60.0523 168.229 59.9803 169.507 59.9803C169.975 59.9803 170.749 59.9803 170.983 59.9803C170.983 58.5943 170.695 57.5143 168.805 57.5143C167.851 57.5143 166.843 58.0003 166.447 58.3243L165.295 57.4423C166.303 56.5243 167.689 56.0203 169.129 56.0203ZM170.983 62.7523V61.2583C170.929 61.2583 170.461 61.2583 170.353 61.2583C168.661 61.2583 166.447 61.2403 166.447 62.8423C166.447 63.5443 166.897 64.2643 168.355 64.2643C169.921 64.2643 170.875 63.1663 170.983 62.7523ZM178.436 60.0703C180.668 60.5383 181.406 61.2583 181.406 62.6263C181.406 64.2463 180.254 65.5963 177.824 65.5963C176.024 65.5963 174.512 64.8763 174.152 63.5083L175.754 62.9683C175.898 63.4363 176.384 64.0843 177.86 64.0843C179.048 64.0843 179.714 63.5983 179.714 62.7883C179.714 61.7263 178.184 61.7263 176.924 61.4383C175.214 61.0603 174.476 60.2323 174.476 58.8823C174.476 57.2083 175.862 56.0203 177.842 56.0203C179.318 56.0203 180.632 56.7763 180.956 58.1263L179.426 58.5403C179.264 58.0363 178.724 57.4963 177.698 57.4963C176.798 57.4963 176.132 58.0003 176.132 58.7563C176.132 59.7823 177.392 59.8543 178.436 60.0703ZM189.437 56.2363H191.075V65.3623H189.437V64.1023C188.897 64.9123 187.997 65.5963 186.629 65.5963C184.577 65.5963 183.119 63.8863 183.119 61.9603V56.2363H184.757V61.4743C184.757 62.7703 185.297 64.0303 187.007 64.0303C188.735 64.0303 189.437 62.5543 189.437 61.4743V56.2363ZM195.058 57.8203C195.67 56.5963 196.93 56.0203 198.1 56.0203V57.8743C195.4 57.5503 195.058 59.6023 195.058 61.2763V65.3623H193.42V56.2363H195.058V57.8203ZM203.388 56.0203C206.016 56.0203 206.88 57.6763 206.88 59.8543V65.3623H205.242V64.1023C204.828 64.8043 203.694 65.5963 202.254 65.5963C200.526 65.5963 199.014 64.5523 199.014 62.9143C199.014 60.0523 202.488 59.9803 203.766 59.9803C204.234 59.9803 205.008 59.9803 205.242 59.9803C205.242 58.5943 204.954 57.5143 203.064 57.5143C202.11 57.5143 201.102 58.0003 200.706 58.3243L199.554 57.4423C200.562 56.5243 201.948 56.0203 203.388 56.0203ZM205.242 62.7523V61.2583C205.188 61.2583 204.72 61.2583 204.612 61.2583C202.92 61.2583 200.706 61.2403 200.706 62.8423C200.706 63.5443 201.156 64.2643 202.614 64.2643C204.18 64.2643 205.134 63.1663 205.242 62.7523ZM214.172 56.0203C217.016 56.0203 218.726 58.4143 218.726 60.8083C218.726 63.2023 217.016 65.5963 214.172 65.5963C212.588 65.5963 211.544 64.9483 210.86 64.0843V65.3623H209.222V52.7623H210.86V57.5143C211.544 56.6683 212.588 56.0203 214.172 56.0203ZM214.01 64.0303C215.9 64.0303 217.034 62.6443 217.034 60.8083C217.034 58.9723 215.9 57.5683 214.01 57.5683C212.012 57.5683 210.86 59.0083 210.86 60.8083C210.86 62.6083 212.012 64.0303 214.01 64.0303ZM220.525 52.7623H222.163V65.3623H220.525V52.7623ZM228.584 56.0203C231.068 56.0203 233.39 58.1083 232.958 61.5103H225.704C225.956 63.0043 227.072 64.0303 228.854 64.0303C229.844 64.0303 230.744 63.6523 231.248 63.0043L232.598 63.8683C231.788 64.9663 230.456 65.5963 228.854 65.5963C225.83 65.5963 223.958 63.4363 223.958 60.8083C223.958 58.1803 225.902 56.0203 228.584 56.0203ZM225.704 60.1063H231.302C231.086 58.5583 230.132 57.5683 228.584 57.5683C227.018 57.5683 225.956 58.5943 225.704 60.1063ZM246.778 56.2363H248.434V64.4083C248.434 67.0003 247.048 68.9983 243.754 68.9983C241.954 68.9983 240.352 68.2783 239.614 67.1623L241.018 66.3343C241.36 66.8383 242.242 67.4503 243.754 67.4503C245.932 67.4503 246.778 66.0643 246.778 64.2463V63.5443C246.166 64.4263 245.176 65.1103 243.682 65.1103C241 65.1103 239.128 62.8243 239.128 60.5563C239.128 58.3063 241 56.0203 243.682 56.0203C245.176 56.0203 246.166 56.7043 246.778 57.5683V56.2363ZM243.844 63.5623C245.59 63.5623 246.778 62.2843 246.778 60.5563C246.778 58.8463 245.59 57.5683 243.844 57.5683C242.134 57.5683 240.82 58.8463 240.82 60.5563C240.82 62.2843 242.134 63.5623 243.844 63.5623ZM255.025 56.0203C257.779 56.0203 259.813 58.1803 259.813 60.8083C259.813 63.4363 257.779 65.5963 255.025 65.5963C252.271 65.5963 250.237 63.4363 250.237 60.8083C250.237 58.1803 252.271 56.0203 255.025 56.0203ZM255.025 64.0303C256.825 64.0303 258.139 62.6623 258.139 60.8083C258.139 58.9363 256.825 57.5683 255.025 57.5683C253.225 57.5683 251.929 58.9363 251.929 60.8083C251.929 62.6623 253.225 64.0303 255.025 64.0303ZM265.439 56.0203C268.067 56.0203 268.931 57.6763 268.931 59.8543V65.3623H267.293V64.1023C266.879 64.8043 265.745 65.5963 264.305 65.5963C262.577 65.5963 261.065 64.5523 261.065 62.9143C261.065 60.0523 264.539 59.9803 265.817 59.9803C266.285 59.9803 267.059 59.9803 267.293 59.9803C267.293 58.5943 267.005 57.5143 265.115 57.5143C264.161 57.5143 263.153 58.0003 262.757 58.3243L261.605 57.4423C262.613 56.5243 263.999 56.0203 265.439 56.0203ZM267.293 62.7523V61.2583C267.239 61.2583 266.771 61.2583 266.663 61.2583C264.971 61.2583 262.757 61.2403 262.757 62.8423C262.757 63.5443 263.207 64.2643 264.665 64.2643C266.231 64.2643 267.185 63.1663 267.293 62.7523ZM271.273 52.7623H272.911V65.3623H271.273V52.7623ZM278.72 60.0703C280.952 60.5383 281.69 61.2583 281.69 62.6263C281.69 64.2463 280.538 65.5963 278.108 65.5963C276.308 65.5963 274.796 64.8763 274.436 63.5083L276.038 62.9683C276.182 63.4363 276.668 64.0843 278.144 64.0843C279.332 64.0843 279.998 63.5983 279.998 62.7883C279.998 61.7263 278.468 61.7263 277.208 61.4383C275.498 61.0603 274.76 60.2323 274.76 58.8823C274.76 57.2083 276.146 56.0203 278.126 56.0203C279.602 56.0203 280.916 56.7763 281.24 58.1263L279.71 58.5403C279.548 58.0363 279.008 57.4963 277.982 57.4963C277.082 57.4963 276.416 58.0003 276.416 58.7563C276.416 59.7823 277.676 59.8543 278.72 60.0703Z" fill="white"/>
<rect x="1.64712" y="0.802636" width="315.023" height="116.119" rx="13.3331" stroke="url(#paint0_linear_973_4343)" stroke-opacity="0.99" stroke-width="1.33379"/>
</g>
<defs>
<filter id="filter0_b_973_4343" x="-35.032" y="-35.8765" width="388.381" height="189.477" filterUnits="userSpaceOnUse" color-interpolation-filters="sRGB">
<feFlood flood-opacity="0" result="BackgroundImageFix"/>
<feGaussianBlur in="BackgroundImageFix" stdDeviation="18.0061"/>
<feComposite in2="SourceAlpha" operator="in" result="effect1_backgroundBlur_973_4343"/>
<feBlend mode="normal" in="SourceGraphic" in2="effect1_backgroundBlur_973_4343" result="shape"/>
</filter>
<linearGradient id="paint0_linear_973_4343" x1="159.159" y1="0.135748" x2="25.5903" y2="113.749" gradientUnits="userSpaceOnUse">
<stop stop-color="white"/>
<stop offset="1" stop-color="white" stop-opacity="0"/>
</linearGradient>
</defs>
</svg>
