<svg width="97" height="131" viewBox="0 0 97 131" fill="none" xmlns="http://www.w3.org/2000/svg">
<g id="golden path 2" clip-path="url(#clip0_1024_3464)">
<path id="Vector" d="M48.6881 0C32.2703 23.1774 16.3954 45.5705 0.010849 68.6927C5.16217 68.6927 8.93982 69.8748 11.9752 65.4448C22.7875 49.6801 33.9874 34.1806 45.0656 18.5928C46.1734 17.0351 47.3809 15.5658 48.6438 13.9418C58.1931 25.398 58.1931 25.398 65.4161 23.5862L48.6881 0ZM96.9998 62.9701C91.1505 61.6113 87.3729 62.3957 84.0162 67.5327C76.0954 79.6848 67.399 91.3288 58.9797 103.172C55.7227 107.756 52.4103 112.308 48.677 117.533C46.2398 114.142 44.7443 110.64 42.0966 108.773C39.4489 106.906 35.8707 106.928 32.6802 106.11L32.1374 107.668L48.7546 131L96.9998 62.9701ZM29.3235 65.511C39.9807 67.367 46.6719 73.1337 48.7324 84.1811C50.6711 72.7139 58.0602 67.61 68.2077 65.3122C57.0521 63.8097 50.7929 57.579 48.5995 46.6752C46.6719 58.0209 40.0804 63.5446 29.3235 65.4889V65.511Z" fill="white"/>
<path id="Vector_2" d="M48.6883 0L65.372 23.5862C58.149 25.398 58.149 25.398 48.5997 13.9418C47.3368 15.5658 46.1293 17.0351 45.0215 18.5928C33.9434 34.1806 22.7434 49.6801 11.9311 65.4448C8.89573 69.8637 5.11809 68.6485 -0.0332336 68.6927C16.3956 45.5705 32.2706 23.1774 48.6883 0Z" fill="white"/>
<path id="Vector_3" d="M97 62.9482L48.7548 131L32.1376 107.668L32.7358 106.044C35.9263 106.862 39.6375 106.928 42.1522 108.707C44.667 110.485 46.2955 114.076 48.7326 117.467C52.466 112.286 55.7783 107.734 59.0353 103.106C67.4436 91.2627 76.151 79.6188 84.0718 67.4666C87.3731 62.3738 91.1508 61.5894 97 62.9482Z" fill="white"/>
<path id="Vector_4" d="M29.3238 65.4886C40.0806 63.5884 46.6721 57.9763 48.5997 46.708C50.8153 57.6339 57.0523 63.8425 68.208 65.345C58.0604 67.687 50.6713 72.7467 48.7327 84.2139C46.6721 73.1113 39.9809 67.3445 29.3238 65.4886Z" fill="white"/>
</g>
<defs>
<clipPath id="clip0_1024_3464">
<rect width="97" height="131" fill="white"/>
</clipPath>
</defs>
</svg>
