<svg width="20" height="33" viewBox="0 0 20 33" fill="none" xmlns="http://www.w3.org/2000/svg">
<g clip-path="url(#clip0_108_681)">
<path d="M4.87716 22.8978V0.730604C4.87716 0.267122 4.68901 0.0153887 4.34513 0.00993599C4.00125 0.00448326 3.80501 0.259852 3.79871 0.715155V22.8978H4.87716ZM15.1234 9.83757V10.072C15.1234 17.3957 15.1234 24.7199 15.1234 32.0447C15.1234 32.4755 15.3232 32.7245 15.6581 32.7272C15.993 32.7299 16.1982 32.48 16.1982 32.0511C16.1982 32.0056 16.1982 31.9602 16.1982 31.9148V9.83757H15.1234ZM5.98712 7.38384C6.29859 7.26752 6.57766 7.15119 6.86393 7.05849C6.99556 7.00877 7.1413 7.01346 7.26953 7.07154C7.39776 7.12963 7.49813 7.23642 7.54885 7.36874C7.59957 7.50106 7.59656 7.64824 7.54046 7.77833C7.48437 7.90842 7.37971 8.01093 7.24921 8.06361C7.07727 8.1454 6.89543 8.20539 6.71719 8.27355C5.907 8.58344 5.907 8.58344 5.96011 9.46678C5.96558 9.49803 5.97465 9.52853 5.98712 9.55766C6.07714 9.52858 6.17617 9.50495 6.26799 9.46678C6.97105 9.20051 7.66962 8.92151 8.37808 8.67069C8.60044 8.59253 8.65805 8.48166 8.65715 8.25355C8.64904 5.97159 8.65715 3.68871 8.65174 1.40583C8.65174 1.31496 8.64274 1.23135 8.63554 1.10866C7.77314 1.43492 6.93414 1.74481 6.09965 2.0747C6.06394 2.09434 6.03309 2.12187 6.0094 2.15523C5.98571 2.18859 5.96978 2.22692 5.96281 2.26736C5.94571 2.5091 5.95651 2.75266 5.95651 3.03347C6.25088 2.9226 6.49033 2.82991 6.73069 2.74175C7.12228 2.59816 7.43016 2.70358 7.54088 3.01984C7.65161 3.3361 7.49407 3.60783 7.09618 3.76596C6.7829 3.89046 6.46603 4.00133 6.15456 4.12947C6.07534 4.1631 5.96731 4.2458 5.96191 4.31123C5.94031 4.5975 5.95291 4.88558 5.95291 5.21002C6.30129 5.07915 6.59026 4.95647 6.88823 4.86377C7.01895 4.82142 7.16097 4.83313 7.28315 4.89634C7.40533 4.95954 7.49769 5.06908 7.53999 5.20093C7.63001 5.48538 7.53998 5.72258 7.27712 5.86162C7.09411 5.94734 6.90658 6.02288 6.71539 6.08791C5.9052 6.3969 5.9052 6.39599 5.95471 7.27933C5.96309 7.31518 5.97392 7.35041 5.98712 7.38475V7.38384ZM17.2803 25.3415C17.2803 25.6259 17.2938 25.865 17.2803 26.1012C17.2659 26.293 17.3334 26.3857 17.5134 26.4438C17.8015 26.5347 18.0824 26.652 18.365 26.761C18.8151 26.9346 18.9952 27.2054 18.8745 27.5335C18.7539 27.8616 18.4424 27.957 17.9968 27.7898L17.2839 27.5235C17.2839 27.8116 17.2983 28.0506 17.2839 28.2869C17.2686 28.4823 17.346 28.5677 17.5215 28.6268C17.8402 28.7331 18.1517 28.8567 18.4667 28.983C18.8376 29.1311 18.9907 29.4129 18.8773 29.7182C18.7638 30.0236 18.4632 30.1363 18.0923 30.0036C17.8339 29.9127 17.5773 29.8145 17.2884 29.7073C17.2884 29.9854 17.2767 30.2126 17.2956 30.4343C17.3006 30.48 17.3159 30.524 17.3402 30.5629C17.3645 30.6018 17.3973 30.6346 17.436 30.6588C18.2696 30.986 19.1086 31.295 19.9845 31.6312V31.225C19.9845 29.1917 19.9845 27.1588 19.9845 25.1261C19.9845 24.8098 20.07 24.4236 19.9224 24.1991C19.7865 23.991 19.3931 23.9529 19.1122 23.8447C18.5181 23.6166 17.923 23.3903 17.2911 23.1522C17.2911 23.4394 17.3037 23.6775 17.2911 23.9129C17.2785 24.101 17.3379 24.1982 17.5206 24.2582C17.8609 24.3709 18.1967 24.5009 18.528 24.639C18.8592 24.7771 18.988 25.0598 18.8881 25.3451C18.7809 25.6459 18.4848 25.7695 18.14 25.6505C17.8609 25.5623 17.6007 25.4596 17.2803 25.3424V25.3415ZM0.0241154 1.09866V1.50853C0.0241154 3.53088 0.0241154 5.55263 0.0241154 7.57378C0.0241154 7.90094 -0.0659038 8.30081 0.0880324 8.53437C0.230266 8.74975 0.638961 8.78883 0.93153 8.89788C1.51577 9.12054 2.1018 9.34046 2.71935 9.57402C2.71935 9.30138 2.70405 9.07237 2.72385 8.84699C2.74366 8.62161 2.66894 8.51983 2.46009 8.45439C2.15041 8.35806 1.84885 8.23174 1.54548 8.11269C1.17639 7.9691 1.01795 7.68738 1.12778 7.38112C1.2376 7.07485 1.54187 6.95853 1.91006 7.08939C2.17022 7.18027 2.42948 7.27933 2.72025 7.38475C2.72025 7.10212 2.70675 6.8631 2.72475 6.62682C2.73915 6.43325 2.66534 6.34237 2.48889 6.2833C2.15942 6.17334 1.83354 6.04792 1.51037 5.91978C1.16829 5.78346 1.02155 5.49356 1.13138 5.19275C1.24121 4.89194 1.53557 4.77653 1.88305 4.89649C2.15312 4.98737 2.42318 5.09279 2.72025 5.20184C2.72025 4.92466 2.70405 4.69655 2.72475 4.47481C2.74545 4.25307 2.65543 4.1531 2.45469 4.08949C2.14501 3.99134 1.84345 3.86592 1.54007 3.74687C1.17369 3.60328 1.01885 3.31611 1.13498 3.00984C1.25111 2.70358 1.55087 2.59544 1.92086 2.72903C2.17832 2.81991 2.43398 2.91806 2.72205 3.02529C2.72205 2.74175 2.73105 2.51455 2.71665 2.28918C2.71458 2.2478 2.7034 2.20742 2.68394 2.17095C2.66447 2.13448 2.63721 2.10284 2.60412 2.07834C1.75793 1.75208 0.909023 1.43401 0.0241154 1.09866ZM14.0134 29.7173C13.7577 29.8136 13.5282 29.8991 13.2986 29.9899C12.8845 30.1435 12.5686 30.0399 12.4542 29.7173C12.3399 29.3947 12.5083 29.1311 12.9088 28.9776C13.223 28.8558 13.539 28.7485 13.8496 28.614C13.8975 28.5877 13.9392 28.5511 13.9717 28.5069C14.0041 28.4626 14.0267 28.4117 14.0377 28.3578C14.0638 28.1015 14.0467 27.8407 14.0467 27.5399C13.7514 27.648 13.4922 27.7452 13.2302 27.8379C12.8647 27.967 12.5596 27.8479 12.4533 27.5371C12.3507 27.2399 12.5019 26.9573 12.8476 26.821C13.1933 26.6847 13.5237 26.5756 13.8532 26.4339C13.8976 26.4116 13.9368 26.3798 13.9679 26.3407C13.999 26.3017 14.0213 26.2562 14.0332 26.2076C14.0566 25.9395 14.0413 25.6687 14.0413 25.3569C13.7433 25.4669 13.4841 25.5651 13.2221 25.6577C12.862 25.7859 12.5524 25.6632 12.447 25.3524C12.3417 25.0416 12.4992 24.7753 12.8467 24.6381C13.1942 24.5009 13.5228 24.3927 13.8523 24.25C13.8971 24.2278 13.9365 24.1958 13.9676 24.1564C13.9987 24.1169 14.0208 24.071 14.0323 24.0219C14.0557 23.7547 14.0413 23.4848 14.0413 23.1695C13.2248 23.4803 12.4551 23.7847 11.6756 24.061C11.4262 24.1519 11.3353 24.2564 11.3371 24.5372C11.3515 26.7865 11.3452 29.0348 11.3452 31.2841C11.3452 31.3922 11.3542 31.5003 11.3605 31.643C12.0419 31.3858 12.691 31.1405 13.341 30.8942C14.0899 30.6097 14.0899 30.6097 14.0323 29.7964C14.0284 29.7695 14.022 29.743 14.0134 29.7173ZM18.3848 4.35667C18.3191 4.23035 18.2768 4.14038 18.2273 4.05495C17.5227 2.83051 16.8173 1.60668 16.1109 0.383448C15.8108 -0.133349 15.5108 -0.128504 15.2107 0.397987C14.5103 1.6097 13.8109 2.82385 13.1123 4.04041C13.0583 4.13129 13.0142 4.23307 12.9512 4.35667H18.3848ZM7.07097 28.3896H1.60399C2.41868 29.7973 3.20276 31.1696 4.00755 32.5282C4.17409 32.8099 4.52697 32.7836 4.70072 32.4864C5.4893 31.1414 6.26348 29.7882 7.07097 28.3896ZM15.6455 6.55684C16.7582 6.55684 17.8699 6.55684 18.9826 6.55684C19.1878 6.55684 19.376 6.53322 19.4273 6.2933C19.4903 6.00339 19.0294 5.46539 18.7296 5.46539C16.7491 5.46539 14.775 5.47629 12.7981 5.45448C12.411 5.45448 12.1869 5.55445 12.0176 5.91433C11.798 6.38145 11.8826 6.55503 12.4101 6.55503L15.6455 6.55684ZM4.33703 26.1867C3.22707 26.1867 2.11711 26.1867 1.00625 26.1867C0.799201 26.1867 0.614656 26.2167 0.571446 26.4593C0.518333 26.7528 0.978344 27.2772 1.27721 27.2772C3.25048 27.2772 5.22374 27.2609 7.1961 27.2899C7.6102 27.2954 7.82625 27.16 7.99189 26.8037C8.19534 26.3748 8.10532 26.1876 7.6318 26.1867C6.53355 26.1867 5.43529 26.1867 4.33703 26.1867ZM16.7248 7.66193H14.6066V8.70885H16.7248V7.66193ZM3.27478 25.0707H5.38938V24.0219H3.27478V25.0707Z" fill="white"/>
<path d="M4.87734 22.8978H3.79709V0.715192C3.79709 0.260798 3.99784 0.00452024 4.34352 0.00997297C4.6892 0.0154257 4.87554 0.267159 4.87554 0.730641V22.8978H4.87734Z" fill="white"/>
<path d="M15.1236 9.83765H16.2038V31.9121C16.2038 31.9575 16.2038 32.003 16.2038 32.0484C16.1984 32.4774 15.9986 32.7264 15.6637 32.7246C15.3288 32.7227 15.129 32.4728 15.129 32.0421C15.129 24.7178 15.129 17.3936 15.129 10.0694L15.1236 9.83765Z" fill="white"/>
<path d="M5.98731 7.38483C5.97584 7.35185 5.96651 7.31816 5.95941 7.28395C5.9126 6.40061 5.91349 6.40152 6.72008 6.09253C6.91128 6.0275 7.0988 5.95196 7.28181 5.86624C7.55188 5.7272 7.6329 5.49 7.54468 5.20555C7.50239 5.0737 7.41002 4.96416 7.28784 4.90096C7.16566 4.83775 7.02365 4.82604 6.89293 4.86839C6.59496 4.95927 6.30599 5.08378 5.95761 5.21464C5.95761 4.8902 5.945 4.60212 5.96661 4.31585C5.97201 4.2486 6.08003 4.1659 6.15925 4.13409C6.46893 4.00323 6.7894 3.89235 7.10088 3.77058C7.49877 3.61245 7.66081 3.33799 7.54558 3.02446C7.43035 2.71093 7.12248 2.60278 6.73539 2.74637C6.49503 2.83725 6.25557 2.92813 5.9612 3.03809C5.9612 2.75728 5.9504 2.51372 5.96751 2.27199C5.97448 2.23154 5.9904 2.19321 6.01409 2.15985C6.03779 2.12649 6.06864 2.09897 6.10434 2.07932C6.93884 1.75398 7.77783 1.44317 8.64024 1.11328C8.64744 1.23597 8.65644 1.32321 8.65644 1.41045C8.65644 3.69333 8.65644 5.97621 8.66184 8.25817C8.66184 8.48628 8.60513 8.59715 8.38278 8.67531C7.66981 8.91977 6.97124 9.20059 6.27178 9.46504C6.18176 9.49958 6.08454 9.52321 5.99091 9.55592C5.97844 9.52679 5.96938 9.49629 5.96391 9.46504C5.9117 8.5817 5.91259 8.5817 6.72098 8.2718C6.90103 8.20364 7.08107 8.14366 7.25301 8.06187C7.38351 8.00919 7.48816 7.90668 7.54426 7.77659C7.60035 7.6465 7.60336 7.49932 7.55264 7.367C7.50192 7.23468 7.40155 7.12789 7.27332 7.0698C7.1451 7.01172 6.99935 7.00703 6.86772 7.05675C6.57785 7.15218 6.29879 7.2685 5.98731 7.38483Z" fill="white"/>
<path d="M17.2805 25.3425C17.601 25.4606 17.8611 25.5624 18.1249 25.6542C18.4697 25.7733 18.7658 25.6497 18.873 25.3489C18.9738 25.0635 18.8379 24.7781 18.5129 24.6427C18.1879 24.5073 17.8458 24.3746 17.5055 24.2619C17.3255 24.202 17.2634 24.1047 17.276 23.9166C17.2922 23.6812 17.276 23.4431 17.276 23.1559C17.9061 23.3959 18.503 23.6203 19.0971 23.8484C19.3798 23.9566 19.7732 23.9948 19.9073 24.2029C20.0549 24.4273 19.9685 24.8136 19.9694 25.1298C19.9694 27.1625 19.9694 29.1954 19.9694 31.2287V31.6395C19.0935 31.3078 18.259 30.9942 17.4209 30.6671C17.3822 30.6428 17.3494 30.6101 17.3251 30.5712C17.3008 30.5323 17.2855 30.4883 17.2805 30.4426C17.2616 30.2181 17.2733 29.9882 17.2733 29.7156C17.5623 29.8228 17.8188 29.9201 18.0772 30.0118C18.4481 30.1445 18.7478 30.0337 18.8622 29.7265C18.9765 29.4193 18.8226 29.1394 18.4517 28.9913C18.1393 28.865 17.8215 28.7414 17.5064 28.635C17.3264 28.576 17.2535 28.4905 17.2688 28.2951C17.2877 28.0589 17.2688 27.8198 17.2688 27.5318L17.9818 27.798C18.4274 27.9653 18.7388 27.8744 18.8595 27.5418C18.9801 27.2091 18.8018 26.9429 18.3499 26.7693C18.0673 26.6602 17.7864 26.5439 17.4983 26.4521C17.3183 26.394 17.2508 26.3013 17.2652 26.1095C17.294 25.866 17.2805 25.6269 17.2805 25.3425Z" fill="white"/>
<path d="M0.0243026 1.09875C0.909211 1.4341 1.75811 1.75217 2.60251 2.08297C2.63559 2.10748 2.66286 2.13911 2.68232 2.17558C2.70179 2.21205 2.71296 2.25244 2.71504 2.29381C2.72944 2.51919 2.72044 2.74821 2.72044 3.02993C2.43237 2.92269 2.18031 2.82545 1.91925 2.73366C1.54927 2.60007 1.24949 2.70913 1.13336 3.01448C1.01724 3.31983 1.17207 3.60792 1.53846 3.75151C1.84183 3.87056 2.1434 3.99597 2.45308 4.09412C2.65562 4.15773 2.74565 4.25679 2.72314 4.47945C2.70064 4.7021 2.71864 4.93384 2.71864 5.20648C2.41887 5.09742 2.1515 4.99564 1.88144 4.90112C1.53396 4.78116 1.23959 4.90112 1.12977 5.19739C1.01994 5.49365 1.16668 5.78447 1.50876 5.92442C1.83193 6.05347 2.15781 6.17888 2.48729 6.28793C2.66733 6.34701 2.73754 6.43788 2.72314 6.63146C2.70514 6.86774 2.71864 7.10675 2.71864 7.38939C2.42877 7.28397 2.16951 7.18673 1.90845 7.09403C1.54026 6.96316 1.23779 7.07676 1.12617 7.38575C1.01454 7.69474 1.17477 7.97374 1.54386 8.11733C1.84723 8.23638 2.14881 8.3627 2.45848 8.45903C2.66733 8.52446 2.74114 8.63442 2.72224 8.85162C2.70334 9.06883 2.71774 9.30602 2.71774 9.57866C2.09839 9.3451 1.51415 9.12426 0.929915 8.90252C0.637346 8.79074 0.228651 8.75166 0.0864174 8.539C-0.0657183 8.30635 0.0234061 7.90285 0.0225059 7.57841C0.0225059 5.55666 0.0225059 3.53491 0.0225059 1.51316L0.0243026 1.09875Z" fill="white"/>
<path d="M14.0136 29.7174C14.0229 29.7394 14.0304 29.7622 14.0361 29.7855C14.0937 30.5989 14.0937 30.5989 13.3447 30.8833C12.6966 31.1296 12.0475 31.375 11.3643 31.6322C11.358 31.4895 11.349 31.3813 11.349 31.2732C11.349 29.0239 11.3553 26.7756 11.3409 24.5264C11.3409 24.2455 11.4309 24.1383 11.6793 24.0502C12.4589 23.7775 13.2286 23.4694 14.0451 23.1586C14.0451 23.474 14.0595 23.7439 14.0361 24.0111C14.0246 24.0602 14.0025 24.1061 13.9714 24.1455C13.9403 24.1849 13.9009 24.2169 13.856 24.2392C13.5266 24.3819 13.1854 24.4955 12.8505 24.6272C12.5156 24.759 12.3509 25.0435 12.4508 25.3415C12.5507 25.6396 12.8613 25.775 13.2259 25.6469C13.4879 25.556 13.7471 25.456 14.0451 25.3461C14.0451 25.6578 14.0604 25.9286 14.037 26.1967C14.025 26.2454 14.0027 26.2908 13.9717 26.3299C13.9406 26.369 13.9014 26.4007 13.8569 26.423C13.5275 26.5648 13.1863 26.6775 12.8514 26.8101C12.5165 26.9428 12.3545 27.2291 12.4571 27.5263C12.5633 27.8371 12.8685 27.9561 13.234 27.8271C13.496 27.7362 13.7552 27.6371 14.0505 27.529C14.0505 27.8307 14.0676 28.0915 14.0415 28.3469C14.0305 28.4009 14.0079 28.4517 13.9754 28.496C13.9429 28.5403 13.9013 28.5768 13.8533 28.6032C13.5464 28.7422 13.2232 28.8495 12.9126 28.9667C12.512 29.1203 12.3464 29.3911 12.458 29.7064C12.5696 30.0218 12.8883 30.1354 13.3024 29.9791C13.5266 29.9018 13.7561 29.8137 14.0136 29.7174Z" fill="white"/>
<path d="M18.3832 4.3567H12.9468C13.0099 4.23311 13.054 4.13405 13.108 4.04044C13.8065 2.82873 14.506 1.61459 15.2064 0.398021C15.51 -0.127864 15.8101 -0.13271 16.1066 0.383482C16.8141 1.60671 17.5196 2.83054 18.223 4.05498C18.2752 4.14041 18.3175 4.23038 18.3832 4.3567Z" fill="white"/>
<path d="M7.07117 28.3896C6.26098 29.7883 5.4895 31.1415 4.70091 32.4865C4.52717 32.7836 4.17429 32.81 4.00775 32.5283C3.20296 31.1696 2.41888 29.8019 1.60419 28.3896H7.07117Z" fill="white"/>
<path d="M15.6457 6.55693H12.4103C11.8828 6.55693 11.7982 6.38336 12.0178 5.91624C12.1871 5.55272 12.4112 5.45276 12.7983 5.45639C14.7788 5.4782 16.752 5.46639 18.7298 5.4673C19.0296 5.4673 19.4905 6.0053 19.4275 6.2952C19.3762 6.53512 19.188 6.55966 18.9828 6.55875C17.8701 6.55057 16.7583 6.55693 15.6457 6.55693Z" fill="white"/>
<path d="M4.33722 26.1867C5.43668 26.1867 6.53554 26.1867 7.63379 26.1867C8.10641 26.1867 8.19643 26.3748 7.99388 26.8038C7.82554 27.16 7.61219 27.2954 7.19809 27.29C5.22573 27.2609 3.25246 27.2773 1.2792 27.2773C0.980328 27.2773 0.520323 26.7502 0.573436 26.4593C0.616646 26.2176 0.801191 26.1867 1.00824 26.1867C2.1173 26.1867 3.22726 26.1867 4.33722 26.1867Z" fill="white"/>
<path d="M16.725 7.66199V8.70891H14.6068V7.66199H16.725Z" fill="white"/>
<path d="M3.27496 25.0707V24.022H5.38956V25.0707H3.27496Z" fill="white"/>
</g>
<defs>
<clipPath id="clip0_108_681">
<rect width="20" height="32.7273" fill="white"/>
</clipPath>
</defs>
</svg>
