<svg width="31" height="31" viewBox="0 0 31 31" fill="none" xmlns="http://www.w3.org/2000/svg">
<path d="M14.7613 11.1031C14.6469 10.413 14.2621 9.87702 13.667 9.46314C12.5659 8.69995 11.4716 7.92898 10.3637 7.17435C10.1773 7.05662 10.0257 6.89763 9.92274 6.71187C9.81981 6.52611 9.76884 6.3195 9.77447 6.11086C9.75764 4.99292 9.72228 3.87498 9.69029 2.75703C9.68769 2.50465 9.65951 2.25304 9.60611 2.00551C9.53652 2.88254 9.46693 3.75906 9.39734 4.63505C9.35273 5.19753 9.31316 5.76 9.26686 6.32247C9.238 6.56545 9.28046 6.81112 9.38977 7.0337C9.49908 7.25628 9.67122 7.44756 9.88811 7.58745C10.0733 7.71582 10.2551 7.84885 10.4302 7.98811C10.6777 8.18493 10.7122 8.4261 10.5329 8.6276C10.3646 8.81431 10.0944 8.8431 9.85949 8.67661C9.5705 8.4826 9.29419 8.27296 9.032 8.04879C8.49156 7.568 8.28784 6.96508 8.32067 6.27735C8.35855 5.46593 8.03867 4.78676 7.34586 4.28808C7.07842 4.10209 6.77984 3.95781 6.46196 3.86097C5.36761 3.51867 4.26736 3.20514 3.16881 2.88073C3.08462 2.85739 3.00634 2.83872 2.92973 2.80838C2.67719 2.70646 2.56523 2.49252 2.64436 2.2638C2.66145 2.20998 2.69015 2.15992 2.72873 2.11663C2.76732 2.07334 2.81498 2.03772 2.86887 2.01191C2.92275 1.9861 2.98172 1.97065 3.04224 1.96647C3.10276 1.9623 3.16357 1.96949 3.221 1.98762C3.63349 2.09576 4.04092 2.22101 4.45172 2.34315C4.55106 2.37194 4.65207 2.39528 4.82717 2.4404C4.68574 2.08487 4.56368 1.77446 4.44078 1.46405C4.28841 1.08128 4.32377 0.965367 4.66891 0.71875H4.98374C5.1016 0.874344 5.25396 1.01127 5.33141 1.18086C5.52587 1.60875 5.70012 2.04597 5.85754 2.48708C5.88302 2.5884 5.93938 2.68086 6.01994 2.75352C6.1005 2.82618 6.20189 2.87599 6.31212 2.89707C7.11688 3.08611 7.84757 3.41053 8.40569 4.00645C8.41916 4.02123 8.45957 4.01345 8.48987 4.01657C8.54964 3.27283 8.63298 2.53842 8.65823 1.80324C8.67675 1.29367 8.88636 0.935803 9.38387 0.721861H9.88896C10.4235 0.943583 10.6003 1.32946 10.6036 1.86315C10.6138 3.20437 10.6878 4.54559 10.703 5.88759C10.7072 6.21511 10.7973 6.44617 11.1087 6.60254C11.23 6.67439 11.3469 6.7523 11.4589 6.83593C11.4589 6.3567 11.4084 5.91248 11.4724 5.48226C11.5414 5.01548 11.7081 4.55803 11.8504 4.10137C11.8633 4.04324 11.8895 3.98832 11.9271 3.94026C11.9648 3.89221 12.0131 3.85213 12.0689 3.82269C12.1246 3.79325 12.1865 3.77512 12.2505 3.76951C12.3144 3.76391 12.3789 3.77095 12.4396 3.79018C12.6981 3.86797 12.8235 4.07803 12.7519 4.34409C12.6434 4.74942 12.4994 5.14696 12.4152 5.55617C12.1913 6.63599 12.5575 7.5291 13.4683 8.22928C13.7099 8.41599 13.9667 8.58559 14.2209 8.75752C14.7438 9.10574 15.1603 9.57317 15.4297 10.1143C15.447 10.1473 15.4664 10.1792 15.4878 10.21L16.9837 8.15615C16.7 7.92276 16.3818 7.69403 16.115 7.4233C15.7564 7.05999 15.3767 6.69512 15.1141 6.27346C14.4776 5.24654 13.8985 4.18772 13.2991 3.14135C13.1038 2.80138 13.1097 2.46607 13.3606 2.15488C13.6114 1.8437 13.9549 1.71922 14.3329 1.83669C14.5831 1.92515 14.8028 2.07463 14.9684 2.26924C15.29 2.63645 15.5577 3.04333 15.8271 3.40508C16.2884 2.71969 16.7455 2.04208 17.2017 1.36369C17.3415 1.15675 17.5199 1.02294 17.8019 1.11085C18.1151 1.20887 18.2136 1.50839 18.0174 1.80091C17.7245 2.2389 17.4172 2.66834 17.1176 3.10245C16.4955 4.00256 16.6857 4.9548 17.6226 5.58651C18.1387 5.93582 18.6623 6.27735 19.2044 6.63599C19.2633 6.57687 19.3223 6.52708 19.3728 6.46873C19.68 6.09919 19.9797 5.72343 20.292 5.35779C20.4907 5.1244 20.7651 5.08783 20.9815 5.24265C21.1978 5.39746 21.234 5.64175 21.053 5.86502C20.6097 6.41946 20.1582 6.9687 19.6985 7.51277C19.6646 7.56016 19.6202 7.60046 19.5683 7.63104C19.5164 7.66162 19.4582 7.68181 19.3974 7.69031C19.3365 7.69882 19.2745 7.69544 19.2151 7.6804C19.1558 7.66537 19.1005 7.639 19.0529 7.60301C18.2902 7.10355 17.5275 6.60332 16.7884 6.07508C16.5535 5.90781 16.3734 5.66431 16.1991 5.43481C15.572 4.6086 14.9575 3.77306 14.3371 2.94141C14.3004 2.90693 14.2616 2.87446 14.2209 2.84417C14.2975 2.99354 14.3345 3.07756 14.3792 3.15535C14.8716 4.01112 15.3422 4.88245 15.8675 5.72266C16.1123 6.11466 16.4155 6.47292 16.7682 6.78692C17.7211 7.62168 18.7153 8.41677 19.6893 9.23208C20.372 9.80389 20.5193 10.441 20.1624 11.233C19.973 11.6539 19.7751 12.0717 19.5883 12.4941C19.4111 12.9039 19.0736 13.2372 18.6429 13.4277C17.5284 13.9463 16.4158 14.4694 15.3051 14.9968C14.8921 15.1999 14.4127 15.2553 13.9583 15.1524C13.2848 15.0085 12.6114 14.8646 11.9312 14.7393C11.6884 14.6971 11.457 14.6109 11.2504 14.4857C11.0438 14.3604 10.866 14.1986 10.7274 14.0096C10.0009 13.0683 9.26181 12.1355 8.5387 11.1933C8.25279 10.8045 7.83622 10.5136 7.35343 10.3656C6.31885 10.0474 5.28848 9.71909 4.25558 9.39545C4.19562 9.37379 4.12952 9.37132 4.06786 9.38845C4.15204 9.43513 4.24127 9.48414 4.32966 9.52771C5.22703 9.97115 6.1345 10.3998 7.01839 10.865C7.28705 11.0091 7.51721 11.2072 7.69184 11.4446C8.41074 12.4373 9.10187 13.4471 9.79636 14.4569C10.0983 14.9157 10.5366 15.2846 11.0591 15.5196C11.3899 15.6675 11.7182 15.8207 12.0364 15.9864C12.6097 16.2922 12.9153 16.7605 12.9178 17.3735C12.9237 19.1535 12.9641 20.9343 12.8951 22.712C12.8639 23.5164 12.6206 24.3169 12.4413 25.1128C12.3681 25.4411 12.0903 25.5796 11.8184 25.4909C11.5465 25.4022 11.4345 25.168 11.5498 24.8405C11.8513 23.959 11.996 23.0381 11.9783 22.1137C11.9682 20.5868 11.9682 19.0599 11.9783 17.533C11.9783 17.1098 11.81 16.8329 11.3983 16.6555C11.1037 16.5294 10.82 16.3816 10.5296 16.2463C9.96616 15.9833 9.48397 15.5929 9.12796 15.1112C8.18598 13.8548 6.84835 13.4619 5.29942 13.9777C4.6386 14.1979 3.98536 14.439 3.31528 14.6328C3.21888 14.6529 3.11902 14.6546 3.02188 14.6378C2.92473 14.6209 2.83235 14.5858 2.75043 14.5347C2.65194 14.4678 2.62332 14.229 2.66625 14.0944C2.70076 13.9824 2.86912 13.8789 3.00297 13.826C3.33969 13.6914 3.68736 13.5879 4.09732 13.451C3.98115 13.3732 3.90623 13.3164 3.8271 13.2674C3.00129 12.7501 2.17211 12.2374 1.34798 11.7177C1.0323 11.5185 0.975058 11.2151 1.20655 11.0066C1.43805 10.7981 1.65692 10.851 1.8901 11.0004C2.91542 11.643 3.9458 12.2794 4.96775 12.9274C5.04143 12.9779 5.12667 13.012 5.21688 13.0271C5.30709 13.0422 5.39985 13.0379 5.48799 13.0146C5.84439 12.9366 6.20861 12.893 6.57476 12.8847C6.92495 12.8847 7.27598 12.9523 7.66237 12.9943C7.37279 12.5789 7.10173 12.1759 6.81215 11.7854C6.75238 11.7076 6.632 11.657 6.53183 11.6072C5.46554 11.0813 4.40065 10.5564 3.33717 10.0326C3.22439 9.98106 3.11579 9.92204 3.01223 9.85601C2.83393 9.73286 2.70725 9.55647 2.6537 9.3568C2.60014 9.15713 2.62302 8.94648 2.71844 8.76063C2.8136 8.57882 2.97728 8.43535 3.17877 8.35715C3.38025 8.27894 3.6057 8.27137 3.81279 8.33586C4.24043 8.45489 4.66049 8.59414 5.10581 8.73107C4.94249 8.35686 4.80528 8.01456 4.64113 7.6847C4.59988 7.6069 4.47782 7.54077 4.37849 7.5011C3.36579 7.10511 2.35562 6.72702 1.36145 6.32014C1.27177 6.27944 1.19192 6.22243 1.12668 6.15251C1.06144 6.08259 1.01216 6.00121 0.981791 5.91326C0.901819 5.58962 1.2941 5.36868 1.66618 5.50638C2.50799 5.82613 3.3498 6.15676 4.1916 6.48273C4.25726 6.50763 4.32461 6.53019 4.4391 6.5722C4.41973 6.29913 4.40458 6.06185 4.38606 5.82457C4.37596 5.6892 4.35323 5.55384 4.34986 5.41769C4.34145 5.11817 4.51065 4.9299 4.78928 4.91668C5.06792 4.90345 5.2607 5.07227 5.29437 5.3679C5.35582 5.9576 5.37013 6.55508 5.48462 7.13623C5.70938 8.27206 6.42997 9.08582 7.58914 9.50281C8.36226 9.76547 9.02499 10.2485 9.48152 10.8822C9.60765 11.0405 9.78429 11.1583 9.98661 11.219C10.8537 11.4789 11.7317 11.7091 12.6063 11.9495C12.6905 11.9736 12.7848 11.99 12.8875 12.0133C12.959 11.3629 12.8243 10.8153 12.2275 10.4263C12.0137 10.287 11.8066 10.1306 11.6113 9.97271C11.3714 9.78288 11.3394 9.52771 11.5179 9.33244C11.6963 9.13717 11.9489 9.12083 12.1913 9.29121C12.4918 9.50204 12.7932 9.71598 13.0744 9.94937C13.6249 10.406 13.8455 10.9996 13.8471 11.671C13.8471 12.5159 13.8471 13.3608 13.8471 14.1885C14.3388 14.4219 14.7487 14.3293 15.1334 14.0882C15.1622 14.0597 15.1838 14.0257 15.1966 13.9885C15.2094 13.9514 15.2131 13.9121 15.2075 13.8735M16.1495 13.6222C16.9021 13.2643 17.6395 12.922 18.3676 12.5602C18.4943 12.4915 18.5948 12.3882 18.6555 12.2646C18.9013 11.7613 19.1312 11.2532 19.3559 10.7398C19.4161 10.6186 19.4332 10.483 19.4047 10.3523C19.3763 10.2216 19.3038 10.1026 19.1977 10.0124C18.7246 9.5915 18.2287 9.19163 17.7472 8.78786C16.3684 10.1641 15.6747 11.7123 16.1461 13.6191L16.1495 13.6222ZM12.9186 14.0438C12.9186 13.6914 12.9237 13.3826 12.9136 13.0737C12.9096 13.0431 12.8979 13.0138 12.8793 12.9883C12.8607 12.9627 12.8358 12.9416 12.8067 12.9267C12.0911 12.7221 11.3756 12.5268 10.5708 12.3043C10.9581 12.7936 11.2838 13.2192 11.6281 13.6315C11.7161 13.7287 11.8333 13.7996 11.9649 13.8353C12.2586 13.9155 12.5676 13.9676 12.9153 14.0407L12.9186 14.0438Z" fill="white"/>
<path d="M25.1401 0.718734C25.561 0.960683 25.4389 1.41424 25.6148 1.776L26.1898 1.55194C26.6637 1.36678 26.9255 1.40568 27.0585 1.68031C27.1915 1.95493 27.0467 2.16731 26.572 2.35325C25.8186 2.6481 25.0668 2.94606 24.31 3.23236C23.48 3.54354 23.0566 4.10446 23.0574 4.94389C23.055 5.49163 22.8727 6.02578 22.5347 6.47572C22.2367 6.887 21.9359 7.29673 21.6322 7.70491C21.4639 7.9243 21.4058 8.14913 21.5885 8.37863C21.7711 8.60813 22.0094 8.63303 22.2931 8.55445C22.5768 8.47588 22.8411 8.42298 23.1155 8.35841C23.4693 8.28106 23.8027 8.13898 24.0961 7.94056C24.3894 7.74213 24.6368 7.49138 24.8235 7.20312C25.2658 6.54184 25.7097 5.88212 26.1553 5.22396C26.3666 4.91277 26.6267 4.8272 26.8818 4.9789C27.1368 5.1306 27.1629 5.37489 26.9525 5.69386C26.8237 5.8899 26.6915 6.08284 26.5231 6.33568C26.9937 6.31468 27.3978 6.29678 27.8019 6.28044C27.9382 6.27422 28.0746 6.26333 28.211 6.26955C28.3332 6.26703 28.4516 6.30915 28.5405 6.38677C28.6294 6.46439 28.6816 6.57126 28.6858 6.68421C28.6909 6.74265 28.6828 6.80145 28.6619 6.85681C28.641 6.91218 28.6078 6.96289 28.5645 7.00568C28.5211 7.04848 28.4685 7.08241 28.4101 7.10529C28.3517 7.12818 28.2887 7.1395 28.2253 7.13855C27.6066 7.17044 26.9878 7.2039 26.3683 7.20857C26.0416 7.20857 25.8093 7.29259 25.6738 7.58432C25.5911 7.73045 25.4963 7.87039 25.3901 8.00287C26.1528 8.13513 26.6814 8.55367 27.1166 9.10059C27.1844 9.17146 27.2777 9.21709 27.3793 9.22895C28.3372 9.33554 29.2969 9.432 30.2566 9.53081C30.3298 9.53781 30.4039 9.54014 30.4754 9.55337C30.7684 9.6086 30.9418 9.8031 30.9106 10.038C30.8795 10.273 30.6741 10.4387 30.3719 10.4154C29.8491 10.3733 29.328 10.3134 28.807 10.2598C28.5881 10.2372 28.3701 10.2162 28.078 10.1874C28.3448 10.4986 28.583 10.7577 28.8036 11.0307C29.2321 11.5613 28.9787 12.2662 28.3069 12.4225C27.9618 12.5003 27.6697 12.3968 27.4062 12.1891C26.721 11.6446 26.0282 11.1078 25.3463 10.5601C25.2848 10.5026 25.207 10.4622 25.1219 10.4435C25.0368 10.4248 24.9477 10.4285 24.8648 10.4543C24.2057 10.6145 23.5431 10.7654 22.8773 10.8977C22.4168 10.9895 22.1685 11.2385 22.0902 11.671C23.2426 11.6446 24.321 11.997 25.4288 12.1759C25.5263 12.1972 25.6182 12.2362 25.6992 12.2905C25.7803 12.3449 25.8489 12.4135 25.9011 12.4925C26.0618 12.7695 25.779 13.0784 25.4145 13.0457C25.1459 13.0216 24.8816 12.9609 24.5727 12.9095C24.8387 13.5763 25.0929 14.2087 25.3446 14.8428C25.3933 14.9393 25.4254 15.0421 25.4397 15.1478C25.4493 15.2514 25.4159 15.3545 25.3461 15.4362C25.2764 15.5178 25.1756 15.5719 25.0643 15.5873C24.7991 15.6379 24.6148 15.5157 24.5205 15.2901C24.3243 14.8194 24.1375 14.3449 23.9464 13.8719C23.8218 13.5607 23.6812 13.2581 23.5785 12.943C23.5589 12.859 23.5098 12.7835 23.4388 12.728C23.3679 12.6726 23.279 12.6404 23.1862 12.6365C23.0094 12.6155 22.836 12.5703 22.6592 12.5532C22.1323 12.5011 21.6878 12.7189 21.4992 13.1756C21.1735 13.9722 20.6052 14.5651 19.8543 15.0381C19.2289 15.4309 18.6312 15.8604 18.0116 16.261C17.7077 16.4579 17.5579 16.7068 17.5781 17.0491C17.5874 17.195 17.5874 17.3412 17.5781 17.4871C17.5814 17.602 17.5353 17.7135 17.4497 17.7969C17.3641 17.8804 17.2462 17.929 17.1218 17.9321C16.9975 17.9352 16.8769 17.8925 16.7866 17.8134C16.6963 17.7344 16.6437 17.6254 16.6403 17.5104C16.5561 16.6601 16.7615 15.9436 17.6059 15.4473C18.2793 15.0513 18.9023 14.5868 19.5513 14.1582C20.0459 13.8396 20.4171 13.3829 20.6103 12.8551C20.814 12.3043 21.0312 11.7581 21.2383 11.2073C21.4706 10.585 21.926 10.2045 22.6197 10.0567C23.3344 9.90112 24.0508 9.74553 24.7604 9.57904C24.9531 9.52871 25.1566 9.52525 25.3511 9.56901C25.5456 9.61276 25.7246 9.70224 25.8707 9.82877C26.4996 10.3267 27.1335 10.8215 27.796 11.2906C27.7455 11.2252 27.6983 11.1568 27.6436 11.0937C27.148 10.5274 26.6514 9.96154 26.1536 9.39622C25.7327 8.91699 25.1973 8.75984 24.5542 8.91543C23.8437 9.08658 23.1349 9.26163 22.421 9.42111C22.1196 9.49707 21.8 9.48339 21.5074 9.38201C21.2149 9.28063 20.9643 9.0967 20.7913 8.85631C20.4402 8.37863 20.4445 7.78582 20.814 7.26769C21.1086 6.85459 21.4117 6.44615 21.7156 6.03772C21.9884 5.67704 22.1297 5.24536 22.1188 4.80541C22.1087 4.02744 22.1188 3.24947 22.1188 2.4715L21.9984 2.46606C21.9356 2.85608 21.8722 3.24506 21.8082 3.63301C21.756 3.9512 21.5607 4.12391 21.2812 4.09979C21.0017 4.07568 20.8233 3.84462 20.8696 3.51943C20.9302 3.09543 20.9925 2.67144 21.0657 2.24978C21.1575 1.72387 21.554 1.40024 22.0641 1.41968C22.5742 1.43913 22.937 1.79 22.98 2.32524C22.9951 2.51429 22.98 2.70489 22.98 2.88149L24.6905 2.10352C24.6451 1.88102 24.6139 1.64063 24.5457 1.40879C24.4573 1.10616 24.5255 0.874328 24.8269 0.714844L25.1401 0.718734Z" fill="white"/>
<path d="M6.42577 30.5928C5.69676 30.2591 5.5444 29.8569 5.88786 29.1754C6.05201 28.8502 6.21869 28.5258 6.38031 28.199C6.49419 27.9523 6.67095 27.7348 6.89552 27.5649C7.12009 27.395 7.38579 27.2779 7.66996 27.2235C8.11949 27.1254 8.57659 27.0507 9.01686 26.9169C9.45122 26.7802 9.8734 26.6124 10.2796 26.4151C10.6298 26.2471 10.8857 26.2471 11.049 26.4929C11.1997 26.7178 11.1104 26.9597 10.8099 27.1558C10.1811 27.5759 9.44786 27.7408 8.71128 27.9034C7.22381 28.2309 7.53275 28.038 6.87782 29.2952C6.82984 29.387 6.79364 29.4842 6.71451 29.6593C7.10343 29.3629 7.42332 29.1295 7.72973 28.8813C7.98675 28.6787 8.31053 28.5627 8.64814 28.5522C9.62043 28.4853 10.5969 28.4332 11.5625 28.3134C11.9539 28.2644 12.3252 28.0629 12.6989 27.9158C13.0727 27.7688 13.4254 27.6047 13.7882 27.4491L13.8724 27.5191V27.2079C13.8724 25.5062 13.8724 23.8048 13.8724 22.1036C13.8643 22.0067 13.8694 21.9092 13.8876 21.8134C13.9507 21.5917 14.1098 21.4626 14.3674 21.4743C14.625 21.4859 14.7698 21.6228 14.8102 21.8523C14.8193 21.9395 14.8213 22.0271 14.8161 22.1145C14.8161 23.9326 14.8203 25.7508 14.8161 27.5689C14.8058 27.789 14.8797 28.0055 15.0248 28.1804C15.5567 28.8381 16.2794 29.3431 17.1092 29.6367C17.0965 29.3885 17.0393 29.1271 17.0797 28.8797C17.1204 28.6219 17.2609 28.3863 17.4751 28.2168C17.6893 28.0473 17.9628 27.9553 18.2447 27.9579C19.1581 27.9477 20.0715 27.9579 20.9848 27.9579C21.335 27.9579 21.6044 28.1072 21.8342 28.3406C22.229 28.742 22.6289 29.1388 23.0851 29.5955C23.0718 29.5208 23.0532 29.447 23.0296 29.3745C22.8124 28.9327 22.5961 28.4908 22.373 28.052C22.2716 27.837 22.1102 27.6508 21.9053 27.5125C21.7005 27.3741 21.4595 27.2886 21.2071 27.2647C20.6565 27.1947 20.1051 27.1246 19.5571 27.0391C18.2666 26.8368 17.3886 26.1592 17.0368 24.9946C16.8345 24.3312 16.7122 23.6492 16.6723 22.961C16.6116 21.836 16.647 20.7048 16.6495 19.5783C16.6495 19.2835 16.844 19.0983 17.1201 19.0983C17.3962 19.0983 17.5789 19.2827 17.5915 19.5768C17.5915 19.6445 17.5915 19.7129 17.5915 19.7806C17.5915 20.6947 17.5511 21.6104 17.6041 22.5222C17.6415 23.248 17.7435 23.9698 17.9089 24.6803C18.1143 25.5283 18.7414 26.0285 19.6767 26.1724C20.2971 26.2681 20.9225 26.3366 21.5404 26.4424C21.8796 26.4939 22.2005 26.6197 22.4764 26.8091C22.7523 26.9986 22.9751 27.2463 23.1264 27.5315C23.4631 28.1352 23.7687 28.7537 24.0608 29.3769C24.2898 29.8631 24.0717 30.2622 23.4404 30.5944H22.9353C22.6996 30.4092 22.4487 30.2381 22.2315 30.0358C21.8704 29.6982 21.5362 29.3356 21.1793 28.9949C21.0986 28.9106 20.9883 28.8555 20.8678 28.8393C20.0193 28.8269 19.1699 28.8276 18.3214 28.8346C18.025 28.8346 17.9257 29.0003 18.0242 29.2672C18.084 29.4003 18.1239 29.5403 18.1429 29.6834C18.1707 30.1502 17.8499 30.3976 17.4534 30.5928H16.9484C16.9155 30.5726 16.8835 30.5493 16.8482 30.5314C15.8885 30.0545 14.9053 29.6095 14.2756 28.7257C14.0138 28.3593 13.7436 28.3188 13.3496 28.5701C12.7599 28.9459 12.076 29.1759 11.363 29.2384C10.5085 29.3162 9.6499 29.3528 8.79546 29.4306C8.59426 29.4542 8.40267 29.524 8.23818 29.6336C7.77014 29.9393 7.3223 30.2715 6.86688 30.5928H6.42577Z" fill="white"/>
<path d="M14.7454 18.448C14.7454 18.1765 14.7395 17.9034 14.7454 17.6334C14.753 17.3378 14.9357 17.1542 15.2109 17.1511C15.4862 17.148 15.6823 17.3285 15.6857 17.6179C15.6924 18.1796 15.6933 18.7421 15.6857 19.3045C15.6815 19.5791 15.4913 19.7542 15.2244 19.7573C14.9575 19.7604 14.7589 19.5869 14.7479 19.3162C14.737 19.0299 14.7463 18.7389 14.7454 18.448Z" fill="black"/>
</svg>
