<svg width="30" height="30" viewBox="0 0 30 30" fill="none" xmlns="http://www.w3.org/2000/svg">
<g id="Component 15">
<path id="Vector" d="M13.8163 10.4296C13.7016 9.7368 13.3162 9.19862 12.7199 8.78307C11.6167 8.0168 10.5203 7.24272 9.41035 6.48505C9.22353 6.36685 9.07163 6.20721 8.96851 6.02071C8.86539 5.8342 8.81431 5.62675 8.81996 5.41727C8.80309 4.29482 8.76767 3.17237 8.73562 2.04992C8.73301 1.79652 8.70477 1.54389 8.65128 1.29537C8.58155 2.17594 8.51183 3.05599 8.44211 3.93551C8.39741 4.50025 8.35777 5.06499 8.31138 5.62974C8.28246 5.87369 8.325 6.12035 8.43452 6.34383C8.54404 6.56731 8.71651 6.75936 8.93382 6.89982C9.11937 7.0287 9.30155 7.16227 9.47698 7.30209C9.72494 7.49971 9.75952 7.74185 9.57988 7.94416C9.41119 8.13162 9.14046 8.16052 8.90514 7.99337C8.6156 7.79858 8.33876 7.58809 8.07607 7.36301C7.5346 6.88029 7.33049 6.27493 7.36338 5.58443C7.40133 4.76974 7.08084 4.08783 6.38671 3.58714C6.11876 3.4004 5.81961 3.25554 5.50113 3.15831C4.40469 2.81462 3.30234 2.49984 2.20169 2.17412C2.11734 2.15068 2.03891 2.13194 1.96216 2.10147C1.70913 1.99915 1.59696 1.78434 1.67624 1.5547C1.69336 1.50066 1.72211 1.4504 1.76077 1.40693C1.79943 1.36347 1.84719 1.3277 1.90117 1.30179C1.95516 1.27588 2.01425 1.26036 2.07488 1.25617C2.13551 1.25198 2.19644 1.2592 2.25398 1.2774C2.66725 1.38598 3.07547 1.51174 3.48705 1.63437C3.58658 1.66327 3.68778 1.68671 3.86321 1.73201C3.72152 1.37504 3.59923 1.06338 3.47609 0.751719C3.32343 0.367414 3.35885 0.251029 3.70465 0.00341797H4.02009C4.13816 0.159639 4.29082 0.297115 4.36842 0.467396C4.56325 0.897005 4.73783 1.33599 4.89555 1.77888C4.92108 1.88061 4.97755 1.97344 5.05826 2.04639C5.13897 2.11934 5.24056 2.16936 5.351 2.19052C6.1573 2.38033 6.88938 2.70605 7.44857 3.30438C7.46206 3.31922 7.50254 3.31141 7.53291 3.31453C7.59279 2.56779 7.67629 1.83043 7.70159 1.09228C7.72015 0.580657 7.93016 0.221346 8.42861 0.00654187H8.93466C9.47023 0.229158 9.64735 0.616588 9.65072 1.15243C9.66084 2.49906 9.73506 3.84569 9.75024 5.1931C9.75446 5.52194 9.8447 5.75393 10.1568 5.91093C10.2782 5.98307 10.3954 6.0613 10.5076 6.14527C10.5076 5.6641 10.457 5.21809 10.5211 4.78614C10.5903 4.31747 10.7573 3.85818 10.8998 3.39967C10.9128 3.34131 10.939 3.28617 10.9767 3.23792C11.0145 3.18968 11.0629 3.14943 11.1188 3.11987C11.1746 3.09031 11.2366 3.07211 11.3007 3.06648C11.3647 3.06085 11.4293 3.06793 11.4902 3.08723C11.7491 3.16534 11.8748 3.37624 11.8031 3.64338C11.6943 4.05034 11.5501 4.44948 11.4657 4.86034C11.2414 5.94452 11.6083 6.84123 12.5209 7.54423C12.7629 7.7317 13.0202 7.90198 13.2749 8.0746C13.7988 8.42422 14.2161 8.89354 14.486 9.43685C14.5033 9.46995 14.5227 9.50203 14.5442 9.53293L16.043 7.47081C15.7587 7.23647 15.4399 7.00683 15.1726 6.735C14.8133 6.37022 14.4329 6.00389 14.1697 5.58053C13.5321 4.54946 12.9518 3.48638 12.3513 2.43579C12.1557 2.09444 12.1616 1.75779 12.4129 1.44534C12.6642 1.1329 13.0084 1.00792 13.387 1.12587C13.6378 1.21468 13.8578 1.36476 14.0238 1.56016C14.346 1.92885 14.6142 2.33737 14.8841 2.70058C15.3463 2.01243 15.8043 1.33208 16.2614 0.650956C16.4014 0.443181 16.5802 0.30883 16.8628 0.397096C17.1765 0.495515 17.2752 0.796242 17.0787 1.08994C16.7852 1.5297 16.4773 1.96087 16.1771 2.39673C15.5538 3.30047 15.7444 4.25655 16.6831 4.89081C17.2001 5.24153 17.7247 5.58443 18.2679 5.94452C18.3269 5.88516 18.386 5.83517 18.4366 5.77658C18.7444 5.40556 19.0447 5.02828 19.3576 4.66116C19.5566 4.42683 19.8316 4.39012 20.0483 4.54556C20.2651 4.701 20.3014 4.94627 20.12 5.17044C19.6758 5.72711 19.2235 6.27857 18.763 6.82483C18.7289 6.87242 18.6845 6.91287 18.6325 6.94358C18.5805 6.97428 18.5222 6.99456 18.4612 7.00309C18.4003 7.01163 18.3381 7.00824 18.2786 6.99314C18.2192 6.97805 18.1638 6.95157 18.1161 6.91544C17.3519 6.41397 16.5878 5.91172 15.8473 5.38134C15.612 5.21341 15.4315 4.96892 15.2569 4.73849C14.6286 3.90896 14.0129 3.07005 13.3913 2.23504C13.3546 2.20042 13.3157 2.16782 13.2749 2.1374C13.3516 2.28738 13.3887 2.37174 13.4334 2.44985C13.9268 3.30907 14.3983 4.18391 14.9246 5.0275C15.1699 5.42109 15.4736 5.78079 15.827 6.09606C16.7818 6.93419 17.7779 7.73248 18.7537 8.55108C19.4377 9.12519 19.5853 9.76492 19.2277 10.5601C19.0379 10.9827 18.8397 11.4021 18.6525 11.8263C18.475 12.2377 18.1369 12.5723 17.7053 12.7636C16.5886 13.2843 15.4739 13.8095 14.3612 14.3391C13.9474 14.543 13.467 14.5986 13.0117 14.4953C12.337 14.3508 11.6623 14.2063 10.9808 14.0805C10.7375 14.0382 10.5057 13.9516 10.2987 13.8259C10.0917 13.7001 9.91359 13.5377 9.7747 13.3479C9.04684 12.4027 8.30632 11.4662 7.58183 10.5203C7.29537 10.1299 6.87801 9.83778 6.3943 9.68915C5.35774 9.36968 4.32541 9.04005 3.29054 8.71511C3.23046 8.69335 3.16424 8.69088 3.10246 8.70808C3.1868 8.75495 3.2762 8.80416 3.36476 8.8479C4.26384 9.29313 5.17304 9.72352 6.05862 10.1906C6.32779 10.3353 6.55839 10.5342 6.73335 10.7725C7.45363 11.7692 8.14607 12.7831 8.84189 13.797C9.14443 14.2576 9.58357 14.628 10.107 14.864C10.4385 15.0124 10.7674 15.1663 11.0862 15.3327C11.6606 15.6396 11.9667 16.1099 11.9693 16.7254C11.9752 18.5125 12.0157 20.3005 11.9465 22.0853C11.9153 22.893 11.6715 23.6968 11.4919 24.4958C11.4185 24.8255 11.1402 24.9645 10.8678 24.8754C10.5953 24.7864 10.4832 24.5513 10.5987 24.2224C10.9008 23.3374 11.0457 22.4127 11.028 21.4847C11.0179 19.9516 11.0179 18.4185 11.028 16.8855C11.028 16.4606 10.8593 16.1825 10.4469 16.0044C10.1517 15.8779 9.86748 15.7295 9.5765 15.5935C9.01201 15.3296 8.5289 14.9375 8.17222 14.4539C7.22844 13.1924 5.88825 12.798 4.33637 13.3158C3.67429 13.5369 3.0198 13.779 2.34844 13.9735C2.25185 13.9938 2.15181 13.9955 2.05448 13.9786C1.95715 13.9616 1.86459 13.9264 1.78251 13.8751C1.68383 13.8079 1.65516 13.5681 1.69817 13.433C1.73275 13.3205 1.90143 13.2166 2.03554 13.1635C2.3729 13.0284 2.72123 12.9245 3.13197 12.787C3.01558 12.7089 2.94052 12.6519 2.86124 12.6027C2.03385 12.0832 1.20309 11.5685 0.377383 11.0467C0.0611028 10.8468 0.00375131 10.5421 0.23569 10.3328C0.467629 10.1234 0.686914 10.1766 0.920539 10.3265C1.94782 10.9717 2.98016 11.6107 4.00407 12.2613C4.07788 12.312 4.16328 12.3462 4.25367 12.3614C4.34405 12.3765 4.43699 12.3722 4.5253 12.3488C4.88238 12.2705 5.24729 12.2268 5.61414 12.2184C5.965 12.2184 6.3167 12.2863 6.70383 12.3285C6.4137 11.9114 6.14212 11.5068 5.85198 11.1147C5.7921 11.0366 5.67149 10.9858 5.57113 10.9358C4.5028 10.4078 3.43588 9.88078 2.37037 9.35484C2.25738 9.30308 2.14857 9.24382 2.04481 9.17753C1.86617 9.05388 1.73925 8.87678 1.68559 8.6763C1.63194 8.47583 1.65486 8.26433 1.75046 8.07773C1.84581 7.89518 2.0098 7.75114 2.21167 7.67262C2.41354 7.5941 2.63941 7.58649 2.8469 7.65124C3.27535 7.77075 3.69622 7.91057 4.14238 8.04804C3.97876 7.67233 3.84129 7.32865 3.67682 6.99746C3.63549 6.91934 3.5132 6.85295 3.41368 6.81311C2.39905 6.41553 1.38695 6.03591 0.390878 5.62739C0.301034 5.58654 0.22103 5.52929 0.155665 5.45909C0.0903007 5.38889 0.0409231 5.30718 0.0104975 5.21887C-0.0696268 4.89393 0.323404 4.6721 0.696194 4.81035C1.53961 5.13139 2.38302 5.46336 3.22644 5.79064C3.29222 5.81564 3.3597 5.83829 3.4744 5.88047C3.455 5.6063 3.43982 5.36806 3.42126 5.12983C3.41114 4.99391 3.38837 4.858 3.385 4.72131C3.37656 4.42058 3.54609 4.23155 3.82526 4.21827C4.10443 4.205 4.29757 4.3745 4.33131 4.67132C4.39288 5.2634 4.40721 5.86329 4.52192 6.44677C4.74711 7.58719 5.46907 8.40423 6.63045 8.8229C7.40505 9.08662 8.06905 9.57162 8.52645 10.2078C8.65282 10.3668 8.8298 10.485 9.0325 10.546C9.90122 10.8069 10.7809 11.0381 11.6572 11.2795C11.7415 11.3037 11.836 11.3201 11.9389 11.3435C12.0106 10.6905 11.8756 10.1406 11.2777 9.75008C11.0634 9.61026 10.856 9.45326 10.6603 9.29469C10.4199 9.1041 10.3879 8.8479 10.5667 8.65184C10.7455 8.45578 10.9985 8.43938 11.2414 8.61044C11.5425 8.82212 11.8444 9.03693 12.1261 9.27126C12.6777 9.72977 12.8987 10.3258 12.9004 10.9999C12.9004 11.8481 12.9004 12.6964 12.9004 13.5275C13.393 13.7618 13.8037 13.6689 14.1891 13.4268C14.218 13.3982 14.2396 13.364 14.2524 13.3267C14.2653 13.2894 14.269 13.2499 14.2634 13.2112M15.2071 12.9589C15.9611 12.5996 16.7 12.2559 17.4295 11.8927C17.5564 11.8236 17.6571 11.7199 17.718 11.5958C17.9643 11.0905 18.1945 10.5804 18.4197 10.0649C18.48 9.94322 18.4971 9.80703 18.4686 9.67583C18.4401 9.54462 18.3675 9.42514 18.2611 9.33453C17.7871 8.91195 17.2904 8.51046 16.8079 8.10507C15.4264 9.48685 14.7314 11.0412 15.2038 12.9557L15.2071 12.9589ZM11.9701 13.3822C11.9701 13.0284 11.9752 12.7183 11.965 12.4082C11.9611 12.3775 11.9493 12.3481 11.9307 12.3224C11.9121 12.2968 11.8871 12.2756 11.8579 12.2606C11.141 12.0551 10.4241 11.8591 9.61783 11.6357C10.0058 12.127 10.3322 12.5543 10.6772 12.9682C10.7653 13.0658 10.8827 13.1371 11.0145 13.1729C11.3089 13.2533 11.6184 13.3057 11.9667 13.3791L11.9701 13.3822Z" fill="white"/>
<path id="Vector_2" d="M24.215 0.00390578C24.6367 0.24683 24.5144 0.702216 24.6907 1.06543L25.2668 0.840472C25.7416 0.654569 26.0039 0.693624 26.1372 0.969355C26.2704 1.24509 26.1254 1.45833 25.6497 1.64501C24.8948 1.94105 24.1416 2.24022 23.3834 2.52766C22.5518 2.84011 22.1276 3.40329 22.1284 4.2461C22.1259 4.79605 21.9433 5.33235 21.6047 5.7841C21.3061 6.19705 21.0047 6.60843 20.7005 7.01825C20.5318 7.23852 20.4736 7.46426 20.6567 7.69469C20.8397 7.92512 21.0784 7.95011 21.3626 7.87122C21.6468 7.79233 21.9117 7.73921 22.1866 7.67438C22.5411 7.59673 22.8751 7.45407 23.169 7.25485C23.463 7.05562 23.7108 6.80386 23.8979 6.51444C24.341 5.8505 24.7857 5.18812 25.2322 4.5273C25.4439 4.21486 25.7045 4.12893 25.96 4.28125C26.2156 4.43357 26.2418 4.67883 26.0309 4.99909C25.9019 5.19593 25.7694 5.38964 25.6008 5.6435C26.0722 5.62241 26.4771 5.60445 26.8819 5.58804C27.0185 5.58179 27.1552 5.57086 27.2918 5.57711C27.4143 5.57457 27.5329 5.61686 27.622 5.6948C27.711 5.77273 27.7633 5.88003 27.7675 5.99344C27.7727 6.05211 27.7645 6.11114 27.7436 6.16673C27.7227 6.22232 27.6894 6.27324 27.646 6.31621C27.6025 6.35917 27.5498 6.39324 27.4913 6.41622C27.4328 6.43919 27.3697 6.45056 27.3061 6.4496C26.6862 6.48163 26.0663 6.51522 25.4456 6.51991C25.1183 6.51991 24.8855 6.60426 24.7498 6.89718C24.667 7.04389 24.5719 7.18439 24.4655 7.31742C25.2297 7.4502 25.7593 7.87044 26.1954 8.41956C26.2632 8.49071 26.3568 8.53653 26.4585 8.54844C27.4183 8.65545 28.3798 8.75231 29.3413 8.85151C29.4147 8.85854 29.4889 8.86088 29.5606 8.87416C29.8541 8.92962 30.0278 9.1249 29.9966 9.36079C29.9654 9.59669 29.7596 9.76306 29.4568 9.73963C28.9331 9.69745 28.411 9.63731 27.8889 9.58341C27.6696 9.56076 27.4512 9.53967 27.1585 9.51076C27.4259 9.82321 27.6646 10.0833 27.8856 10.3575C28.3149 10.8902 28.061 11.5979 27.388 11.7549C27.0422 11.833 26.7495 11.7291 26.4855 11.5206C25.799 10.9738 25.1048 10.4348 24.4217 9.88492C24.36 9.82722 24.2821 9.78669 24.1968 9.76791C24.1116 9.74913 24.0223 9.75287 23.9392 9.77869C23.2788 9.93959 22.6151 10.0911 21.9479 10.2239C21.4866 10.3161 21.2378 10.566 21.1593 11.0003C22.314 10.9738 23.3944 11.3276 24.5043 11.5073C24.602 11.5287 24.694 11.5678 24.7753 11.6224C24.8565 11.6769 24.9252 11.7459 24.9775 11.8252C25.1386 12.1033 24.8552 12.4134 24.49 12.3806C24.2209 12.3563 23.9561 12.2954 23.6466 12.2439C23.9131 12.9133 24.1678 13.5483 24.42 14.1849C24.4688 14.2818 24.5009 14.3851 24.5153 14.4911C24.5249 14.5952 24.4914 14.6987 24.4215 14.7807C24.3516 14.8627 24.2506 14.9169 24.1391 14.9324C23.8734 14.9832 23.6887 14.8606 23.5943 14.634C23.3978 14.1615 23.2105 13.685 23.0191 13.2101C22.8942 12.8976 22.7534 12.5938 22.6505 12.2774C22.6309 12.1932 22.5816 12.1173 22.5105 12.0616C22.4395 12.0059 22.3505 11.9736 22.2575 11.9697C22.0803 11.9486 21.9066 11.9033 21.7295 11.8861C21.2015 11.8338 20.7562 12.0525 20.5673 12.511C20.2409 13.3109 19.6716 13.9061 18.9192 14.381C18.2926 14.7754 17.6937 15.2066 17.073 15.6089C16.7685 15.8065 16.6184 16.0564 16.6386 16.4001C16.6479 16.5466 16.6479 16.6934 16.6386 16.8399C16.642 16.9553 16.5957 17.0672 16.51 17.151C16.4243 17.2348 16.3061 17.2836 16.1815 17.2867C16.0569 17.2898 15.9361 17.2469 15.8456 17.1675C15.7551 17.0881 15.7024 16.9787 15.6991 16.8633C15.6147 16.0096 15.8205 15.2902 16.6665 14.7918C17.3412 14.3942 17.9653 13.9279 18.6156 13.4975C19.1112 13.1777 19.4831 12.7191 19.6766 12.1892C19.8807 11.6362 20.0983 11.0878 20.3058 10.5348C20.5386 9.90991 20.9949 9.52795 21.6898 9.37954C22.4059 9.22332 23.1237 9.0671 23.8346 8.89994C24.0277 8.8494 24.2316 8.84593 24.4265 8.88986C24.6214 8.93379 24.8007 9.02364 24.9471 9.15067C25.5771 9.65058 26.2122 10.1474 26.876 10.6184C26.8254 10.5528 26.7782 10.484 26.7233 10.4208C26.2269 9.85211 25.7292 9.28398 25.2305 8.71638C24.8088 8.23522 24.2724 8.07743 23.628 8.23365C22.9162 8.4055 22.206 8.58125 21.4908 8.74137C21.1888 8.81763 20.8686 8.8039 20.5755 8.70211C20.2824 8.60032 20.0313 8.41565 19.8579 8.17429C19.5062 7.69469 19.5105 7.09949 19.8807 6.57927C20.1759 6.1645 20.4795 5.75442 20.784 5.34434C21.0574 4.98221 21.1989 4.54879 21.188 4.10706C21.1779 3.32596 21.188 2.54485 21.188 1.76374L21.0674 1.75827C21.0044 2.14987 20.9409 2.54042 20.8768 2.92993C20.8245 3.24941 20.6288 3.42281 20.3488 3.3986C20.0688 3.37439 19.89 3.1424 19.9364 2.81589C19.9971 2.39019 20.0595 1.96448 20.1329 1.54112C20.2248 1.0131 20.6221 0.688155 21.1332 0.707683C21.6443 0.727211 22.0078 1.07949 22.0508 1.61689C22.066 1.8067 22.0508 1.99807 22.0508 2.17538L23.7646 1.39428C23.7191 1.17088 23.6879 0.929518 23.6196 0.696748C23.531 0.392897 23.5993 0.160127 23.9013 0L24.215 0.00390578Z" fill="white"/>
<path id="Vector_3" d="M5.46448 29.9984C4.73409 29.6633 4.58143 29.2595 4.92555 28.5752C5.09001 28.2487 5.25701 27.923 5.41894 27.5949C5.53303 27.3472 5.71014 27.1288 5.93513 26.9582C6.16013 26.7877 6.42634 26.67 6.71105 26.6154C7.16144 26.517 7.61941 26.442 8.06052 26.3076C8.4957 26.1704 8.91869 26.0019 9.32564 25.8038C9.6765 25.6351 9.9329 25.6351 10.0965 25.8819C10.2475 26.1077 10.1581 26.3506 9.85699 26.5475C9.22696 26.9692 8.49234 27.1348 7.75436 27.2981C6.26404 27.6269 6.57357 27.4332 5.9174 28.6955C5.86932 28.7877 5.83306 28.8853 5.75378 29.0611C6.14344 28.7635 6.46393 28.5291 6.77094 28.2799C7.02845 28.0765 7.35284 27.9601 7.6911 27.9495C8.66524 27.8824 9.6436 27.83 10.611 27.7097C11.0032 27.6605 11.3751 27.4582 11.7496 27.3106C12.1241 27.163 12.4775 26.9982 12.841 26.8419L12.9253 26.9122V26.5998C12.9253 24.8912 12.9253 23.183 12.9253 21.4749C12.9172 21.3776 12.9223 21.2797 12.9405 21.1836C13.0038 20.961 13.1632 20.8313 13.4213 20.843C13.6793 20.8547 13.8244 20.9922 13.8649 21.2226C13.874 21.3101 13.876 21.3981 13.8708 21.4859C13.8708 23.3113 13.875 25.1368 13.8708 26.9622C13.8605 27.1833 13.9346 27.4006 14.08 27.5762C14.6129 28.2366 15.3369 28.7436 16.1683 29.0384C16.1556 28.7892 16.0983 28.5268 16.1387 28.2784C16.1795 28.0194 16.3203 27.783 16.5349 27.6128C16.7495 27.4426 17.0235 27.3502 17.306 27.3528C18.2211 27.3426 19.1362 27.3528 20.0513 27.3528C20.4022 27.3528 20.6721 27.5027 20.9023 27.7371C21.2979 28.1401 21.6985 28.5385 22.1557 28.997C22.1423 28.922 22.1237 28.8479 22.1 28.7752C21.8824 28.3315 21.6656 27.8878 21.4421 27.4473C21.3406 27.2314 21.1789 27.0445 20.9736 26.9056C20.7683 26.7667 20.5269 26.6808 20.274 26.6568C19.7224 26.5865 19.17 26.5162 18.6209 26.4303C17.328 26.2272 16.4483 25.5469 16.0957 24.3775C15.893 23.7115 15.7706 23.0267 15.7305 22.3357C15.6698 21.2062 15.7052 20.0705 15.7078 18.9395C15.7078 18.6434 15.9026 18.4575 16.1792 18.4575C16.4559 18.4575 16.6389 18.6426 16.6515 18.9379C16.6515 19.0059 16.6515 19.0746 16.6515 19.1425C16.6515 20.0604 16.611 20.9797 16.6642 21.8952C16.7017 22.624 16.8038 23.3487 16.9695 24.062C17.1753 24.9134 17.8036 25.4156 18.7407 25.5601C19.3623 25.6562 19.9889 25.7249 20.608 25.8312C20.9478 25.8829 21.2693 26.0092 21.5457 26.1994C21.8221 26.3897 22.0454 26.6383 22.197 26.9247C22.5343 27.5309 22.8405 28.1518 23.1332 28.7775C23.3626 29.2657 23.1441 29.6664 22.5116 29.9999H22.0055C21.7694 29.814 21.518 29.6422 21.3004 29.4391C20.9386 29.1001 20.6038 28.7361 20.2462 28.394C20.1653 28.3094 20.0548 28.2541 19.9341 28.2378C19.0839 28.2253 18.2329 28.2261 17.3828 28.2331C17.0859 28.2331 16.9864 28.3995 17.085 28.6674C17.1449 28.801 17.1849 28.9416 17.204 29.0853C17.2318 29.5539 16.9105 29.8023 16.5132 29.9984H16.0072C15.9743 29.9781 15.9422 29.9546 15.9068 29.9367C14.9453 29.4579 13.9602 29.0111 13.3293 28.1237C13.067 27.7558 12.7963 27.7152 12.4016 27.9675C11.8107 28.3448 11.1255 28.5757 10.4111 28.6385C9.55505 28.7166 8.69476 28.7533 7.8387 28.8314C7.63712 28.8551 7.44516 28.9252 7.28036 29.0353C6.81142 29.3423 6.36273 29.6758 5.90644 29.9984H5.46448Z" fill="white"/>
<path id="Vector_4" d="M13.8002 17.8046C13.8002 17.532 13.7943 17.2578 13.8002 16.9868C13.8078 16.6899 13.9908 16.5056 14.2666 16.5025C14.5424 16.4994 14.7389 16.6806 14.7423 16.9711C14.7491 17.5351 14.7499 18.0998 14.7423 18.6646C14.7381 18.9403 14.5475 19.1161 14.2801 19.1192C14.0128 19.1223 13.8137 18.9481 13.8028 18.6763C13.7918 18.3889 13.8011 18.0967 13.8002 17.8046Z" fill="black"/>
</g>
</svg>
