<svg width="31" height="31" viewBox="0 0 31 31" fill="none" xmlns="http://www.w3.org/2000/svg">
<path d="M14.4586 9.01319H15.5077C17.3068 9.01319 19.106 9.01319 20.9051 9.01319C21.2653 9.01319 21.4812 8.84356 21.4839 8.5829C21.4865 8.32224 21.2636 8.1495 20.9139 8.13628C20.8597 8.13628 20.8055 8.13628 20.7504 8.13628C16.5745 8.13628 12.3984 8.13628 8.22194 8.13628C8.0919 8.13097 7.9617 8.14277 7.83554 8.17129C7.72693 8.19403 7.6322 8.25287 7.57076 8.33577C7.50932 8.41866 7.48582 8.51932 7.50508 8.61714C7.50797 8.71608 7.5519 8.81058 7.62842 8.88242C7.70493 8.95425 7.8086 8.99833 7.91946 9.00618C8.03881 9.01709 8.1589 9.02021 8.27877 9.01552L14.4586 9.01319ZM14.4586 6.44548H20.739C20.8478 6.44926 20.9568 6.4464 21.0651 6.43692C21.316 6.40502 21.4909 6.25407 21.4646 6.04788C21.4454 5.89226 21.3029 5.72341 21.1604 5.6207C21.0616 5.54912 20.8693 5.56935 20.7233 5.56935C16.569 5.56935 12.4147 5.56935 8.26041 5.56935C8.13003 5.56294 7.99927 5.57157 7.87138 5.59503C7.76047 5.62032 7.66325 5.67982 7.59703 5.76294C7.5308 5.84606 7.49986 5.9474 7.50973 6.04892C7.51959 6.15044 7.56961 6.24555 7.65089 6.31731C7.73217 6.38908 7.83942 6.43284 7.95355 6.44081C8.06236 6.4477 8.17149 6.44951 8.28051 6.44626L14.4586 6.44548ZM11.9758 11.577C13.2609 11.577 14.5458 11.577 15.8303 11.577C16.2045 11.577 16.4073 11.4323 16.4221 11.1669C16.4387 10.8752 16.2071 10.7001 15.7831 10.7001C13.2344 10.7001 10.6864 10.7001 8.13889 10.7001C7.72276 10.7001 7.50246 10.8518 7.49634 11.1327C7.49022 11.4136 7.71315 11.5747 8.15375 11.5747C9.42895 11.5773 10.703 11.578 11.9758 11.577ZM17.2212 21.8478C18.4206 21.8478 19.62 21.8478 20.8195 21.8478C21.2566 21.8478 21.4909 21.6922 21.4847 21.4051C21.4786 21.118 21.2417 20.9717 20.8046 20.9709H18.8717C17.1163 20.9709 15.3608 20.9647 13.6054 20.9795C13.3961 20.9875 13.1964 21.0601 13.0406 21.1849C12.9532 21.2627 12.9401 21.5148 13.017 21.6027C13.0799 21.6693 13.1569 21.7242 13.2436 21.7642C13.3303 21.8043 13.425 21.8287 13.5223 21.8361C14.7541 21.854 15.9868 21.8455 17.2212 21.8455V21.8478ZM18.6619 19.2801C19.4015 19.2801 20.1419 19.2801 20.8824 19.2801C21.2627 19.2801 21.4874 19.112 21.4856 18.842C21.4839 18.572 21.2522 18.4071 20.8737 18.4063C19.3939 18.4063 17.9133 18.4063 16.4317 18.4063C16.0576 18.4063 15.8259 18.5829 15.8294 18.849C15.8329 19.1152 16.0576 19.2786 16.4414 19.2801C17.1783 19.2793 17.9205 19.2778 18.6593 19.2778L18.6619 19.2801ZM10.1924 14.1447C10.8918 14.1447 11.5868 14.1447 12.2836 14.1447C12.6761 14.1447 12.8824 13.9891 12.8833 13.7105C12.8842 13.432 12.6682 13.2693 12.2853 13.2686C10.8906 13.2686 9.49626 13.2686 8.10217 13.2686C7.71752 13.2686 7.50158 13.4351 7.50071 13.709C7.49983 13.9829 7.71402 14.1431 8.1013 14.1447C8.79543 14.147 9.49306 14.1447 10.1898 14.1447H10.1924ZM9.43448 16.7124C9.8917 16.7124 10.3489 16.7124 10.8061 16.7124C11.1724 16.7085 11.3735 16.5521 11.377 16.2821C11.3805 16.0121 11.1733 15.8394 10.8166 15.8371C9.90219 15.8324 8.98805 15.8324 8.0742 15.8371C7.71577 15.8371 7.50421 16.0075 7.50071 16.272C7.49721 16.5366 7.7079 16.7077 8.06283 16.7116C8.51743 16.7163 8.97465 16.7124 9.43186 16.7124H9.43448Z" fill="white"/>
<path d="M28.114 0.715621C28.3107 0.766197 28.51 0.809771 28.7041 0.87124C30.0302 1.2704 30.8712 2.31304 30.9036 3.62569C30.9228 4.38355 30.9115 5.14219 30.9036 5.90083C30.9036 6.30077 30.7331 6.44549 30.2916 6.44549C28.809 6.44861 27.326 6.44861 25.8427 6.44549H25.4668V8.57902C25.9118 8.53778 26.3507 8.46698 26.7904 8.46231C27.9881 8.44908 29.1857 8.46231 30.3834 8.46853C30.6763 8.46853 30.8642 8.61559 30.8782 8.87859C30.9657 10.5569 30.602 12.1061 29.2583 13.3783C28.9681 13.6537 28.6735 13.7448 28.2425 13.6483C27.4163 13.4612 26.5624 13.3898 25.7116 13.4367C26.0368 13.681 26.3297 13.8903 26.6068 14.1144C26.7492 14.2348 26.8783 14.3672 26.9923 14.5096C27.2336 14.7999 27.1847 15.0543 26.8323 15.2434C26.4818 15.4392 26.1163 15.6132 25.7387 15.7639C25.4922 15.8581 25.438 15.9818 25.438 16.2028C25.4455 20.0056 25.4476 23.8081 25.4441 27.6104C25.4441 28.8717 24.8094 29.789 23.5418 30.3384C23.2734 30.4551 22.9709 30.5103 22.6842 30.5944H3.77128C3.32018 30.4333 2.82887 30.3298 2.42761 30.1003C1.45809 29.5471 0.996505 28.7106 0.979021 27.6882C0.965908 26.9296 0.972027 26.1709 0.979021 25.4123C0.979021 25.0115 1.14775 24.8676 1.59098 24.8676C2.27636 24.8637 2.96263 24.8676 3.70572 24.8676V12.1466C3.70572 11.6844 3.87269 11.4626 4.21276 11.4727C4.55283 11.4829 4.68834 11.6891 4.68834 12.1435V24.8645H5.0695C5.95246 24.8645 6.8363 24.8645 7.71926 24.8645C8.09343 24.8645 8.29187 25.0201 8.29799 25.2878C8.30411 25.5554 8.09081 25.7391 7.70965 25.7398C5.94255 25.7435 4.17575 25.7435 2.40924 25.7398H1.97913C1.97301 25.8566 1.96164 25.9577 1.96164 26.0596C1.96164 26.5942 1.95203 27.1295 1.96164 27.6641C1.98787 28.8631 2.92853 29.7112 4.25735 29.7128C9.39369 29.718 14.53 29.718 19.6664 29.7128C19.7188 29.7128 19.7721 29.7081 19.8246 29.7066C19.829 29.6809 19.8412 29.656 19.8333 29.6474C19.203 28.9931 18.9652 28.2305 19.0063 27.3777C19.0325 26.8455 19.0116 26.3117 19.0116 25.7375H9.97213C9.53502 25.7375 9.29723 25.5819 9.29198 25.2987C9.28674 25.0154 9.51928 24.859 9.95814 24.859H17.2859C17.9852 24.859 18.6846 24.859 19.384 24.859C19.8272 24.859 19.9959 25.0108 19.9959 25.4037C19.9959 26.1717 19.9907 26.9404 19.9959 27.7084C19.9905 28.2027 20.1925 28.681 20.5624 29.0496C20.9323 29.4183 21.4435 29.6508 21.9959 29.7016C22.5483 29.7524 23.1022 29.6179 23.549 29.3243C23.9958 29.0308 24.3034 28.5994 24.4116 28.1146C24.4452 27.9608 24.4601 27.8043 24.4562 27.6477C24.4562 23.9035 24.4562 20.1594 24.4562 16.4152C24.4567 16.3744 24.4547 16.3336 24.4501 16.293C24.166 16.1825 23.9256 16.1016 23.6974 15.9989C23.2463 15.7974 22.8022 15.5834 22.3546 15.3764L22.2864 15.4542C22.3887 15.6293 22.4945 15.8028 22.5933 15.9787C22.8555 16.451 22.6326 16.7638 22.0399 16.7428C20.1519 16.6625 18.2631 16.8844 16.4632 17.3979C14.6929 17.9107 13.1141 18.7051 11.8552 19.9532C11.7546 20.0536 11.6768 20.1704 11.6262 20.2971C11.3114 21.0931 11.0142 21.8945 10.6977 22.6913C10.654 22.8201 10.5794 22.9391 10.4792 23.0399C10.4065 23.1084 10.3076 23.1503 10.202 23.1573C10.0964 23.1644 9.99168 23.1361 9.90831 23.078C9.69237 22.948 9.63555 22.7613 9.72035 22.5403C10.0088 21.7879 10.293 21.0332 10.5876 20.2839C12.0432 16.5708 14.5216 13.5254 18.1059 11.2222C19.9175 10.0639 21.9734 9.24341 24.1502 8.81011C24.2447 8.79066 24.3373 8.76421 24.4571 8.73231V3.87701C24.4571 2.8795 24.6319 2.42198 25.3313 1.60732C25.2045 1.60109 25.1049 1.59175 25.0061 1.59175C23.7411 1.59175 22.4761 1.59175 21.2111 1.59175C20.934 1.59175 20.6866 1.57075 20.5668 1.30075C20.447 1.03075 20.6394 0.865794 20.8483 0.714844L28.114 0.715621ZM21.3825 15.8495C21.2032 15.5951 21.0266 15.3951 20.9147 15.1695C20.8316 15.0101 20.8071 14.8315 20.8448 14.659C20.9086 14.4466 21.1482 14.4155 21.3833 14.4202C22.3703 14.4404 23.2585 14.7314 24.089 15.1866C24.1843 15.2387 24.3233 15.3103 24.4064 15.2831C24.9029 15.1274 25.3881 14.9399 25.9258 14.747C25.3838 14.2801 24.8129 14.0085 24.2315 13.7417C24.0614 13.6521 23.9341 13.5101 23.874 13.3425C23.8023 13.1324 23.9763 12.969 24.1904 12.8889C24.4654 12.7737 24.7535 12.6852 25.0498 12.6251C26.14 12.4461 27.2196 12.5831 28.2975 12.7434C28.3666 12.7496 28.4363 12.7428 28.5021 12.7233C28.5679 12.7039 28.6284 12.6723 28.6796 12.6305C29.3387 11.9972 29.6657 11.2206 29.8161 10.3811C29.8781 10.0325 29.8974 9.6808 29.9367 9.31432C26.3061 9.10423 22.9307 9.66135 19.8237 11.2899C16.7377 12.9068 14.491 15.2208 12.8064 18.0056C15.3853 16.4681 18.2798 15.9118 21.3807 15.8495H21.3825ZM29.8974 5.54991C29.8974 4.80916 29.9454 4.08009 29.8851 3.35958C29.7977 2.3644 28.8448 1.61276 27.7372 1.59331C26.6295 1.57386 25.6233 2.2757 25.4974 3.2631C25.41 3.95404 25.4546 4.65821 25.4423 5.35616C25.4464 5.42131 25.456 5.48608 25.4712 5.54991H29.8974Z" fill="white"/>
<path d="M19.2143 0.715637C19.4469 0.854138 19.6235 1.02687 19.5177 1.29454C19.4119 1.5622 19.1593 1.59333 18.8778 1.59333C14.9729 1.59021 11.0681 1.59021 7.16321 1.59333C5.60011 1.59333 4.68917 2.40877 4.68917 3.80622C4.68917 5.85831 4.68917 7.9104 4.68917 9.96248C4.69923 10.0691 4.69097 10.1764 4.66469 10.2807C4.63855 10.3767 4.5739 10.4608 4.48293 10.5172C4.39196 10.5737 4.28093 10.5986 4.17075 10.5873C3.91723 10.5741 3.77298 10.4395 3.72053 10.2301C3.7043 10.1339 3.6999 10.0363 3.70742 9.93914C3.70742 7.88705 3.70742 5.83496 3.70742 3.78288C3.70742 2.17067 4.66906 1.10468 6.43236 0.756098C6.4633 0.746943 6.4927 0.734118 6.51979 0.717971L19.2143 0.715637Z" fill="white"/>
<path d="M14.4587 9.01323H8.27621C8.15635 9.01792 8.03626 9.0148 7.91691 9.00389C7.80605 8.99605 7.70237 8.95196 7.62586 8.88013C7.54935 8.80829 7.50542 8.7138 7.50253 8.61485C7.48328 8.51703 7.50678 8.41637 7.56822 8.33348C7.62965 8.25059 7.72438 8.19174 7.83298 8.169C7.95915 8.14048 8.08936 8.12868 8.21939 8.13399C12.3953 8.13399 16.5714 8.13399 20.7478 8.13399C20.8029 8.13399 20.8571 8.13399 20.9113 8.13399C21.261 8.14721 21.4848 8.32228 21.4813 8.58061C21.4778 8.83894 21.2628 9.01012 20.9026 9.0109C19.1034 9.0109 17.3043 9.0109 15.5051 9.0109L14.4587 9.01323Z" fill="white"/>
<path d="M14.457 6.44553H8.27454C8.16552 6.44878 8.05638 6.44697 7.94758 6.44008C7.83344 6.43211 7.72619 6.38834 7.64492 6.31658C7.56364 6.24481 7.51362 6.1497 7.50375 6.04819C7.49389 5.94667 7.52482 5.84533 7.59105 5.76221C7.65728 5.67909 7.7545 5.61959 7.8654 5.59429C7.99329 5.57084 8.12405 5.56221 8.25443 5.56862C12.4087 5.56862 16.563 5.56862 20.7173 5.56862C20.8677 5.56862 21.06 5.54839 21.1544 5.61997C21.2969 5.72268 21.4394 5.89308 21.4587 6.04714C21.4849 6.25334 21.31 6.40429 21.0591 6.43619C20.9508 6.44567 20.8418 6.44853 20.7331 6.44475L14.457 6.44553Z" fill="white"/>
<path d="M11.9758 11.577C10.7024 11.577 9.42837 11.577 8.15375 11.577C7.71664 11.577 7.49022 11.4253 7.49634 11.1351C7.50246 10.8448 7.72276 10.7025 8.13889 10.7025C10.6875 10.7025 13.2356 10.7025 15.7831 10.7025C16.2071 10.7025 16.4387 10.8744 16.4221 11.1693C16.4073 11.4346 16.2044 11.5794 15.8303 11.5794C14.5463 11.5799 13.2615 11.5791 11.9758 11.577Z" fill="white"/>
<path d="M17.2213 21.8455C15.9896 21.8455 14.7569 21.854 13.5251 21.8346C13.4278 21.8271 13.3331 21.8027 13.2464 21.7626C13.1597 21.7226 13.0827 21.6677 13.0198 21.6011C12.9429 21.5132 12.956 21.258 13.0434 21.1833C13.1992 21.0585 13.3988 20.9859 13.6082 20.9779C15.3636 20.9631 17.1191 20.9693 18.8745 20.9693H20.8056C21.2428 20.9693 21.4805 21.1249 21.4858 21.4035C21.491 21.6821 21.2567 21.8462 20.8205 21.8462C19.6187 21.8467 18.419 21.8465 17.2213 21.8455Z" fill="white"/>
<path d="M18.6593 19.2778C17.9189 19.2778 17.1784 19.2778 16.4379 19.2778C16.0559 19.2778 15.8304 19.1136 15.826 18.8467C15.8216 18.5798 16.0542 18.4048 16.4283 18.404C17.9093 18.404 19.3899 18.404 20.8702 18.404C21.2479 18.404 21.4822 18.5736 21.4822 18.8397C21.4822 19.1058 21.2593 19.2762 20.879 19.2778C20.1394 19.2793 19.3989 19.2778 18.6593 19.2778Z" fill="white"/>
<path d="M10.1898 14.1447C9.4904 14.1447 8.79102 14.1447 8.09864 14.1447C7.71136 14.1447 7.49718 13.9845 7.49805 13.709C7.49892 13.4336 7.71485 13.2694 8.09951 13.2686C9.49418 13.2686 10.8886 13.2686 12.2827 13.2686C12.6656 13.2686 12.8806 13.4359 12.8806 13.7106C12.8806 13.9852 12.6734 14.1432 12.2809 14.1447C11.5842 14.1471 10.8865 14.1447 10.1898 14.1447Z" fill="white"/>
<path d="M9.43187 16.7124C8.97465 16.7124 8.51743 16.7163 8.06021 16.7124C7.70528 16.7085 7.49459 16.5381 7.49809 16.2728C7.50159 16.0075 7.71315 15.8394 8.07158 15.8379C8.98601 15.8332 9.90016 15.8332 10.814 15.8379C11.1707 15.8379 11.377 16.0129 11.3744 16.2829C11.3718 16.5529 11.1698 16.7093 10.8035 16.7132C10.3463 16.7155 9.88908 16.7124 9.43187 16.7124Z" fill="white"/>
</svg>
