<svg width="31" height="31" viewBox="0 0 31 31" fill="none" xmlns="http://www.w3.org/2000/svg">
<path d="M10.8882 26.3307L10.0658 27.138C10.2318 27.2882 10.3977 27.4284 10.5479 27.5786C11.6434 28.6572 11.6384 28.5378 10.5388 29.6255C10.3106 29.8521 10.0849 30.0811 9.85749 30.3076C9.47741 30.6859 9.26497 30.6884 8.89069 30.3142C8.14326 29.5669 7.39638 28.8201 6.65005 28.0739C6.56706 27.991 6.48407 27.9188 6.39279 27.825C6.3098 27.9039 6.22681 27.9686 6.15959 28.0399C5.40441 28.795 4.65006 29.5503 3.89654 30.3059C3.50899 30.6934 3.30235 30.6909 2.90816 30.296C2.33666 29.724 1.76516 29.1518 1.19365 28.5792C0.819381 28.2034 0.82021 27.9926 1.20112 27.611C5.41686 23.3865 9.63343 19.1627 13.8508 14.9393C13.9338 14.8564 14.04 14.7834 14.1554 14.6904C13.6326 14.1818 13.3778 13.6284 13.4541 12.948C13.5012 12.4895 13.7189 12.0653 14.0641 11.7598C14.8458 11.0496 15.8624 11.1101 16.9006 12.0087C17.045 11.8237 17.1852 11.6196 17.3512 11.4395C17.5172 11.2595 17.6981 11.1184 17.8915 10.9417C15.4425 9.85394 14.1396 8.05924 14.3911 5.40162C14.6085 3.10991 15.9753 1.6529 18.1678 0.889552C18.2624 1.21647 18.3487 1.51766 18.4417 1.84125C18.3587 1.87693 18.289 1.91261 18.2151 1.93833C16.3769 2.57722 15.206 4.32463 15.3396 6.23383C15.4038 7.16663 15.7751 8.05192 16.3956 8.75143C17.0161 9.45094 17.8508 9.92528 18.7695 10.1004C19.0292 10.1518 19.2566 10.2198 19.3379 10.502C19.4193 10.7841 19.245 10.9483 19.0724 11.1201C18.5661 11.6237 18.0624 12.1299 17.5836 12.6086L18.9006 13.9262C19.0574 13.7512 19.2566 13.518 19.469 13.2965C19.7636 12.9903 20.069 12.6949 20.3678 12.3921C20.5396 12.2178 20.7138 12.0552 20.9885 12.1432C21.2632 12.2311 21.3205 12.4452 21.3694 12.6941C21.4913 13.3449 21.7647 13.958 22.1673 14.4837C22.5699 15.0094 23.0906 15.4331 23.6873 15.7204C24.2839 16.0078 24.9398 16.1508 25.6019 16.1379C26.2641 16.125 26.9139 15.9566 27.4989 15.6462C28.0839 15.3358 28.5877 14.8922 28.9695 14.3512C29.3514 13.8102 29.6006 13.187 29.697 12.5319C29.7935 11.8768 29.7345 11.2082 29.5247 10.5801C29.315 9.95205 28.9605 9.38211 28.4897 8.91634C28.0275 8.45833 28.0358 8.26667 28.5345 7.8377C28.8971 7.52511 29.1912 7.14111 29.3986 6.7097C29.606 6.27828 29.7221 5.80873 29.7397 5.33041C29.7573 4.85209 29.6761 4.37527 29.501 3.92978C29.3259 3.48428 29.0608 3.07969 28.7222 2.74129C28.3837 2.40289 27.9789 2.13797 27.5333 1.96308C27.0877 1.78819 26.6107 1.7071 26.1323 1.72487C25.6539 1.74265 25.1843 1.85891 24.7529 2.06638C24.3215 2.27386 23.9375 2.56809 23.625 2.93068C23.2059 3.42354 23.0167 3.42852 22.5462 2.9647C21.7951 2.20575 20.7834 1.76081 19.7163 1.72011L19.4823 1.70766V0.717798C20.8375 0.706182 22.0151 1.16751 23.0508 2.06113C24.064 1.08205 25.2657 0.612422 26.664 0.733563C27.7974 0.82341 28.8503 1.35396 29.5968 2.21131C31.0424 3.81434 31.2565 6.46948 29.4067 8.40357C30.6324 9.90206 31.0665 11.5889 30.4922 13.4732C30.0673 14.8572 29.1818 15.8794 27.9072 16.5565C25.2516 17.967 21.723 16.7855 20.5794 13.6616L19.5728 14.6913C19.5968 14.7203 19.6558 14.7908 19.7122 14.8572C20.4168 15.6546 20.3877 16.8004 19.6458 17.5231C18.9039 18.2458 17.7554 18.2483 16.9861 17.5074C16.3147 16.861 15.6649 16.1906 15.0052 15.5318C14.9554 15.482 14.9006 15.4372 14.8716 15.4106L2.2202 28.0856L3.44177 29.3061C7.40855 25.33 11.411 21.3197 15.4492 17.275L16.1131 17.9836L11.528 22.5762C11.655 22.7106 11.7288 22.7919 11.806 22.8699C12.5595 23.626 13.3133 24.3817 14.0674 25.1367C14.4317 25.5026 14.4334 25.7225 14.0757 26.0834C13.6453 26.5171 13.2132 26.9497 12.7795 27.3811C12.4699 27.6865 12.2276 27.6865 11.9205 27.3811C11.5778 27.0351 11.2392 26.6883 10.8882 26.3307ZM10.1654 28.5776C9.7994 28.2208 9.44919 27.8856 9.10646 27.5429C8.78779 27.2235 8.78945 26.9853 9.10646 26.6642C9.52139 26.2452 9.93633 25.8287 10.3513 25.4113C10.7662 24.994 10.9571 25.0039 11.3612 25.4113C11.6874 25.7383 12.011 26.0677 12.3006 26.3606L13.0525 25.6528L10.8517 23.4316L7.20025 27.0882L9.40936 29.3343L10.1654 28.5776ZM19.2201 15.9948C19.152 15.8811 19.0541 15.6222 18.8773 15.4405C17.9396 14.4747 16.9836 13.5271 16.0301 12.5771C15.6201 12.1689 15.0749 12.1481 14.7023 12.514C14.3297 12.88 14.338 13.4442 14.7554 13.8673C15.2209 14.3394 15.6906 14.8066 16.1595 15.2779C16.6641 15.7832 17.1653 16.2926 17.6765 16.7921C17.8022 16.9249 17.9667 17.0146 18.1464 17.0485C18.3261 17.0823 18.5119 17.0585 18.6773 16.9805C19.0126 16.8394 19.2251 16.5042 19.2201 15.9948Z" fill="white"/>
<path d="M19.552 3.20699C20.0947 3.2047 20.6257 3.36362 21.0779 3.6636C21.53 3.96359 21.8828 4.3911 22.0915 4.89189C22.3002 5.39269 22.3555 5.94419 22.2502 6.47641C22.1449 7.00863 21.8838 7.49758 21.5001 7.88121C21.1164 8.26483 20.6274 8.52585 20.0951 8.63113C19.5628 8.73641 19.0112 8.68121 18.5103 8.47253C18.0094 8.26385 17.5818 7.9111 17.2818 7.45905C16.9818 7.00699 16.8228 6.47601 16.8251 5.93348C16.8282 5.21131 17.1164 4.5196 17.6272 4.00894C18.1379 3.49829 18.8298 3.21005 19.552 3.20699ZM17.8193 5.93182C17.8175 6.27547 17.9176 6.61195 18.107 6.89872C18.2964 7.1855 18.5666 7.40972 18.8833 7.54304C19.2001 7.67636 19.5494 7.71281 19.8869 7.64778C20.2244 7.58274 20.535 7.41914 20.7796 7.17765C21.0241 6.93616 21.1916 6.62762 21.2608 6.29101C21.33 5.95439 21.2979 5.60481 21.1685 5.28645C21.0391 4.96808 20.8182 4.6952 20.5337 4.5023C20.2493 4.3094 19.914 4.20513 19.5703 4.20267C19.109 4.20046 18.6656 4.38124 18.3373 4.70538C18.0091 5.02952 17.8228 5.47057 17.8193 5.93182Z" fill="white"/>
<path d="M22.7886 11.9092C22.7917 11.3684 22.9554 10.8406 23.2587 10.3928C23.5621 9.94504 23.9915 9.59733 24.4927 9.39376C24.9938 9.19018 25.5442 9.13989 26.0739 9.24926C26.6037 9.35863 27.0891 9.62274 27.4686 10.0081C27.8481 10.3935 28.1047 10.8829 28.2059 11.4142C28.307 11.9455 28.2482 12.4949 28.0368 12.9927C27.8255 13.4906 27.4711 13.9145 27.0185 14.2108C26.566 14.5071 26.0357 14.6625 25.4948 14.6573C24.7724 14.6487 24.0826 14.3551 23.5757 13.8404C23.0688 13.3257 22.7859 12.6316 22.7886 11.9092ZM23.7844 11.8926C23.78 12.2363 23.8776 12.5735 24.0649 12.8617C24.2521 13.1499 24.5206 13.3762 24.8364 13.5119C25.1522 13.6476 25.5012 13.6866 25.8392 13.6241C26.1772 13.5616 26.4891 13.4003 26.7354 13.1606C26.9817 12.9209 27.1515 12.6136 27.2232 12.2774C27.2949 11.9413 27.2654 11.5915 27.1383 11.2722C27.0112 10.9528 26.7923 10.6783 26.5092 10.4834C26.2261 10.2884 25.8916 10.1817 25.5479 10.1767C25.0864 10.1708 24.6414 10.3481 24.3105 10.6697C23.9795 10.9914 23.7898 11.4312 23.7828 11.8926H23.7844Z" fill="white"/>
<path d="M26.2558 3.20703C26.6496 3.20409 27.0354 3.31794 27.3645 3.53418C27.6936 3.75043 27.9512 4.05937 28.1047 4.42195C28.2582 4.78454 28.3008 5.18449 28.2271 5.57126C28.1533 5.95804 27.9665 6.31427 27.6903 6.59493C27.4141 6.8756 27.0609 7.06811 26.6753 7.14812C26.2898 7.22813 25.8891 7.19206 25.524 7.04446C25.1589 6.89686 24.8458 6.64436 24.6242 6.31887C24.4026 5.99339 24.2825 5.60952 24.279 5.2158C24.2767 4.95408 24.326 4.69448 24.4242 4.45183C24.5223 4.20919 24.6673 3.98827 24.8509 3.8017C25.0345 3.61514 25.2531 3.46659 25.4941 3.36455C25.7352 3.26251 25.994 3.20898 26.2558 3.20703ZM26.2632 4.2027C26.0657 4.20272 25.8727 4.26144 25.7087 4.3714C25.5447 4.48137 25.417 4.63761 25.3421 4.82028C25.2671 5.00294 25.2481 5.20377 25.2875 5.39724C25.327 5.59072 25.4231 5.7681 25.5636 5.90684C25.7041 6.04558 25.8827 6.13941 26.0767 6.17641C26.2707 6.21341 26.4713 6.19191 26.653 6.11464C26.8348 6.03737 26.9894 5.90781 27.0973 5.74244C27.2052 5.57708 27.2615 5.38337 27.2591 5.18593C27.2558 4.92402 27.1494 4.67395 26.963 4.48991C26.7766 4.30587 26.5252 4.20268 26.2632 4.2027Z" fill="white"/>
</svg>
