<svg width="24" height="27" viewBox="0 0 24 27" fill="none" xmlns="http://www.w3.org/2000/svg">
<path fill-rule="evenodd" clip-rule="evenodd" d="M13.5137 3.80583C14.5869 2.73107 16.3274 2.73041 17.4013 3.80435L19.8932 6.29621C20.958 7.36099 20.969 9.08475 19.918 10.1631L17.5882 12.5535C17.6291 12.7984 17.5633 13.0605 17.3908 13.2501C17.206 13.4533 16.9449 13.5219 16.7087 13.4559L10.6849 19.6364C9.97933 20.3603 9.01167 20.7684 8.00124 20.7684L5.24909 20.7683C3.96984 20.7682 2.94823 19.7018 3.00203 18.4228L3.12019 15.6137C3.15968 14.6747 3.54996 13.7847 4.2138 13.1198L13.5137 3.80583ZM18.8446 9.11536L16.6685 11.3481L12.5815 6.86239L14.5744 4.86649C15.0622 4.37796 15.8533 4.37766 16.3415 4.86582L18.8333 7.35767C19.3173 7.84166 19.3224 8.62519 18.8446 9.11536ZM5.27446 14.1805L11.5247 7.92078L15.6239 12.4199L9.61148 18.5886C9.18816 19.0229 8.60756 19.2678 8.0013 19.2678L5.24916 19.2677C4.82274 19.2677 4.4822 18.9122 4.50014 18.4859L4.61829 15.6768C4.64199 15.1134 4.87616 14.5794 5.27446 14.1805ZM20.5148 22.6409C20.9289 22.6409 21.2645 22.305 21.2645 21.8906C21.2645 21.4763 20.9289 21.1404 20.5148 21.1404H14.3931C13.9791 21.1404 13.6434 21.4763 13.6434 21.8906C13.6434 22.305 13.9791 22.6409 14.3931 22.6409H20.5148Z" fill="#8B44FF"/>
</svg>
