<svg width="24" height="24" viewBox="0 0 24 24" fill="none" xmlns="http://www.w3.org/2000/svg">
<g id="Component 12 1" clip-path="url(#clip0_970_3628)">
<path id="Vector" d="M10.811 6.66527H11.6519C13.094 6.66527 14.536 6.66527 15.9781 6.66527C16.2668 6.66527 16.4399 6.52902 16.442 6.31965C16.4441 6.11029 16.2654 5.97154 15.9851 5.96091C15.9416 5.96091 15.8982 5.96091 15.8541 5.96091C12.507 5.96091 9.15969 5.96091 5.81216 5.96091C5.70793 5.95665 5.60357 5.96613 5.50245 5.98904C5.41539 6.00731 5.33947 6.05457 5.29022 6.12115C5.24098 6.18773 5.22214 6.26859 5.23757 6.34715C5.23989 6.42663 5.27511 6.50254 5.33643 6.56023C5.39776 6.61793 5.48085 6.65334 5.56971 6.65965C5.66537 6.66841 5.76163 6.67091 5.85771 6.66715L10.811 6.66527ZM10.811 4.60283H15.845C15.9321 4.60586 16.0195 4.60357 16.1063 4.59595C16.3074 4.57033 16.4476 4.44908 16.4265 4.28346C16.4111 4.15846 16.2969 4.02284 16.1827 3.94034C16.1035 3.88284 15.9494 3.89909 15.8323 3.89909C12.5026 3.89909 9.17277 3.89909 5.84299 3.89909C5.73849 3.89395 5.63368 3.90088 5.53117 3.91972C5.44228 3.94003 5.36435 3.98783 5.31127 4.05459C5.25819 4.12135 5.23339 4.20275 5.2413 4.2843C5.24921 4.36584 5.2893 4.44223 5.35445 4.49988C5.41959 4.55752 5.50556 4.59267 5.59704 4.59907C5.68425 4.6046 5.77172 4.60606 5.8591 4.60345L10.811 4.60283ZM8.82101 8.72459C9.85106 8.72459 10.8809 8.72459 11.9105 8.72459C12.2104 8.72459 12.3729 8.60835 12.3848 8.39523C12.3982 8.16086 12.2125 8.02024 11.8726 8.02024C9.8298 8.02024 7.78746 8.02024 5.74559 8.02024C5.41205 8.02024 5.23547 8.14211 5.23057 8.36773C5.22566 8.59335 5.40435 8.72272 5.7575 8.72272C6.77961 8.7248 7.80078 8.72543 8.82101 8.72459ZM13.0253 16.9744C13.9867 16.9744 14.948 16.9744 15.9094 16.9744C16.2598 16.9744 16.4476 16.8494 16.4427 16.6188C16.4378 16.3882 16.2479 16.2707 15.8975 16.27H14.3482C12.9412 16.27 11.5342 16.265 10.1271 16.2769C9.95935 16.2834 9.7993 16.3417 9.67448 16.4419C9.60441 16.5044 9.59389 16.7069 9.65556 16.7775C9.70593 16.831 9.76764 16.8751 9.83713 16.9072C9.90663 16.9394 9.98256 16.959 10.0606 16.965C11.0479 16.9794 12.0359 16.9725 13.0253 16.9725V16.9744ZM14.1801 14.912C14.7729 14.912 15.3664 14.912 15.9599 14.912C16.2647 14.912 16.4448 14.777 16.4434 14.5601C16.442 14.3432 16.2563 14.2107 15.9529 14.2101C14.7668 14.2101 13.58 14.2101 12.3925 14.2101C12.0926 14.2101 11.907 14.352 11.9098 14.5657C11.9126 14.7795 12.0926 14.9107 12.4003 14.912C12.991 14.9113 13.5859 14.9101 14.178 14.9101L14.1801 14.912ZM7.39156 10.7871C7.95213 10.7871 8.5092 10.7871 9.06766 10.7871C9.38228 10.7871 9.54765 10.6621 9.54835 10.4383C9.54905 10.2146 9.37597 10.084 9.06906 10.0833C7.95119 10.0833 6.83356 10.0833 5.71616 10.0833C5.40785 10.0833 5.23477 10.2171 5.23407 10.4371C5.23337 10.6571 5.40504 10.7858 5.71546 10.7871C6.27182 10.7889 6.83099 10.7871 7.38946 10.7871H7.39156ZM6.78404 12.8495C7.15052 12.8495 7.51699 12.8495 7.88346 12.8495C8.17706 12.8464 8.33822 12.7208 8.34103 12.5039C8.34383 12.287 8.17776 12.1483 7.89187 12.1464C7.15892 12.1426 6.42621 12.1426 5.69374 12.1464C5.40645 12.1464 5.23687 12.2833 5.23407 12.4958C5.23127 12.7083 5.40014 12.8458 5.68463 12.8489C6.049 12.8526 6.41547 12.8495 6.78194 12.8495H6.78404Z" fill="white"/>
<path id="Vector_2" d="M21.7556 0.00062464C21.9132 0.0412486 22.073 0.0762477 22.2285 0.125621C23.2915 0.446238 23.9656 1.28372 23.9915 2.33806C24.0069 2.9468 23.9978 3.55616 23.9915 4.16552C23.9915 4.48676 23.8549 4.60301 23.501 4.60301C22.3126 4.60551 21.124 4.60551 19.9351 4.60301H19.6338V6.31671C19.9905 6.28359 20.3422 6.22671 20.6947 6.22296C21.6547 6.21234 22.6146 6.22296 23.5746 6.22796C23.8093 6.22796 23.96 6.34608 23.9712 6.55733C24.0413 7.90542 23.7498 9.14976 22.6728 10.1716C22.4401 10.3929 22.204 10.466 21.8586 10.3885C21.1964 10.2382 20.512 10.1808 19.83 10.2185C20.0907 10.4147 20.3254 10.5828 20.5475 10.7628C20.6617 10.8596 20.7652 10.9659 20.8565 11.0803C21.0499 11.3135 21.0107 11.5178 20.7283 11.6697C20.4473 11.827 20.1544 11.9667 19.8517 12.0878C19.6541 12.1634 19.6107 12.2628 19.6107 12.4403C19.6167 15.4948 19.6184 18.5491 19.6156 21.6032C19.6156 22.6163 19.1069 23.3531 18.0908 23.7944C17.8757 23.8881 17.6333 23.9325 17.4034 24H2.24425C1.88268 23.8706 1.48888 23.7875 1.16726 23.6031C0.390168 23.1588 0.0201919 22.4869 0.0061777 21.6657C-0.00433297 21.0563 0.000572009 20.447 0.0061777 19.8376C0.0061777 19.5157 0.141415 19.4001 0.496676 19.4001C1.04603 19.397 1.59609 19.4001 2.1917 19.4001V9.18226C2.1917 8.81102 2.32553 8.6329 2.59811 8.64102C2.87068 8.64915 2.97929 8.81477 2.97929 9.17976V19.3976H3.2848C3.99252 19.3976 4.70094 19.3976 5.40866 19.3976C5.70856 19.3976 5.86763 19.5226 5.87253 19.7376C5.87744 19.9526 5.70646 20.1001 5.40095 20.1007C3.98458 20.1036 2.56844 20.1036 1.15254 20.1007H0.807792C0.802887 20.1945 0.793776 20.2757 0.793776 20.3576C0.793776 20.787 0.786069 21.2169 0.793776 21.6463C0.814798 22.6094 1.56876 23.2906 2.63384 23.2919C6.75076 23.2961 10.8677 23.2961 14.9846 23.2919C15.0266 23.2919 15.0694 23.2881 15.1114 23.2869C15.1149 23.2663 15.1247 23.2463 15.1184 23.2394C14.6132 22.7138 14.4226 22.1013 14.4555 21.4163C14.4766 20.9888 14.4597 20.5601 14.4597 20.0989H7.21439C6.86404 20.0989 6.67344 19.9739 6.66924 19.7464C6.66503 19.5189 6.85142 19.3932 7.20318 19.3932H13.0765C13.6371 19.3932 14.1977 19.3932 14.7582 19.3932C15.1135 19.3932 15.2487 19.5151 15.2487 19.8307C15.2487 20.4476 15.2445 21.0651 15.2487 21.6819C15.2444 22.0789 15.4063 22.4631 15.7028 22.7592C15.9993 23.0553 16.409 23.2421 16.8518 23.2829C17.2946 23.3237 17.7385 23.2157 18.0966 22.9799C18.4547 22.7441 18.7013 22.3976 18.788 22.0082C18.8149 21.8847 18.8269 21.759 18.8238 21.6332C18.8238 18.6258 18.8238 15.6183 18.8238 12.6109C18.8242 12.5782 18.8226 12.5454 18.8189 12.5128C18.5911 12.4241 18.3984 12.3591 18.2156 12.2766C17.854 12.1147 17.498 11.9428 17.1393 11.7766L17.0846 11.8391C17.1666 11.9797 17.2514 12.1191 17.3306 12.2603C17.5408 12.6397 17.3621 12.8909 16.887 12.874C15.3738 12.8096 13.8598 12.9878 12.4172 13.4003C10.9982 13.8121 9.73275 14.4502 8.72372 15.4527C8.64309 15.5334 8.58075 15.6272 8.54014 15.729C8.28788 16.3683 8.04964 17.0121 7.79598 17.652C7.7609 17.7555 7.70115 17.8511 7.62081 17.932C7.56253 17.9871 7.48331 18.0207 7.39867 18.0264C7.31403 18.0321 7.23007 18.0093 7.16324 17.9627C6.99016 17.8583 6.94462 17.7083 7.01259 17.5308C7.24382 16.9264 7.47155 16.3202 7.70769 15.7183C8.87438 12.7359 10.8609 10.2897 13.7338 8.43978C15.1858 7.50937 16.8337 6.85036 18.5785 6.50233C18.6542 6.48671 18.7285 6.46546 18.8245 6.43983V2.53993C18.8245 1.7387 18.9646 1.37121 19.5252 0.716856C19.4236 0.711857 19.3437 0.704356 19.2645 0.704356C18.2506 0.704356 17.2367 0.704356 16.2227 0.704356C16.0006 0.704356 15.8023 0.687482 15.7063 0.470613C15.6103 0.253743 15.7645 0.121247 15.9319 0L21.7556 0.00062464ZM16.3601 12.1566C16.2164 11.9522 16.0749 11.7916 15.9852 11.6103C15.9185 11.4823 15.8989 11.3389 15.9291 11.2003C15.9803 11.0297 16.1723 11.0047 16.3608 11.0085C17.1519 11.0247 17.8638 11.2585 18.5295 11.6241C18.6059 11.6659 18.7173 11.7234 18.7838 11.7016C19.1818 11.5766 19.5707 11.426 20.0017 11.271C19.5672 10.896 19.1097 10.6778 18.6437 10.4635C18.5073 10.3916 18.4053 10.2775 18.3571 10.1429C18.2996 9.97411 18.4391 9.84287 18.6108 9.7785C18.8311 9.68596 19.0621 9.61492 19.2996 9.56663C20.1733 9.42288 21.0387 9.53288 21.9027 9.66162C21.958 9.66662 22.0139 9.66113 22.0667 9.64551C22.1194 9.62989 22.1679 9.6045 22.2089 9.571C22.7372 9.06226 22.9993 8.43853 23.1198 7.76417C23.1696 7.48418 23.185 7.20169 23.2165 6.90732C20.3065 6.73857 17.601 7.18606 15.1107 8.49415C12.6372 9.79287 10.8364 11.6516 9.4861 13.8884C11.5532 12.6534 13.8733 12.2066 16.3587 12.1566H16.3601ZM23.185 3.88365C23.185 3.28866 23.2235 2.70305 23.1752 2.12432C23.1051 1.32496 22.3413 0.721231 21.4535 0.705606C20.5657 0.689982 19.7592 1.25372 19.6583 2.04682C19.5883 2.60181 19.624 3.16742 19.6142 3.72803C19.6174 3.78035 19.6251 3.83238 19.6373 3.88365H23.185Z" fill="white"/>
<path id="Vector_3" d="M14.6225 0.000488281C14.8088 0.111735 14.9504 0.250482 14.8656 0.465476C14.7808 0.680471 14.5783 0.70547 14.3527 0.70547C11.2228 0.70297 8.09303 0.70297 4.9632 0.70547C3.71033 0.70547 2.98018 1.36045 2.98018 2.48293C2.98018 4.13122 2.98018 5.77951 2.98018 7.4278C2.98824 7.5134 2.98163 7.59959 2.96056 7.68341C2.9396 7.76047 2.88779 7.82803 2.81487 7.87339C2.74195 7.91874 2.65296 7.93875 2.56465 7.92966C2.36145 7.91903 2.24583 7.81091 2.20379 7.64279C2.19078 7.56545 2.18725 7.48707 2.19328 7.40905C2.19328 5.76076 2.19328 4.11247 2.19328 2.46418C2.19328 1.16921 2.96406 0.31298 4.3774 0.0329877C4.40219 0.0256338 4.42576 0.0153326 4.44747 0.00236316L14.6225 0.000488281Z" fill="white"/>
<path id="Vector_4" d="M10.8104 6.66524H5.85488C5.75881 6.669 5.66255 6.6665 5.56689 6.65774C5.47803 6.65143 5.39493 6.61602 5.33361 6.55832C5.27228 6.50062 5.23707 6.42472 5.23475 6.34524C5.21932 6.26668 5.23816 6.18582 5.2874 6.11924C5.33665 6.05266 5.41257 6.00539 5.49962 5.98713C5.60075 5.96422 5.70511 5.95474 5.80934 5.959C9.1564 5.959 12.5037 5.959 15.8513 5.959C15.8954 5.959 15.9389 5.959 15.9823 5.959C16.2626 5.96963 16.442 6.11025 16.4392 6.31774C16.4364 6.52524 16.264 6.66274 15.9753 6.66336C14.5332 6.66336 13.0912 6.66336 11.6491 6.66336L10.8104 6.66524Z" fill="white"/>
<path id="Vector_5" d="M10.8091 4.60296H5.85362C5.76624 4.60558 5.67877 4.60412 5.59156 4.59859C5.50007 4.59218 5.41411 4.55703 5.34896 4.49939C5.28382 4.44174 5.24372 4.36535 5.23582 4.28381C5.22791 4.20226 5.25271 4.12086 5.30579 4.0541C5.35887 3.98734 5.4368 3.93954 5.52569 3.91923C5.6282 3.90039 5.73301 3.89346 5.83751 3.8986C9.16729 3.8986 12.4971 3.8986 15.8268 3.8986C15.9474 3.8986 16.1015 3.88235 16.1772 3.93985C16.2914 4.02235 16.4056 4.15922 16.421 4.28297C16.4421 4.44859 16.3019 4.56984 16.1008 4.59546C16.014 4.60308 15.9267 4.60537 15.8395 4.60234L10.8091 4.60296Z" fill="white"/>
<path id="Vector_6" d="M8.82101 8.72494C7.80031 8.72494 6.77914 8.72494 5.7575 8.72494C5.40715 8.72494 5.22566 8.60307 5.23057 8.36995C5.23547 8.13683 5.41205 8.02246 5.74559 8.02246C7.7884 8.02246 9.83073 8.02246 11.8726 8.02246C12.2125 8.02246 12.3982 8.16058 12.3848 8.39745C12.3729 8.61057 12.2104 8.72682 11.9105 8.72682C10.8813 8.72723 9.85152 8.72661 8.82101 8.72494Z" fill="white"/>
<path id="Vector_7" d="M13.0244 16.9728C12.0371 16.9728 11.0491 16.9797 10.0618 16.9641C9.98376 16.9581 9.90783 16.9385 9.83834 16.9063C9.76884 16.8741 9.70714 16.83 9.65676 16.7766C9.5951 16.706 9.60561 16.501 9.67568 16.441C9.80051 16.3407 9.96055 16.2824 10.1284 16.276C11.5354 16.2641 12.9424 16.2691 14.3495 16.2691H15.8973C16.2477 16.2691 16.4383 16.3941 16.4425 16.6178C16.4467 16.8416 16.2589 16.9734 15.9093 16.9734C14.946 16.9739 13.9844 16.9737 13.0244 16.9728Z" fill="white"/>
<path id="Vector_8" d="M14.1773 14.9103C13.5838 14.9103 12.9903 14.9103 12.3968 14.9103C12.0906 14.9103 11.9098 14.7785 11.9063 14.5641C11.9028 14.3497 12.0892 14.2091 12.3891 14.2085C13.5761 14.2085 14.7629 14.2085 15.9494 14.2085C16.2521 14.2085 16.4399 14.3447 16.4399 14.5585C16.4399 14.7722 16.2612 14.9091 15.9564 14.9103C15.3636 14.9116 14.7701 14.9103 14.1773 14.9103Z" fill="white"/>
<path id="Vector_9" d="M7.38894 10.7872C6.82837 10.7872 6.2678 10.7872 5.71284 10.7872C5.40242 10.7872 5.23075 10.6585 5.23145 10.4372C5.23215 10.216 5.40522 10.0841 5.71353 10.0835C6.8314 10.0835 7.94904 10.0835 9.06644 10.0835C9.37335 10.0835 9.54572 10.2179 9.54572 10.4385C9.54572 10.6591 9.37966 10.786 9.06504 10.7872C8.50657 10.7891 7.9474 10.7872 7.38894 10.7872Z" fill="white"/>
<path id="Vector_10" d="M6.78145 12.8498C6.41498 12.8498 6.04851 12.8529 5.68204 12.8498C5.39755 12.8467 5.22868 12.7098 5.23148 12.4967C5.23428 12.2836 5.40385 12.1486 5.69115 12.1473C6.42409 12.1436 7.1568 12.1436 7.88928 12.1473C8.17517 12.1473 8.34053 12.2879 8.33843 12.5048C8.33633 12.7217 8.17447 12.8473 7.88087 12.8504C7.5144 12.8523 7.14792 12.8498 6.78145 12.8498Z" fill="white"/>
</g>
<defs>
<clipPath id="clip0_970_3628">
<rect width="24" height="24" fill="white"/>
</clipPath>
</defs>
</svg>
