<svg width="65" height="88" viewBox="0 0 65 88" fill="none" xmlns="http://www.w3.org/2000/svg">
<g clip-path="url(#clip0_183_5556)">
<path d="M32.6262 0C21.6246 15.5696 10.9867 30.6122 0.00741577 46.1447C3.45933 46.1447 5.99074 46.9388 8.02478 43.9629C15.2701 33.3729 22.7752 22.961 30.1987 12.4898C30.9411 11.4434 31.7502 10.4564 32.5965 9.36549C38.9955 17.0612 38.9955 17.0612 43.8356 15.8442L32.6262 0ZM65 42.3006C61.0804 41.3878 58.549 41.9147 56.2997 45.3655C50.9919 53.5288 45.1645 61.3506 39.5226 69.3061C37.3401 72.3859 35.1205 75.4434 32.6188 78.9536C30.9856 76.6753 29.9834 74.3228 28.2092 73.0686C26.435 71.8145 24.0372 71.8293 21.8993 71.2801L21.5355 72.3265L32.6707 88L65 42.3006ZM19.6499 44.0074C26.7913 45.2542 31.2751 49.128 32.6559 56.5492C33.955 48.846 38.9065 45.4174 45.7064 43.8738C38.2309 42.8646 34.0367 38.679 32.5668 31.3544C31.2751 38.9759 26.8581 42.6865 19.6499 43.9926V44.0074Z" fill="white"/>
<path d="M32.6262 0L43.806 15.8442C38.9658 17.0612 38.9658 17.0612 32.5668 9.36549C31.7205 10.4564 30.9114 11.4434 30.169 12.4898C22.7455 22.961 15.2404 33.3729 7.99508 43.9629C5.96105 46.9314 3.42964 46.115 -0.0222778 46.1447C10.9867 30.6122 21.6246 15.5696 32.6262 0Z" fill="white"/>
<path d="M65 42.2857L32.6707 88L21.5355 72.3265L21.9364 71.2356C24.0744 71.7848 26.5612 71.8293 28.2464 73.0241C29.9315 74.2189 31.0227 76.6308 32.6559 78.9091C35.1576 75.4286 37.3772 72.3711 39.5597 69.2616C45.1942 61.3061 51.029 53.4842 56.3368 45.321C58.549 41.8998 61.0804 41.3729 65 42.2857Z" fill="white"/>
<path d="M19.65 43.9926C26.8582 42.7161 31.2751 38.9462 32.5668 31.3766C34.0515 38.7161 38.2309 42.8868 45.7064 43.8961C38.9065 45.4694 33.955 48.8683 32.6559 56.5714C31.2751 49.1132 26.7914 45.2393 19.65 43.9926Z" fill="white"/>
</g>
<defs>
<clipPath id="clip0_183_5556">
<rect width="65" height="88" fill="white"/>
</clipPath>
</defs>
</svg>
