<svg width="24" height="24" viewBox="0 0 24 24" fill="none" xmlns="http://www.w3.org/2000/svg">
<g id="Component 13 1" clip-path="url(#clip0_970_3643)">
<path id="Vector" d="M8.02506 20.5753L7.36336 21.2238C7.4969 21.3444 7.63044 21.457 7.7513 21.5777C8.63268 22.4441 8.62867 22.3481 7.74396 23.2218C7.56033 23.4038 7.37872 23.5877 7.19577 23.7696C6.88996 24.0735 6.71902 24.0755 6.41788 23.775C5.8165 23.1747 5.21556 22.5749 4.61506 21.9755C4.54829 21.9089 4.48152 21.8509 4.40807 21.7756C4.3413 21.8389 4.27453 21.8909 4.22045 21.9482C3.61283 22.5547 3.00588 23.1614 2.3996 23.7683C2.08777 24.0795 1.92151 24.0775 1.60435 23.7603C1.14452 23.3009 0.684689 22.8413 0.224859 22.3814C-0.076279 22.0795 -0.0756116 21.9102 0.230868 21.6036C3.62284 18.2105 7.01548 14.8178 10.4088 11.4255C10.4756 11.3588 10.561 11.3002 10.6538 11.2255C10.2332 10.817 10.0282 10.3725 10.0896 9.82598C10.1275 9.45767 10.3026 9.11701 10.5804 8.87161C11.2094 8.30112 12.0273 8.34977 12.8626 9.07155C12.9788 8.92293 13.0917 8.75898 13.2252 8.61436C13.3587 8.46974 13.5043 8.35644 13.6599 8.21448C11.6895 7.34075 10.6412 5.8992 10.8435 3.76454C11.0184 1.92378 12.1181 0.753473 13.8822 0.14033C13.9583 0.402915 14.0278 0.644839 14.1026 0.904758C14.0358 0.933416 13.9797 0.962074 13.9203 0.982735C12.4413 1.49591 11.4992 2.89947 11.6067 4.43299C11.6583 5.18224 11.957 5.89333 12.4563 6.45519C12.9556 7.01706 13.6272 7.39806 14.3663 7.53869C14.5753 7.58001 14.7583 7.63466 14.8237 7.86126C14.8891 8.08786 14.7489 8.21981 14.61 8.35777C14.2027 8.76231 13.7974 9.16885 13.4122 9.5534L14.4718 10.6117C14.598 10.4711 14.7583 10.2838 14.9292 10.1059C15.1662 9.85997 15.412 9.62271 15.6523 9.37945C15.7905 9.2395 15.9308 9.10887 16.1518 9.17952C16.3728 9.25016 16.4189 9.42211 16.4583 9.62204C16.5563 10.1448 16.7762 10.6372 17.1002 11.0595C17.4242 11.4818 17.8431 11.8221 18.3232 12.0529C18.8032 12.2837 19.331 12.3986 19.8637 12.3882C20.3965 12.3778 20.9193 12.2425 21.39 11.9932C21.8607 11.7439 22.266 11.3876 22.5733 10.9531C22.8805 10.5185 23.081 10.0179 23.1586 9.49174C23.2362 8.96555 23.1887 8.42853 23.02 7.92404C22.8512 7.41956 22.566 6.96177 22.1872 6.58766C21.8153 6.21977 21.822 6.06582 22.2233 5.72126C22.515 5.47018 22.7517 5.16174 22.9185 4.81522C23.0853 4.4687 23.1788 4.09154 23.193 3.70734C23.2071 3.32314 23.1417 2.94015 23.0009 2.58232C22.86 2.22448 22.6467 1.8995 22.3743 1.62769C22.1019 1.35588 21.7762 1.14309 21.4177 1.00261C21.0591 0.862139 20.6754 0.797003 20.2905 0.811281C19.9056 0.825559 19.5277 0.918942 19.1806 1.08559C18.8335 1.25224 18.5245 1.48858 18.2731 1.77982C17.9359 2.1757 17.7837 2.1797 17.4051 1.80714C16.8007 1.19754 15.9868 0.840147 15.1282 0.807456L14.9399 0.797458V0.00237269C16.0303 -0.00695773 16.9777 0.363594 17.811 1.08137C18.6263 0.294949 19.5932 -0.0822675 20.7183 0.0150356C21.6301 0.0872031 22.4773 0.513352 23.0779 1.202C24.2411 2.4896 24.4134 4.62227 22.925 6.17578C23.9112 7.37941 24.2605 8.73432 23.7984 10.2479C23.4565 11.3595 22.7441 12.1806 21.7185 12.7244C19.5818 13.8574 16.7427 12.9084 15.8226 10.3991L15.0127 11.2262C15.032 11.2495 15.0794 11.3062 15.1248 11.3595C15.6917 12 15.6684 12.9204 15.0714 13.5008C14.4745 14.0813 13.5504 14.0833 12.9314 13.4882C12.3912 12.969 11.8684 12.4305 11.3376 11.9013C11.2975 11.8613 11.2534 11.8254 11.2301 11.804L1.05082 21.9849L2.03369 22.9652C5.22535 19.7716 8.44572 16.5503 11.6948 13.3016L12.229 13.8707L8.53987 17.5596C8.64203 17.6675 8.70145 17.7329 8.76355 17.7955C9.36983 18.4029 9.97634 19.0098 10.5831 19.6163C10.8762 19.9102 10.8775 20.0868 10.5897 20.3767C10.2434 20.725 9.89577 21.0725 9.54678 21.419C9.29772 21.6643 9.10275 21.6643 8.8557 21.419C8.57993 21.1411 8.30751 20.8625 8.02506 20.5753ZM7.44349 22.3801C7.14902 22.0935 6.86725 21.8242 6.59149 21.549C6.33508 21.2924 6.33642 21.1011 6.59149 20.8432C6.92534 20.5067 7.2592 20.1721 7.59305 19.8369C7.92691 19.5016 8.08048 19.5096 8.40566 19.8369C8.66807 20.0994 8.92848 20.364 9.16151 20.5993L9.76646 20.0308L7.99568 18.2467L5.05775 21.1838L6.8352 22.9879L7.44349 22.3801ZM14.7289 12.2732C14.6741 12.1819 14.5953 11.974 14.4531 11.828C13.6986 11.0523 12.9294 10.2912 12.1622 9.52807C11.8324 9.20018 11.3937 9.18352 11.0939 9.47742C10.7941 9.77133 10.8007 10.2245 11.1366 10.5644C11.5112 10.9436 11.8891 11.3189 12.2664 11.6974C12.6723 12.1033 13.0756 12.5125 13.4869 12.9137C13.5881 13.0204 13.7204 13.0924 13.865 13.1196C14.0096 13.1467 14.1591 13.1276 14.2922 13.065C14.562 12.9517 14.7329 12.6824 14.7289 12.2732Z" fill="white"/>
<path id="Vector_2" d="M14.9959 2.00197C15.4325 2.00012 15.8598 2.12778 16.2236 2.36873C16.5873 2.60968 16.8712 2.95307 17.0391 3.35532C17.2071 3.75757 17.2515 4.20055 17.1668 4.62805C17.082 5.05554 16.872 5.44828 16.5633 5.75642C16.2546 6.06456 15.8611 6.27421 15.4328 6.35877C15.0045 6.44334 14.5607 6.399 14.1577 6.23138C13.7547 6.06377 13.4106 5.78043 13.1692 5.41733C12.9278 5.05422 12.7999 4.62773 12.8018 4.19195C12.8042 3.61189 13.0362 3.05628 13.4471 2.64611C13.8581 2.23594 14.4147 2.00442 14.9959 2.00197ZM13.6017 4.19062C13.6003 4.46665 13.6808 4.73691 13.8332 4.96726C13.9856 5.19761 14.2029 5.37771 14.4578 5.48479C14.7127 5.59188 14.9937 5.62116 15.2653 5.56892C15.5368 5.51668 15.7868 5.38527 15.9835 5.1913C16.1803 4.99733 16.315 4.7495 16.3707 4.47913C16.4264 4.20875 16.4006 3.92796 16.2965 3.67224C16.1923 3.41652 16.0146 3.19734 15.7857 3.0424C15.5569 2.88745 15.2871 2.8037 15.0106 2.80172C14.6394 2.79994 14.2826 2.94515 14.0185 3.20551C13.7544 3.46587 13.6045 3.82013 13.6017 4.19062Z" fill="white"/>
<path id="Vector_3" d="M17.5996 8.99146C17.6021 8.55704 17.7338 8.13315 17.9779 7.77347C18.222 7.41378 18.5675 7.1345 18.9707 6.97098C19.374 6.80746 19.8167 6.76707 20.243 6.85491C20.6692 6.94276 21.0598 7.1549 21.3651 7.46446C21.6705 7.77402 21.877 8.16707 21.9583 8.59383C22.0397 9.02059 21.9924 9.46186 21.8223 9.86175C21.6523 10.2617 21.3671 10.6022 21.003 10.8402C20.6389 11.0782 20.2122 11.203 19.777 11.1988C19.1958 11.1919 18.6408 10.9561 18.2329 10.5427C17.8251 10.1292 17.5975 9.57166 17.5996 8.99146ZM18.4009 8.97813C18.3973 9.25416 18.4759 9.52504 18.6265 9.75654C18.7772 9.98804 18.9932 10.1698 19.2473 10.2788C19.5014 10.3878 19.7822 10.4192 20.0541 10.3689C20.3261 10.3187 20.577 10.1891 20.7752 9.99659C20.9734 9.80406 21.11 9.55721 21.1677 9.28723C21.2254 9.01725 21.2016 8.73626 21.0994 8.47977C20.9971 8.22328 20.821 8.00279 20.5932 7.84618C20.3655 7.68957 20.0963 7.60387 19.8198 7.59989C19.4484 7.59508 19.0904 7.73749 18.8241 7.99588C18.5579 8.25426 18.4052 8.60751 18.3995 8.97813H18.4009Z" fill="white"/>
<path id="Vector_4" d="M20.3894 2.00151C20.7063 1.99915 21.0167 2.0906 21.2815 2.2643C21.5463 2.43799 21.7535 2.68614 21.8771 2.97737C22.0006 3.26861 22.0349 3.58986 21.9755 3.90053C21.9162 4.2112 21.7659 4.49733 21.5437 4.72277C21.3215 4.94821 21.0373 5.10283 20.727 5.1671C20.4168 5.23137 20.0944 5.20239 19.8007 5.08384C19.5069 4.96528 19.255 4.76247 19.0767 4.50103C18.8984 4.23959 18.8017 3.93126 18.7989 3.61501C18.7971 3.40479 18.8368 3.19627 18.9157 3.00138C18.9947 2.80648 19.1114 2.62903 19.2591 2.47917C19.4068 2.32932 19.5827 2.21 19.7766 2.12804C19.9706 2.04608 20.1788 2.00308 20.3894 2.00151ZM20.3954 2.80126C20.2365 2.80128 20.0812 2.84844 19.9493 2.93677C19.8173 3.0251 19.7146 3.1506 19.6543 3.29732C19.5939 3.44404 19.5787 3.60535 19.6104 3.76075C19.6421 3.91615 19.7194 4.05863 19.8325 4.17007C19.9456 4.28151 20.0893 4.35688 20.2453 4.3866C20.4014 4.41632 20.5628 4.39905 20.7091 4.33698C20.8553 4.27492 20.9797 4.17085 21.0665 4.03803C21.1534 3.9052 21.1987 3.74961 21.1967 3.59102C21.1941 3.38065 21.1085 3.17979 20.9585 3.03196C20.8085 2.88413 20.6062 2.80125 20.3954 2.80126Z" fill="white"/>
</g>
<defs>
<clipPath id="clip0_970_3643">
<rect width="24" height="24" fill="white"/>
</clipPath>
</defs>
</svg>
