<svg width="24" height="31" viewBox="0 0 24 31" fill="none" xmlns="http://www.w3.org/2000/svg">
<g clip-path="url(#clip0_154_9078)">
<path d="M4.936 9.87867H1.98242V17.442C1.98242 17.5255 1.98242 17.6089 1.98242 17.6923C1.97408 18.0211 1.83474 18.2063 1.59361 18.1863C1.29992 18.1604 1.23233 17.9568 1.23317 17.699C1.23317 16.5309 1.23317 15.3628 1.23317 14.1947V9.90871C1.08382 9.88201 0.961173 9.86616 0.841027 9.83862C0.611081 9.78697 0.404632 9.66081 0.253755 9.47976C0.102879 9.29871 0.0160233 9.0729 0.0066796 8.83741C-0.00333256 8.62882 0.0066796 8.42023 0.0066796 8.21165C0.0066796 7.29386 0.294524 6.96012 1.20063 6.81995C1.28406 6.34104 1.33246 5.85628 1.44676 5.38571C1.81228 3.86468 2.67617 2.50966 3.90088 1.5364C5.12558 0.563134 6.64069 0.0275841 8.20498 0.0150177C10.723 -0.00166929 13.2414 -0.00166929 15.76 0.0150177C19.4895 0.0367107 22.5107 2.90937 22.7527 6.64307C22.7527 6.69397 22.7635 6.74486 22.771 6.81495C22.8761 6.83247 22.9754 6.84582 23.0739 6.86418C23.3343 6.90282 23.5717 7.03484 23.742 7.23563C23.9122 7.43643 24.0036 7.69229 23.9992 7.9555C24.0042 8.19496 23.9992 8.43525 23.9992 8.67471C23.995 9.37973 23.6504 9.77605 22.9529 9.88034L22.786 9.90537V21.708C22.8306 21.7265 22.8767 21.7413 22.9237 21.7523C23.6746 21.8666 23.9958 22.2379 23.9992 22.9904C23.9992 23.199 23.9992 23.4076 23.9992 23.6162C23.9917 24.2837 23.6087 24.7092 22.9471 24.7843C22.8962 24.7893 22.8461 24.7976 22.7685 24.8085V25.1856C22.7685 26.8543 22.7685 28.523 22.7685 30.1917C22.7685 30.7148 22.6851 30.7966 22.1761 30.7966H1.81804C1.32328 30.7966 1.234 30.709 1.234 30.2125C1.234 28.5333 1.234 26.8543 1.234 25.1756V24.8502C0.96701 24.7609 0.725882 24.7175 0.523136 24.6049C0.365816 24.5201 0.234553 24.394 0.143422 24.2403C0.0522909 24.0866 0.0047335 23.9109 0.00584444 23.7322C-0.00249903 23.4719 0.00584444 23.2107 0.00584444 22.9504C0.0102943 22.2429 0.36016 21.8446 1.05545 21.7556C1.10468 21.7489 1.15391 21.7381 1.23734 21.7231C1.23734 21.4778 1.23734 21.24 1.23734 21.003C1.23734 20.7661 1.33162 20.5858 1.59277 20.5808C1.87228 20.5725 1.97574 20.7536 1.98242 21.0039C1.98826 21.2325 1.98242 21.4611 1.98242 21.7339H4.93683L4.936 9.87867ZM10.1849 4.51632V26.2769H13.7726V4.51632H10.1849ZM9.40143 4.50381C9.03515 4.50381 8.73395 4.50381 8.43442 4.50381C6.77657 4.50881 5.70693 5.58095 5.7061 7.24797C5.7061 13.4811 5.7061 19.714 5.7061 25.9465V26.2803H9.40226L9.40143 4.50381ZM4.95269 6.85249C4.96354 6.8016 4.98356 6.73318 4.99274 6.6631C5.208 5.00859 6.53044 3.77876 8.18828 3.76374C10.728 3.73927 13.2675 3.73927 15.8067 3.76374C17.3503 3.77709 18.6118 4.84172 18.9539 6.35022C18.9923 6.51709 19.0148 6.6948 19.0373 6.84165H21.9809C21.9809 6.65976 21.9934 6.51458 21.9809 6.37274C21.6613 3.25312 18.9772 0.790961 15.8418 0.76593C13.302 0.745072 10.7631 0.749243 8.22333 0.76593C6.81571 0.775954 5.45225 1.2584 4.35158 2.13591C3.25091 3.01342 2.47682 4.23514 2.15345 5.60514C2.06001 6.00146 2.0283 6.41279 1.96238 6.85666L4.95269 6.85249ZM14.5677 4.4746V26.2844H18.2939C18.2939 25.8606 18.3123 25.4559 18.2856 25.0529C18.273 24.8843 18.2063 24.7242 18.0953 24.5966C17.4078 23.8849 16.7028 23.1907 16.0036 22.4898C15.3253 21.809 15.3228 21.2959 15.9936 20.6242C16.6995 19.9159 17.412 19.2133 18.1062 18.495C18.2141 18.3776 18.2779 18.2262 18.2864 18.067C18.2997 16.6386 18.2997 15.2101 18.2864 13.7817C18.278 13.6222 18.2143 13.4706 18.1062 13.3529C17.3886 12.612 16.6552 11.8878 15.9269 11.1569C15.3551 10.5834 15.3514 10.0133 15.916 9.44648C16.6511 8.70892 17.3903 7.97469 18.1187 7.23045C18.2105 7.13925 18.2657 7.01754 18.2739 6.88837C18.223 5.80372 17.4212 4.8025 16.349 4.59308C15.7658 4.47627 15.1543 4.50631 14.5677 4.4721V4.4746ZM19.0673 9.88117V21.7489H21.9984V9.87867L19.0673 9.88117ZM1.99994 28.0816H21.9909V24.7776H19.044C19.044 25.3375 19.044 25.909 19.044 26.4805C19.044 26.9478 18.9414 27.052 18.4791 27.052H5.51921C5.05865 27.052 4.95769 26.9478 4.95686 26.478C4.95686 25.9065 4.95686 25.335 4.95686 24.7868H2.00077L1.99994 28.0816ZM22.0084 28.8793H2.00077V30.0232H22.0084V28.8793ZM2.85514 7.59089C2.30364 7.59089 1.75296 7.58672 1.2023 7.59089C0.868557 7.59089 0.757597 7.7102 0.751756 8.04394C0.751756 8.26254 0.751756 8.48114 0.751756 8.69974C0.745081 8.97007 0.876065 9.11691 1.13888 9.12275C2.28194 9.12943 3.425 9.12943 4.56806 9.12275C4.83171 9.12275 4.96353 8.9709 4.95853 8.70558C4.95352 8.49699 4.95853 8.28841 4.95853 8.08065C4.95853 7.70436 4.8509 7.5959 4.47961 7.59339C3.93562 7.58839 3.39497 7.59089 2.85514 7.59089ZM21.1507 7.59089C20.6 7.59089 20.0485 7.59089 19.4979 7.59089C19.1641 7.59089 19.0515 7.7077 19.0448 8.04144C19.0448 8.27005 19.0448 8.4995 19.0448 8.72811C19.0448 8.98676 19.1825 9.12108 19.4269 9.12275C20.57 9.12887 21.7131 9.12887 22.8561 9.12275C23.1173 9.12275 23.2558 8.97591 23.2491 8.70558C23.2491 8.53871 23.2491 8.37184 23.2491 8.20497C23.2491 7.65764 23.1815 7.58922 22.6467 7.58839L21.1507 7.59089ZM2.85681 24.035C3.38662 24.035 3.91643 24.035 4.44707 24.035C4.85757 24.035 4.95269 23.9349 4.95602 23.5152C4.95602 23.3275 4.95602 23.1398 4.95602 22.9529C4.94851 22.6125 4.8509 22.5115 4.50298 22.5032C4.19177 22.4957 3.87972 22.5032 3.56768 22.5032C2.7884 22.5032 2.00912 22.5032 1.23151 22.5032C0.851044 22.5032 0.757589 22.6075 0.754251 22.9904C0.754251 23.1882 0.754251 23.3868 0.754251 23.5845C0.760092 23.9182 0.872733 24.0317 1.20731 24.0342C1.75547 24.04 2.30614 24.035 2.85681 24.035ZM21.1382 24.035H22.8211C23.0964 24.035 23.2508 23.9099 23.2491 23.6179C23.2491 23.3781 23.2491 23.1387 23.2491 22.8995C23.2491 22.6417 23.1156 22.5057 22.8686 22.504C21.7156 22.499 20.5622 22.499 19.4086 22.504C19.1783 22.504 19.0456 22.6383 19.0456 22.882C19.0456 23.1106 19.0456 23.34 19.0456 23.5686C19.0515 23.9207 19.1591 24.0284 19.5179 24.0309C20.0569 24.0401 20.5975 24.035 21.1382 24.0342V24.035ZM18.2747 8.17493C17.6072 8.84241 16.9564 9.46901 16.324 10.1123C16.1646 10.2742 16.2664 10.4377 16.4074 10.5754C16.7912 10.9575 17.1792 11.3363 17.5547 11.7268C17.7749 11.9554 17.9718 12.204 18.1846 12.4435L18.2781 12.3692L18.2747 8.17493ZM18.2856 19.4386C18.2161 19.484 18.1498 19.5338 18.087 19.588C17.5341 20.1398 16.9823 20.6924 16.4316 21.2458C16.1763 21.5036 16.1813 21.5979 16.4467 21.8674C16.989 22.4136 17.5335 22.9585 18.0803 23.5019C18.1456 23.5581 18.2142 23.6105 18.2856 23.6588V19.4386Z" fill="white"/>
<path d="M9.21536 15.8718C9.21536 16.3092 9.04205 16.7288 8.73337 17.0387C8.42469 17.3487 8.00578 17.5237 7.56836 17.5255C7.34732 17.5313 7.12735 17.4929 6.92135 17.4125C6.71536 17.3322 6.52748 17.2115 6.36876 17.0575C6.21004 16.9036 6.08366 16.7195 5.99705 16.516C5.91044 16.3126 5.86534 16.0939 5.8644 15.8728C5.86345 15.6517 5.90669 15.4326 5.99155 15.2284C6.07642 15.0242 6.20122 14.839 6.35862 14.6838C6.51602 14.5285 6.70285 14.4062 6.90815 14.3241C7.11346 14.2419 7.33309 14.2017 7.55417 14.2056C7.77337 14.2033 7.99081 14.2449 8.19369 14.3279C8.39658 14.4109 8.58082 14.5337 8.73559 14.6889C8.89036 14.8441 9.01253 15.0288 9.09492 15.2319C9.17732 15.435 9.21826 15.6526 9.21536 15.8718ZM7.56251 14.954C7.44214 14.9528 7.32273 14.9755 7.21122 15.0208C7.0997 15.0661 6.9983 15.1332 6.91291 15.218C6.82752 15.3029 6.75984 15.4038 6.71381 15.5151C6.66777 15.6263 6.64428 15.7456 6.64473 15.8659C6.64972 16.1028 6.74532 16.3288 6.91185 16.4973C7.07838 16.6659 7.30319 16.7642 7.53999 16.772C7.65972 16.7738 7.77861 16.752 7.88988 16.7077C8.00115 16.6635 8.10261 16.5978 8.18847 16.5144C8.27433 16.4309 8.3429 16.3313 8.39025 16.2214C8.43761 16.1114 8.46282 15.9932 8.46445 15.8734C8.46656 15.7535 8.44467 15.6343 8.40006 15.5229C8.35545 15.4115 8.28903 15.3101 8.20469 15.2248C8.12035 15.1394 8.0198 15.0718 7.90894 15.0259C7.79809 14.98 7.67917 14.9566 7.55918 14.9573L7.56251 14.954Z" fill="white"/>
</g>
<defs>
<clipPath id="clip0_154_9078">
<rect width="24" height="30.7958" fill="white"/>
</clipPath>
</defs>
</svg>
