<svg width="24" height="31" viewBox="0 0 24 31" fill="none" xmlns="http://www.w3.org/2000/svg">
<g clip-path="url(#clip0_181_4119)">
<path d="M12.2297 0.676453C12.5861 0.90807 12.9794 1.10263 13.2929 1.38443C14.5838 2.54252 15.9951 3.49524 17.6371 4.07351C18.867 4.5018 20.154 4.74074 21.4547 4.78226C22.9633 4.8394 23.9913 5.90638 23.9936 7.42193C23.9974 9.53506 24.0066 11.6482 23.9936 13.7613C23.963 17.191 22.9454 20.5381 21.0642 23.3972C19.1831 26.2562 16.519 28.5045 13.3949 29.8695C13.0292 30.0286 12.6567 30.1722 12.2872 30.3235H11.713C8.64134 29.187 6.04034 27.3743 3.97059 24.8064C1.63942 21.9088 0.266485 18.5959 0.0748403 14.8669C-0.057011 12.3075 0.0219476 9.73734 0.0089158 7.17178C0.0120513 7.08504 0.0228244 6.99874 0.0411107 6.91392C0.264185 5.67862 1.23007 4.82473 2.47346 4.78612C5.04609 4.70892 7.39412 3.95693 9.46848 2.39969C9.91999 2.06075 10.3301 1.66623 10.7717 1.31881C11.0691 1.08719 11.3941 0.889542 11.7069 0.677225L12.2297 0.676453ZM23.1825 11.1765H23.1342C23.1342 9.94116 23.1342 8.70586 23.1342 7.47057C23.1342 6.37734 22.485 5.69484 21.4102 5.65315C18.7011 5.55587 16.2274 4.7537 14.0426 3.11539C13.4761 2.68998 12.9518 2.20745 12.4075 1.75193C12.0817 1.47862 11.9016 1.48248 11.5796 1.76506C11.421 1.90403 11.2592 2.03914 11.1036 2.18197C8.68887 4.38594 5.85458 5.54403 2.60071 5.65623C1.52061 5.69484 0.86825 6.37734 0.867483 7.4644C0.867483 9.49105 0.841416 11.5177 0.878212 13.5436C0.89661 14.5334 0.940306 15.5394 1.12888 16.5075C2.32704 22.6384 5.84027 26.8879 11.526 29.3384C11.6788 29.4066 11.8442 29.4414 12.0114 29.4405C12.1786 29.4396 12.3436 29.4029 12.4957 29.333C14.58 28.4536 16.475 27.2808 18.0863 25.6688C20.902 22.8523 22.5861 19.4614 23.0116 15.4776C23.1618 14.0555 23.1304 12.6109 23.1825 11.1749V11.1765Z" fill="white"/>
<path d="M11.9992 4.89038C9.79686 6.91703 7.1652 7.83269 4.28747 8.15387C4.17402 8.16622 4.0575 8.18321 3.94558 8.19324C3.44884 8.23648 3.44884 8.23571 3.44807 8.75453C3.44807 8.93828 3.4565 9.12203 3.44807 9.30501C3.43121 9.5706 3.24416 9.74199 3.00115 9.73118C2.75815 9.72037 2.60177 9.55516 2.59487 9.29574C2.58567 8.94832 2.58184 8.60089 2.59487 8.25346C2.6171 7.73541 3.01649 7.37795 3.59142 7.34012C5.10161 7.24689 6.58855 6.92009 8.00001 6.37118C9.27023 5.87629 10.4216 5.18916 11.4159 4.24107C11.7907 3.88361 12.1863 3.86045 12.5389 4.19629C14.2369 5.81762 16.3013 6.65993 18.555 7.0946C19.1629 7.21196 19.7815 7.27526 20.4009 7.33317C21.0564 7.39416 21.4143 7.75471 21.4151 8.41405C21.4151 10.2091 21.4764 12.0064 21.4021 13.7976C21.1437 19.9926 18.2376 24.4883 12.7681 27.3086C12.2499 27.5758 11.767 27.5727 11.2411 27.3086C6.66923 25.028 3.8679 21.3702 2.83711 16.3354C2.56268 15.0043 2.57494 13.6509 2.5895 12.2991C2.5895 12.0095 2.5895 11.72 2.5895 11.4313C2.5895 11.0916 2.75202 10.9039 3.02645 10.9093C3.28632 10.9148 3.44654 11.1016 3.44807 11.4212C3.44807 12.1832 3.42354 12.9468 3.4542 13.7081C3.69338 19.6298 6.44232 23.9152 11.701 26.5644C11.7921 26.6154 11.8946 26.6421 11.9989 26.6421C12.1031 26.6421 12.2056 26.6154 12.2967 26.5644C16.5673 24.4798 19.2434 21.1106 20.2499 16.435C20.4615 15.4537 20.5128 14.4276 20.5412 13.4239C20.5872 11.7949 20.5481 10.1628 20.5596 8.53218C20.5596 8.27662 20.483 8.2164 20.2376 8.1971C17.4703 7.97475 14.8892 7.21504 12.6662 5.45861C12.4408 5.28181 12.2292 5.08725 11.9992 4.89038Z" fill="white"/>
<path d="M18.5466 17.1645C18.5203 17.2898 18.4855 17.4131 18.4423 17.5336C18.2783 17.9443 18.1089 18.3535 17.9302 18.758C17.6903 19.3039 17.2173 19.5193 16.6401 19.3896C16.5274 19.3641 16.3864 19.4351 16.2683 19.4869C16.2039 19.5147 16.1671 19.6011 16.1073 19.6475C15.8337 19.8598 15.6926 20.0775 15.8007 20.4743C15.9111 20.8959 15.6152 21.3236 15.1874 21.512C14.7495 21.7035 14.3069 21.8836 13.8597 22.0524C13.3507 22.2431 12.8448 22.0609 12.5818 21.5815C12.4822 21.3985 12.3641 21.3321 12.1709 21.356C12.0946 21.3661 12.0173 21.3661 11.941 21.356C11.6343 21.312 11.4159 21.3722 11.238 21.6826C11.0218 22.0601 10.5343 22.2007 10.1249 22.047C9.62437 21.8594 9.1284 21.6525 8.64929 21.4186C8.20467 21.2016 8.0069 20.7052 8.15025 20.218C8.20851 20.0196 8.17401 19.8868 8.01763 19.7664C7.94826 19.7147 7.88634 19.6537 7.83365 19.5849C7.65427 19.3448 7.46723 19.2344 7.133 19.3232C6.69222 19.4405 6.24607 19.1757 6.05979 18.7465C5.85818 18.2894 5.6765 17.82 5.50249 17.3568C5.41157 17.125 5.40895 16.8676 5.49513 16.634C5.58131 16.4004 5.75021 16.2071 5.96934 16.0914C6.14642 15.9918 6.22767 15.8814 6.19931 15.6814C6.18851 15.6046 6.18851 15.5266 6.19931 15.4498C6.24454 15.1294 6.17708 14.9039 5.85972 14.7186C5.49789 14.5086 5.36527 14.0153 5.51245 13.6161C5.69797 13.1112 5.90341 12.6125 6.13338 12.1261C6.23635 11.9109 6.41312 11.7404 6.63108 11.6462C6.84903 11.552 7.09346 11.5404 7.31928 11.6134C7.51245 11.6705 7.64967 11.6505 7.76926 11.4883C7.81813 11.4165 7.87879 11.3536 7.94864 11.3023C8.21694 11.1201 8.28823 10.9054 8.20927 10.5696C8.10425 10.1272 8.37332 9.68481 8.80337 9.49411C9.24952 9.2975 9.70104 9.11426 10.1579 8.94441C10.3872 8.85065 10.6429 8.84615 10.8752 8.93177C11.1076 9.01739 11.3 9.18702 11.4151 9.40764C11.5201 9.60066 11.6451 9.67555 11.8459 9.64775C11.9125 9.63849 11.9801 9.63849 12.0468 9.64775C12.3603 9.69022 12.5895 9.63386 12.7735 9.31113C12.9874 8.93746 13.4826 8.80544 13.8919 8.96062C14.3825 9.14592 14.8685 9.34665 15.3415 9.57827C15.5559 9.68116 15.7261 9.85865 15.8208 10.078C15.9155 10.2974 15.9282 10.5438 15.8566 10.7719C15.7938 10.9826 15.8291 11.1239 15.9969 11.2467C16.0361 11.2746 16.071 11.3081 16.1004 11.3463C16.312 11.6373 16.5381 11.7817 16.9437 11.6736C17.3492 11.5655 17.7762 11.8589 17.9555 12.2704C18.1513 12.7198 18.3332 13.1753 18.5013 13.637C18.5963 13.8723 18.6003 14.135 18.5126 14.3731C18.425 14.6113 18.2519 14.8079 18.0276 14.924C17.862 15.0174 17.7838 15.124 17.8084 15.31C17.8168 15.3772 17.8168 15.4452 17.8084 15.5123C17.7654 15.8466 17.8084 16.1076 18.1594 16.296C18.4354 16.4403 18.5351 16.76 18.5466 17.1645ZM14.867 20.0806L14.798 20.042C14.9276 19.8042 15.0364 19.5525 15.192 19.334C15.3177 19.1564 15.5056 19.0252 15.652 18.863C15.9762 18.5148 16.3595 18.3759 16.8179 18.5303C16.9966 18.5913 17.0885 18.5303 17.1545 18.3759C17.3124 17.9898 17.468 17.61 17.6343 17.2317C17.7033 17.0773 17.6627 16.9723 17.5217 16.8974C17.0686 16.658 16.903 16.2689 16.9322 15.771C16.9421 15.5887 16.9322 15.405 16.9322 15.2212C16.9322 14.7804 17.0985 14.4299 17.4941 14.2237C17.6926 14.1203 17.7187 13.9921 17.6343 13.8007C17.4887 13.4656 17.3469 13.1282 17.2281 12.7831C17.146 12.5468 17.0188 12.4974 16.7919 12.5646C16.4086 12.6781 16.0751 12.5646 15.7953 12.289C15.6297 12.1291 15.4772 11.9554 15.3116 11.7948C14.9789 11.4721 14.8463 11.0907 14.995 10.6368C15.0609 10.4399 14.9889 10.3511 14.8218 10.2816C14.4507 10.1272 14.0805 9.97279 13.7148 9.80834C13.5615 9.7404 13.4557 9.76665 13.3806 9.91257C13.1384 10.3828 12.742 10.5472 12.2392 10.514C12.0774 10.5032 11.9141 10.5086 11.7516 10.514C11.2917 10.5233 10.9306 10.3519 10.716 9.92801C10.6278 9.7543 10.5113 9.71955 10.3411 9.79136C9.9793 9.94577 9.61748 10.0932 9.25259 10.2353C9.07781 10.3032 9.01341 10.409 9.06937 10.5928C9.21656 11.0761 9.05098 11.4582 8.69145 11.781C8.56343 11.896 8.44308 12.0203 8.32503 12.1461C8.0069 12.4851 7.62821 12.6194 7.18206 12.4719C6.99118 12.4094 6.89689 12.4719 6.82714 12.6403C6.67382 13.0139 6.52051 13.3884 6.35799 13.7574C6.28133 13.925 6.3235 14.0284 6.47834 14.1118C6.90533 14.3434 7.07627 14.7109 7.05634 15.188C7.04791 15.3903 7.05634 15.5926 7.05634 15.7957C7.05634 16.2249 6.88846 16.5677 6.50517 16.7715C6.29436 16.8827 6.26983 17.0093 6.36029 17.2155C6.50747 17.5498 6.64469 17.8887 6.76657 18.233C6.84323 18.4562 6.96972 18.5033 7.18436 18.44C7.59065 18.3195 7.9356 18.4477 8.22767 18.7442C8.38099 18.8986 8.5343 19.063 8.68762 19.2182C9.01111 19.5347 9.13913 19.913 8.99425 20.3485C8.92526 20.5577 8.99962 20.6496 9.17899 20.7222C9.54235 20.8696 9.90341 21.0225 10.2599 21.1854C10.4224 21.2587 10.5312 21.2317 10.614 21.0727C10.844 20.628 11.2219 20.455 11.7056 20.4844C11.8674 20.4929 12.0307 20.4936 12.1932 20.4844C12.6746 20.4658 13.054 20.6388 13.2786 21.0835C13.3607 21.2464 13.4757 21.2773 13.6328 21.2116C13.9065 21.0989 14.1817 20.9878 14.4553 20.8758C14.9214 20.6851 14.9214 20.6851 14.8685 20.1948C14.8716 20.1578 14.8716 20.1184 14.8701 20.0806H14.867Z" fill="white"/>
<path d="M12.0859 19.08C11.1714 19.094 10.2863 18.7551 9.61208 18.1327C8.93786 17.5104 8.52563 16.6518 8.45995 15.7331C8.40338 14.834 8.68513 13.9464 9.2491 13.247C9.81307 12.5477 10.6179 12.0879 11.5033 11.9593C12.2857 11.8463 13.0831 12.0006 13.7682 12.3976C14.4532 12.7947 14.9864 13.4115 15.2825 14.1496C15.4358 14.5295 15.3745 14.7673 15.1016 14.8815C14.8425 14.9865 14.6416 14.8568 14.4883 14.4878C14.0345 13.3938 12.9552 12.7043 11.8375 12.7893C11.2701 12.8265 10.729 13.0439 10.292 13.4103C9.85495 13.7766 9.54447 14.2731 9.40514 14.8283C9.23613 15.4882 9.32098 16.1881 9.64268 16.7877C9.96438 17.3873 10.4992 17.8424 11.1399 18.0616C11.7756 18.2789 12.4691 18.2482 13.0835 17.9756C13.6979 17.703 14.1885 17.2084 14.4584 16.5893C14.4929 16.5121 14.5182 16.4264 14.5573 16.3492C14.6731 16.1176 14.8877 16.0265 15.1023 16.1114C15.1566 16.131 15.2063 16.1617 15.2482 16.2016C15.2902 16.2414 15.3235 16.2896 15.3461 16.343C15.3687 16.3964 15.3801 16.454 15.3796 16.512C15.379 16.5701 15.3666 16.6274 15.343 16.6804C14.9069 17.8825 14.0659 18.6415 12.844 18.9719C12.6859 19.0094 12.5256 19.0373 12.3641 19.0553C12.2499 19.0723 12.1349 19.0761 12.0859 19.08Z" fill="white"/>
</g>
<defs>
<clipPath id="clip0_181_4119">
<rect width="24" height="29.6471" fill="white" transform="translate(0 0.676453)"/>
</clipPath>
</defs>
</svg>
