<svg width="24" height="24" viewBox="0 0 24 24" fill="none" xmlns="http://www.w3.org/2000/svg">
<g clip-path="url(#clip0_1027_3884)">
<path d="M10.8105 6.66527H11.6514C13.0935 6.66527 14.5355 6.66527 15.9776 6.66527C16.2663 6.66527 16.4394 6.52902 16.4415 6.31965C16.4436 6.11029 16.2649 5.97154 15.9846 5.96091C15.9411 5.96091 15.8977 5.96091 15.8536 5.96091C12.5065 5.96091 9.1592 5.96091 5.81167 5.96091C5.70744 5.95665 5.60308 5.96613 5.50196 5.98904C5.4149 6.00731 5.33898 6.05457 5.28973 6.12115C5.24049 6.18773 5.22165 6.26859 5.23708 6.34715C5.2394 6.42663 5.27462 6.50254 5.33594 6.56023C5.39727 6.61793 5.48036 6.65334 5.56922 6.65965C5.66488 6.66841 5.76114 6.67091 5.85722 6.66715L10.8105 6.66527ZM10.8105 4.60283H15.8445C15.9316 4.60586 16.019 4.60357 16.1058 4.59595C16.3069 4.57033 16.4471 4.44908 16.426 4.28346C16.4106 4.15846 16.2964 4.02284 16.1822 3.94034C16.103 3.88284 15.9489 3.89909 15.8318 3.89909C12.5021 3.89909 9.17228 3.89909 5.8425 3.89909C5.738 3.89395 5.63319 3.90088 5.53068 3.91972C5.44179 3.94003 5.36386 3.98783 5.31078 4.05459C5.2577 4.12135 5.2329 4.20275 5.24081 4.2843C5.24872 4.36584 5.28881 4.44223 5.35396 4.49988C5.4191 4.55752 5.50507 4.59267 5.59655 4.59907C5.68376 4.6046 5.77123 4.60606 5.85861 4.60345L10.8105 4.60283ZM8.82052 8.72459C9.85057 8.72459 10.8804 8.72459 11.91 8.72459C12.2099 8.72459 12.3724 8.60835 12.3843 8.39523C12.3977 8.16086 12.212 8.02024 11.8721 8.02024C9.82931 8.02024 7.78697 8.02024 5.7451 8.02024C5.41156 8.02024 5.23498 8.14211 5.23008 8.36773C5.22517 8.59335 5.40386 8.72272 5.75701 8.72272C6.77912 8.7248 7.80029 8.72543 8.82052 8.72459ZM13.0248 16.9744C13.9862 16.9744 14.9475 16.9744 15.9089 16.9744C16.2593 16.9744 16.4471 16.8494 16.4422 16.6188C16.4373 16.3882 16.2474 16.2707 15.897 16.27H14.3477C12.9407 16.27 11.5337 16.265 10.1266 16.2769C9.95886 16.2834 9.79881 16.3417 9.67399 16.4419C9.60392 16.5044 9.5934 16.7069 9.65507 16.7775C9.70544 16.831 9.76715 16.8751 9.83664 16.9072C9.90614 16.9394 9.98207 16.959 10.0601 16.965C11.0474 16.9794 12.0354 16.9725 13.0248 16.9725V16.9744ZM14.1796 14.912C14.7724 14.912 15.3659 14.912 15.9594 14.912C16.2642 14.912 16.4443 14.777 16.4429 14.5601C16.4415 14.3432 16.2558 14.2107 15.9524 14.2101C14.7663 14.2101 13.5795 14.2101 12.392 14.2101C12.0921 14.2101 11.9065 14.352 11.9093 14.5657C11.9121 14.7795 12.0921 14.9107 12.3998 14.912C12.9905 14.9113 13.5854 14.9101 14.1775 14.9101L14.1796 14.912ZM7.39107 10.7871C7.95164 10.7871 8.50871 10.7871 9.06717 10.7871C9.38179 10.7871 9.54716 10.6621 9.54786 10.4383C9.54856 10.2146 9.37548 10.084 9.06857 10.0833C7.9507 10.0833 6.83307 10.0833 5.71567 10.0833C5.40736 10.0833 5.23428 10.2171 5.23358 10.4371C5.23288 10.6571 5.40455 10.7858 5.71497 10.7871C6.27133 10.7889 6.8305 10.7871 7.38897 10.7871H7.39107ZM6.78355 12.8495C7.15003 12.8495 7.5165 12.8495 7.88297 12.8495C8.17657 12.8464 8.33773 12.7208 8.34054 12.5039C8.34334 12.287 8.17727 12.1483 7.89138 12.1464C7.15843 12.1426 6.42572 12.1426 5.69325 12.1464C5.40596 12.1464 5.23638 12.2833 5.23358 12.4958C5.23078 12.7083 5.39965 12.8458 5.68414 12.8489C6.04851 12.8526 6.41498 12.8495 6.78145 12.8495H6.78355Z" fill="white"/>
<path d="M21.7556 0.00062464C21.9132 0.0412486 22.073 0.0762477 22.2285 0.125621C23.2915 0.446238 23.9656 1.28372 23.9915 2.33806C24.0069 2.9468 23.9978 3.55616 23.9915 4.16552C23.9915 4.48676 23.8549 4.60301 23.501 4.60301C22.3126 4.60551 21.124 4.60551 19.9351 4.60301H19.6338V6.31671C19.9905 6.28359 20.3422 6.22671 20.6947 6.22296C21.6547 6.21234 22.6146 6.22296 23.5746 6.22796C23.8093 6.22796 23.96 6.34608 23.9712 6.55733C24.0413 7.90542 23.7498 9.14976 22.6728 10.1716C22.4401 10.3929 22.204 10.466 21.8586 10.3885C21.1964 10.2382 20.512 10.1808 19.83 10.2185C20.0907 10.4147 20.3254 10.5828 20.5475 10.7628C20.6617 10.8596 20.7652 10.9659 20.8565 11.0803C21.0499 11.3135 21.0107 11.5178 20.7283 11.6697C20.4473 11.827 20.1544 11.9667 19.8517 12.0878C19.6541 12.1634 19.6107 12.2628 19.6107 12.4403C19.6167 15.4948 19.6184 18.5491 19.6156 21.6032C19.6156 22.6163 19.1069 23.3531 18.0908 23.7944C17.8757 23.8881 17.6333 23.9325 17.4034 24H2.24425C1.88268 23.8706 1.48888 23.7875 1.16726 23.6031C0.390168 23.1588 0.0201919 22.4869 0.0061777 21.6657C-0.00433297 21.0563 0.000572009 20.447 0.0061777 19.8376C0.0061777 19.5157 0.141415 19.4001 0.496676 19.4001C1.04603 19.397 1.59609 19.4001 2.1917 19.4001V9.18226C2.1917 8.81102 2.32553 8.6329 2.59811 8.64102C2.87068 8.64915 2.97929 8.81477 2.97929 9.17976V19.3976H3.2848C3.99252 19.3976 4.70094 19.3976 5.40866 19.3976C5.70856 19.3976 5.86763 19.5226 5.87253 19.7376C5.87744 19.9526 5.70646 20.1001 5.40095 20.1007C3.98458 20.1036 2.56844 20.1036 1.15254 20.1007H0.807792C0.802887 20.1945 0.793776 20.2757 0.793776 20.3576C0.793776 20.787 0.786069 21.2169 0.793776 21.6463C0.814798 22.6094 1.56876 23.2906 2.63384 23.2919C6.75076 23.2961 10.8677 23.2961 14.9846 23.2919C15.0266 23.2919 15.0694 23.2881 15.1114 23.2869C15.1149 23.2663 15.1247 23.2463 15.1184 23.2394C14.6132 22.7138 14.4226 22.1013 14.4555 21.4163C14.4766 20.9888 14.4597 20.5601 14.4597 20.0989H7.21439C6.86404 20.0989 6.67344 19.9739 6.66924 19.7464C6.66503 19.5189 6.85142 19.3932 7.20318 19.3932H13.0765C13.6371 19.3932 14.1977 19.3932 14.7582 19.3932C15.1135 19.3932 15.2487 19.5151 15.2487 19.8307C15.2487 20.4476 15.2445 21.0651 15.2487 21.6819C15.2444 22.0789 15.4063 22.4631 15.7028 22.7592C15.9993 23.0553 16.409 23.2421 16.8518 23.2829C17.2946 23.3237 17.7385 23.2157 18.0966 22.9799C18.4547 22.7441 18.7013 22.3976 18.788 22.0082C18.8149 21.8847 18.8269 21.759 18.8238 21.6332C18.8238 18.6258 18.8238 15.6183 18.8238 12.6109C18.8242 12.5782 18.8226 12.5454 18.8189 12.5128C18.5911 12.4241 18.3984 12.3591 18.2156 12.2766C17.854 12.1147 17.498 11.9428 17.1393 11.7766L17.0846 11.8391C17.1666 11.9797 17.2514 12.1191 17.3306 12.2603C17.5408 12.6397 17.3621 12.8909 16.887 12.874C15.3738 12.8096 13.8598 12.9878 12.4172 13.4003C10.9982 13.8121 9.73275 14.4502 8.72372 15.4527C8.64309 15.5334 8.58075 15.6272 8.54014 15.729C8.28788 16.3683 8.04964 17.0121 7.79598 17.652C7.7609 17.7555 7.70115 17.8511 7.62081 17.932C7.56253 17.9871 7.48331 18.0207 7.39867 18.0264C7.31403 18.0321 7.23007 18.0093 7.16324 17.9627C6.99016 17.8583 6.94462 17.7083 7.01259 17.5308C7.24382 16.9264 7.47155 16.3202 7.70769 15.7183C8.87438 12.7359 10.8609 10.2897 13.7338 8.43978C15.1858 7.50937 16.8337 6.85036 18.5785 6.50233C18.6542 6.48671 18.7285 6.46546 18.8245 6.43983V2.53993C18.8245 1.7387 18.9646 1.37121 19.5252 0.716856C19.4236 0.711857 19.3437 0.704356 19.2645 0.704356C18.2506 0.704356 17.2367 0.704356 16.2227 0.704356C16.0006 0.704356 15.8023 0.687482 15.7063 0.470613C15.6103 0.253743 15.7645 0.121247 15.9319 0L21.7556 0.00062464ZM16.3601 12.1566C16.2164 11.9522 16.0749 11.7916 15.9852 11.6103C15.9185 11.4823 15.8989 11.3389 15.9291 11.2003C15.9803 11.0297 16.1723 11.0047 16.3608 11.0085C17.1519 11.0247 17.8638 11.2585 18.5295 11.6241C18.6059 11.6659 18.7173 11.7234 18.7838 11.7016C19.1818 11.5766 19.5707 11.426 20.0017 11.271C19.5672 10.896 19.1097 10.6778 18.6437 10.4635C18.5073 10.3916 18.4053 10.2775 18.3571 10.1429C18.2996 9.97411 18.4391 9.84287 18.6108 9.7785C18.8311 9.68596 19.0621 9.61492 19.2996 9.56663C20.1733 9.42288 21.0387 9.53288 21.9027 9.66162C21.958 9.66662 22.0139 9.66113 22.0667 9.64551C22.1194 9.62989 22.1679 9.6045 22.2089 9.571C22.7372 9.06226 22.9993 8.43853 23.1198 7.76417C23.1696 7.48418 23.185 7.20169 23.2165 6.90732C20.3065 6.73857 17.601 7.18606 15.1107 8.49415C12.6372 9.79287 10.8364 11.6516 9.4861 13.8884C11.5532 12.6534 13.8733 12.2066 16.3587 12.1566H16.3601ZM23.185 3.88365C23.185 3.28866 23.2235 2.70305 23.1752 2.12432C23.1051 1.32496 22.3413 0.721231 21.4535 0.705606C20.5657 0.689982 19.7592 1.25372 19.6583 2.04682C19.5883 2.60181 19.624 3.16742 19.6142 3.72803C19.6174 3.78035 19.6251 3.83238 19.6373 3.88365H23.185Z" fill="white"/>
<path d="M14.6223 0.000732422C14.8086 0.111979 14.9502 0.250726 14.8654 0.46572C14.7806 0.680715 14.5781 0.705714 14.3525 0.705714C11.2226 0.703214 8.09279 0.703214 4.96295 0.705714C3.71008 0.705714 2.97994 1.36069 2.97994 2.48317C2.97994 4.13146 2.97994 5.77975 2.97994 7.42804C2.988 7.51364 2.98139 7.59983 2.96032 7.68365C2.93936 7.76071 2.88755 7.82827 2.81463 7.87363C2.74171 7.91898 2.65272 7.93899 2.56441 7.9299C2.36121 7.91927 2.24559 7.81115 2.20355 7.64303C2.19054 7.56569 2.18701 7.48731 2.19304 7.40929C2.19304 5.761 2.19304 4.11271 2.19304 2.46442C2.19304 1.16945 2.96382 0.313224 4.37716 0.0332319C4.40195 0.025878 4.42552 0.0155768 4.44723 0.0026073L14.6223 0.000732422Z" fill="white"/>
<path d="M10.8106 6.66548H5.85512C5.75905 6.66924 5.66279 6.66674 5.56713 6.65798C5.47827 6.65167 5.39517 6.61626 5.33385 6.55856C5.27252 6.50086 5.23731 6.42496 5.23499 6.34548C5.21956 6.26692 5.2384 6.18606 5.28764 6.11948C5.33689 6.0529 5.41281 6.00563 5.49986 5.98737C5.60099 5.96446 5.70535 5.95498 5.80958 5.95924C9.15664 5.95924 12.5039 5.95924 15.8515 5.95924C15.8956 5.95924 15.9391 5.95924 15.9825 5.95924C16.2628 5.96987 16.4422 6.11049 16.4394 6.31798C16.4366 6.52548 16.2642 6.66298 15.9755 6.6636C14.5334 6.6636 13.0914 6.6636 11.6493 6.6636L10.8106 6.66548Z" fill="white"/>
<path d="M10.8091 4.60296H5.85362C5.76624 4.60558 5.67877 4.60412 5.59156 4.59859C5.50007 4.59218 5.41411 4.55703 5.34896 4.49939C5.28382 4.44174 5.24372 4.36535 5.23582 4.28381C5.22791 4.20226 5.25271 4.12086 5.30579 4.0541C5.35887 3.98734 5.4368 3.93954 5.52569 3.91923C5.6282 3.90039 5.73301 3.89346 5.83751 3.8986C9.16729 3.8986 12.4971 3.8986 15.8268 3.8986C15.9474 3.8986 16.1015 3.88235 16.1772 3.93985C16.2914 4.02235 16.4056 4.15922 16.421 4.28297C16.4421 4.44859 16.3019 4.56984 16.1008 4.59546C16.014 4.60308 15.9267 4.60537 15.8395 4.60234L10.8091 4.60296Z" fill="white"/>
<path d="M8.82052 8.72494C7.79982 8.72494 6.77865 8.72494 5.75701 8.72494C5.40666 8.72494 5.22517 8.60307 5.23008 8.36995C5.23498 8.13683 5.41156 8.02246 5.7451 8.02246C7.78791 8.02246 9.83024 8.02246 11.8721 8.02246C12.212 8.02246 12.3977 8.16058 12.3843 8.39745C12.3724 8.61057 12.2099 8.72682 11.91 8.72682C10.8808 8.72723 9.85103 8.72661 8.82052 8.72494Z" fill="white"/>
<path d="M13.0246 16.9728C12.0373 16.9728 11.0493 16.9797 10.062 16.9641C9.98401 16.9581 9.90808 16.9385 9.83859 16.9063C9.76909 16.8741 9.70739 16.83 9.65701 16.7766C9.59535 16.706 9.60586 16.501 9.67593 16.441C9.80076 16.3407 9.9608 16.2824 10.1286 16.276C11.5356 16.2641 12.9426 16.2691 14.3497 16.2691H15.8975C16.2479 16.2691 16.4385 16.3941 16.4427 16.6178C16.4469 16.8416 16.2591 16.9734 15.9095 16.9734C14.9462 16.9739 13.9846 16.9737 13.0246 16.9728Z" fill="white"/>
<path d="M14.1773 14.9103C13.5838 14.9103 12.9903 14.9103 12.3968 14.9103C12.0906 14.9103 11.9098 14.7785 11.9063 14.5641C11.9028 14.3497 12.0892 14.2091 12.3891 14.2085C13.5761 14.2085 14.7629 14.2085 15.9494 14.2085C16.2521 14.2085 16.4399 14.3447 16.4399 14.5585C16.4399 14.7722 16.2612 14.9091 15.9564 14.9103C15.3636 14.9116 14.7701 14.9103 14.1773 14.9103Z" fill="white"/>
<path d="M7.38894 10.7872C6.82837 10.7872 6.2678 10.7872 5.71284 10.7872C5.40242 10.7872 5.23075 10.6585 5.23145 10.4372C5.23215 10.216 5.40522 10.0841 5.71353 10.0835C6.8314 10.0835 7.94904 10.0835 9.06644 10.0835C9.37335 10.0835 9.54572 10.2179 9.54572 10.4385C9.54572 10.6591 9.37966 10.786 9.06504 10.7872C8.50657 10.7891 7.9474 10.7872 7.38894 10.7872Z" fill="white"/>
<path d="M6.78145 12.8498C6.41498 12.8498 6.04851 12.8529 5.68204 12.8498C5.39755 12.8467 5.22868 12.7098 5.23148 12.4967C5.23428 12.2836 5.40385 12.1486 5.69115 12.1473C6.42409 12.1436 7.1568 12.1436 7.88928 12.1473C8.17517 12.1473 8.34053 12.2879 8.33843 12.5048C8.33633 12.7217 8.17447 12.8473 7.88087 12.8504C7.5144 12.8523 7.14792 12.8498 6.78145 12.8498Z" fill="white"/>
</g>
<defs>
<clipPath id="clip0_1027_3884">
<rect width="24" height="24" fill="white"/>
</clipPath>
</defs>
</svg>
