<svg width="24" height="24" viewBox="0 0 24 24" fill="none" xmlns="http://www.w3.org/2000/svg">
<g id="Component 13 1" clip-path="url(#clip0_1027_3899)">
<path id="Vector" d="M8.02506 20.5753L7.36336 21.2238C7.4969 21.3444 7.63044 21.457 7.7513 21.5777C8.63268 22.4441 8.62867 22.3481 7.74396 23.2218C7.56033 23.4038 7.37872 23.5877 7.19577 23.7696C6.88996 24.0735 6.71902 24.0755 6.41788 23.775C5.8165 23.1747 5.21556 22.5749 4.61506 21.9755C4.54829 21.9089 4.48152 21.8509 4.40807 21.7756C4.3413 21.8389 4.27453 21.8909 4.22045 21.9482C3.61283 22.5547 3.00588 23.1614 2.3996 23.7683C2.08777 24.0795 1.92151 24.0775 1.60435 23.7603C1.14452 23.3009 0.684689 22.8413 0.224859 22.3814C-0.076279 22.0795 -0.0756116 21.9102 0.230868 21.6036C3.62284 18.2105 7.01548 14.8178 10.4088 11.4255C10.4756 11.3588 10.561 11.3002 10.6538 11.2255C10.2332 10.817 10.0282 10.3725 10.0896 9.82598C10.1275 9.45767 10.3026 9.11701 10.5804 8.87161C11.2094 8.30112 12.0273 8.34977 12.8626 9.07155C12.9788 8.92293 13.0917 8.75898 13.2252 8.61436C13.3587 8.46974 13.5043 8.35644 13.6599 8.21448C11.6895 7.34075 10.6412 5.8992 10.8435 3.76454C11.0184 1.92378 12.1181 0.753473 13.8822 0.14033C13.9583 0.402915 14.0278 0.644839 14.1026 0.904758C14.0358 0.933416 13.9797 0.962074 13.9203 0.982735C12.4413 1.49591 11.4992 2.89947 11.6067 4.43299C11.6583 5.18224 11.957 5.89333 12.4563 6.45519C12.9556 7.01706 13.6272 7.39806 14.3663 7.53869C14.5753 7.58001 14.7583 7.63466 14.8237 7.86126C14.8891 8.08786 14.7489 8.21981 14.61 8.35777C14.2027 8.76231 13.7974 9.16885 13.4122 9.5534L14.4718 10.6117C14.598 10.4711 14.7583 10.2838 14.9292 10.1059C15.1662 9.85997 15.412 9.62271 15.6523 9.37945C15.7905 9.2395 15.9308 9.10887 16.1518 9.17952C16.3728 9.25016 16.4189 9.42211 16.4583 9.62204C16.5563 10.1448 16.7762 10.6372 17.1002 11.0595C17.4242 11.4818 17.8431 11.8221 18.3232 12.0529C18.8032 12.2837 19.331 12.3986 19.8637 12.3882C20.3965 12.3778 20.9193 12.2425 21.39 11.9932C21.8607 11.7439 22.266 11.3876 22.5733 10.9531C22.8805 10.5185 23.081 10.0179 23.1586 9.49174C23.2362 8.96555 23.1887 8.42853 23.02 7.92404C22.8512 7.41956 22.566 6.96177 22.1872 6.58766C21.8153 6.21977 21.822 6.06582 22.2233 5.72126C22.515 5.47018 22.7517 5.16174 22.9185 4.81522C23.0853 4.4687 23.1788 4.09154 23.193 3.70734C23.2071 3.32314 23.1417 2.94015 23.0009 2.58232C22.86 2.22448 22.6467 1.8995 22.3743 1.62769C22.1019 1.35588 21.7762 1.14309 21.4177 1.00261C21.0591 0.862139 20.6754 0.797003 20.2905 0.811281C19.9056 0.825559 19.5277 0.918942 19.1806 1.08559C18.8335 1.25224 18.5245 1.48858 18.2731 1.77982C17.9359 2.1757 17.7837 2.1797 17.4051 1.80714C16.8007 1.19754 15.9868 0.840147 15.1282 0.807456L14.9399 0.797458V0.00237269C16.0303 -0.00695773 16.9777 0.363594 17.811 1.08137C18.6263 0.294949 19.5932 -0.0822675 20.7183 0.0150356C21.6301 0.0872031 22.4773 0.513352 23.0779 1.202C24.2411 2.4896 24.4134 4.62227 22.925 6.17578C23.9112 7.37941 24.2605 8.73432 23.7984 10.2479C23.4565 11.3595 22.7441 12.1806 21.7185 12.7244C19.5818 13.8574 16.7427 12.9084 15.8226 10.3991L15.0127 11.2262C15.032 11.2495 15.0794 11.3062 15.1248 11.3595C15.6917 12 15.6684 12.9204 15.0714 13.5008C14.4745 14.0813 13.5504 14.0833 12.9314 13.4882C12.3912 12.969 11.8684 12.4305 11.3376 11.9013C11.2975 11.8613 11.2534 11.8254 11.2301 11.804L1.05082 21.9849L2.03369 22.9652C5.22535 19.7716 8.44572 16.5503 11.6948 13.3016L12.229 13.8707L8.53987 17.5596C8.64203 17.6675 8.70145 17.7329 8.76355 17.7955C9.36983 18.4029 9.97634 19.0098 10.5831 19.6163C10.8762 19.9102 10.8775 20.0868 10.5897 20.3767C10.2434 20.725 9.89577 21.0725 9.54678 21.419C9.29772 21.6643 9.10275 21.6643 8.8557 21.419C8.57993 21.1411 8.30751 20.8625 8.02506 20.5753ZM7.44349 22.3801C7.14902 22.0935 6.86725 21.8242 6.59149 21.549C6.33508 21.2924 6.33642 21.1011 6.59149 20.8432C6.92534 20.5067 7.2592 20.1721 7.59305 19.8369C7.92691 19.5016 8.08048 19.5096 8.40566 19.8369C8.66807 20.0994 8.92848 20.364 9.16151 20.5993L9.76646 20.0308L7.99568 18.2467L5.05775 21.1838L6.8352 22.9879L7.44349 22.3801ZM14.7289 12.2732C14.6741 12.1819 14.5953 11.974 14.4531 11.828C13.6986 11.0523 12.9294 10.2912 12.1622 9.52807C11.8324 9.20018 11.3937 9.18352 11.0939 9.47742C10.7941 9.77133 10.8007 10.2245 11.1366 10.5644C11.5112 10.9436 11.8891 11.3189 12.2664 11.6974C12.6723 12.1033 13.0756 12.5125 13.4869 12.9137C13.5881 13.0204 13.7204 13.0924 13.865 13.1196C14.0096 13.1467 14.1591 13.1276 14.2922 13.065C14.562 12.9517 14.7329 12.6824 14.7289 12.2732Z" fill="white"/>
<path id="Vector_2" d="M14.9959 2.00173C15.4325 1.99988 15.8598 2.12754 16.2236 2.36849C16.5873 2.60944 16.8712 2.95283 17.0391 3.35508C17.2071 3.75733 17.2515 4.20031 17.1668 4.62781C17.082 5.0553 16.872 5.44804 16.5633 5.75618C16.2546 6.06432 15.8611 6.27397 15.4328 6.35853C15.0045 6.4431 14.5607 6.39876 14.1577 6.23114C13.7547 6.06353 13.4106 5.78019 13.1692 5.41709C12.9278 5.05398 12.7999 4.62749 12.8018 4.19171C12.8042 3.61165 13.0362 3.05604 13.4471 2.64587C13.8581 2.2357 14.4147 2.00418 14.9959 2.00173ZM13.6017 4.19038C13.6003 4.46641 13.6808 4.73667 13.8332 4.96702C13.9856 5.19737 14.2029 5.37747 14.4578 5.48455C14.7127 5.59164 14.9937 5.62092 15.2653 5.56868C15.5368 5.51644 15.7868 5.38503 15.9835 5.19106C16.1803 4.99709 16.315 4.74926 16.3707 4.47889C16.4264 4.20851 16.4006 3.92772 16.2965 3.672C16.1923 3.41628 16.0146 3.1971 15.7857 3.04216C15.5569 2.88721 15.2871 2.80346 15.0106 2.80148C14.6394 2.7997 14.2826 2.94491 14.0185 3.20527C13.7544 3.46563 13.6045 3.81989 13.6017 4.19038Z" fill="white"/>
<path id="Vector_3" d="M17.6001 8.9917C17.6026 8.55728 17.7343 8.13339 17.9784 7.77371C18.2225 7.41402 18.568 7.13474 18.9712 6.97122C19.3745 6.8077 19.8172 6.76731 20.2435 6.85515C20.6697 6.943 21.0603 7.15514 21.3656 7.4647C21.671 7.77426 21.8775 8.16731 21.9588 8.59407C22.0402 9.02083 21.9929 9.4621 21.8228 9.86199C21.6528 10.2619 21.3676 10.6024 21.0035 10.8404C20.6394 11.0784 20.2127 11.2032 19.7775 11.199C19.1963 11.1921 18.6413 10.9563 18.2334 10.5429C17.8256 10.1294 17.598 9.5719 17.6001 8.9917ZM18.4014 8.97837C18.3978 9.2544 18.4764 9.52528 18.627 9.75678C18.7777 9.98828 18.9937 10.17 19.2478 10.279C19.5019 10.388 19.7827 10.4194 20.0546 10.3691C20.3266 10.3189 20.5775 10.1893 20.7757 9.99683C20.9739 9.8043 21.1105 9.55745 21.1682 9.28747C21.2259 9.01749 21.2021 8.7365 21.0999 8.48001C20.9976 8.22352 20.8215 8.00303 20.5937 7.84642C20.366 7.68981 20.0968 7.60411 19.8203 7.60013C19.4489 7.59532 19.0909 7.73773 18.8246 7.99612C18.5584 8.2545 18.4057 8.60775 18.4 8.97837H18.4014Z" fill="white"/>
<path id="Vector_4" d="M20.3896 2.00175C20.7065 1.99939 21.0169 2.09084 21.2817 2.26454C21.5465 2.43823 21.7537 2.68638 21.8773 2.97761C22.0008 3.26885 22.0351 3.5901 21.9757 3.90077C21.9164 4.21144 21.7661 4.49757 21.5439 4.72301C21.3217 4.94845 21.0375 5.10307 20.7272 5.16734C20.417 5.23161 20.0946 5.20263 19.8009 5.08408C19.5071 4.96552 19.2552 4.76271 19.0769 4.50127C18.8986 4.23983 18.8019 3.9315 18.7991 3.61525C18.7973 3.40503 18.837 3.19651 18.9159 3.00162C18.9949 2.80672 19.1116 2.62927 19.2593 2.47941C19.407 2.32956 19.5829 2.21024 19.7768 2.12828C19.9708 2.04632 20.179 2.00332 20.3896 2.00175ZM20.3956 2.8015C20.2367 2.80152 20.0814 2.84868 19.9495 2.93701C19.8175 3.02534 19.7148 3.15084 19.6545 3.29756C19.5941 3.44428 19.5789 3.60559 19.6106 3.76099C19.6423 3.91639 19.7196 4.05887 19.8327 4.17031C19.9458 4.28175 20.0895 4.35712 20.2455 4.38684C20.4016 4.41656 20.563 4.39929 20.7093 4.33722C20.8555 4.27516 20.9799 4.17109 21.0667 4.03827C21.1536 3.90544 21.1989 3.74985 21.1969 3.59126C21.1943 3.38089 21.1087 3.18003 20.9587 3.0322C20.8087 2.88437 20.6064 2.80149 20.3956 2.8015Z" fill="white"/>
</g>
<defs>
<clipPath id="clip0_1027_3899">
<rect width="24" height="24" fill="white"/>
</clipPath>
</defs>
</svg>
