<svg width="32" height="28" viewBox="0 0 32 28" fill="none" xmlns="http://www.w3.org/2000/svg">
<path d="M9.95314 9.39955C8.39243 10.7301 7.02744 12.1768 6.58306 14.2687C6.48032 14.747 6.16899 14.9746 5.74671 14.8179C4.03392 14.1845 2.48605 13.2962 1.30703 11.8567C0.54003 10.9202 0.243607 9.80591 0.081268 8.6418C-0.0692556 7.56604 0.00729027 6.49388 0.164492 5.42532C0.260046 4.77596 0.565203 4.60026 1.1822 4.80062C2.56208 5.24911 3.94864 5.13455 5.32801 4.80062C5.89312 4.66345 6.44384 4.47235 7.04799 4.29203C6.80242 3.86255 6.59128 3.4978 6.38476 3.13048C5.78523 2.06654 6.07138 0.863377 7.05929 0.283887C8.06158 -0.304336 9.2632 0.0455153 9.89304 1.11151C10.1345 1.51993 10.3688 1.93348 10.6297 2.38454L11.6752 1.65452C12.1648 1.31341 12.4889 1.37762 12.7864 1.8893C13.5025 3.12226 14.2156 4.35641 14.9256 5.59177C15.2225 6.10858 15.1182 6.41374 14.5737 6.67061C14.2017 6.8463 13.8287 7.01892 13.4162 7.21208L16.0023 11.6908L18.589 7.21516C18.1898 7.02611 17.8117 6.84682 17.4331 6.66906C16.8875 6.4122 16.7822 6.1091 17.0781 5.59382C17.7942 4.34717 18.5135 3.10222 19.2358 1.85899C19.5086 1.38995 19.8461 1.32163 20.2966 1.63192C20.6465 1.87235 20.9927 2.11791 21.3714 2.383C21.6519 1.90317 21.9087 1.43619 22.1933 0.986159C22.6403 0.27464 23.4725 -0.0859999 24.2611 0.0670923C24.6644 0.140269 25.036 0.334163 25.3267 0.623124C25.6174 0.912085 25.8135 1.28249 25.8891 1.68535C25.9842 2.16969 25.896 2.6721 25.6415 3.09503C25.4247 3.47108 25.2115 3.84919 24.9377 4.32799C25.8624 4.55917 26.7203 4.82528 27.5968 4.97837C28.7403 5.1777 29.8875 5.15304 31.0023 4.74514C31.3783 4.60746 31.7215 4.79651 31.7888 5.2075C32.4274 9.08926 31.7164 11.9312 28.2918 13.8654C27.6635 14.2204 26.9936 14.5076 26.3273 14.7901C25.8896 14.9756 25.5382 14.8061 25.454 14.3792C25.1041 12.5986 24.0561 11.2541 22.7826 10.0458C22.5488 9.82389 22.2971 9.62097 22.0294 9.38876C21.9442 9.52079 21.8753 9.61994 21.8127 9.72526C20.7117 11.6307 19.6164 13.5392 18.5068 15.4395C18.3763 15.6635 18.3773 15.8243 18.5068 16.0472C20.0644 18.7282 21.6154 21.4133 23.1597 24.1026C23.7119 25.0632 23.5655 26.1061 22.8062 26.7586C21.8168 27.6093 20.3783 27.3488 19.6899 26.175C18.8417 24.7298 18.0131 23.2739 17.1726 21.8231C16.7935 21.1671 16.4128 20.5126 16.0075 19.8139C15.9109 19.9639 15.8421 20.0626 15.7819 20.1669C14.625 22.1704 13.4738 24.174 12.3107 26.1775C11.6942 27.2338 10.4551 27.5646 9.46767 26.9594C8.51059 26.3717 8.21776 25.1973 8.79982 24.1709C9.65107 22.6698 10.5229 21.181 11.3854 19.6865C12.0923 18.4628 12.8038 17.2422 13.4974 16.0118C13.5678 15.887 13.6001 15.6635 13.5339 15.5494C12.3846 13.5279 11.218 11.5161 10.0538 9.50281C10.0235 9.46538 9.9898 9.43081 9.95314 9.39955ZM30.673 6.1692C26.5991 6.81342 23.2604 5.10424 20.0182 2.96557C19.4849 3.89029 18.9558 4.8037 18.4148 5.73972C21.8907 7.47511 25.042 9.52644 26.5133 13.3584C29.982 11.9025 31.0989 9.84239 30.673 6.1692ZM1.30498 6.14865C1.16935 7.7664 1.15343 9.35434 2.04013 10.7537C2.85439 12.0381 4.12023 12.7958 5.48213 13.3841C6.97196 9.51925 10.1186 7.47614 13.5883 5.74281C13.0489 4.80781 12.5208 3.89337 11.9993 2.99023C11.1609 3.49266 10.3662 4.01769 9.52983 4.46207C6.97966 5.82038 4.31442 6.68499 1.30498 6.14865ZM19.6863 7.7926C19.5913 7.94672 19.5322 8.04227 19.4752 8.13885C16.3116 13.6187 13.1484 19.0985 9.98551 24.5783C9.63052 25.1948 9.68446 25.6602 10.1396 25.914C10.5948 26.1678 11.0042 25.9859 11.3639 25.3622C13.9839 20.825 16.6039 16.287 19.224 11.7483C19.8178 10.7209 20.4102 9.69341 21.022 8.63101L19.6863 7.7926ZM17.6242 16.9884C17.3745 17.4184 17.1572 17.8258 16.905 18.2111C16.7508 18.4505 16.7483 18.6339 16.8962 18.8882C18.1626 21.0551 19.4135 23.2323 20.6681 25.4059C20.7369 25.5246 20.7898 25.6885 20.8956 25.7419C21.1273 25.8595 21.3893 25.9895 21.637 25.9854C21.7844 25.9834 21.9258 25.9268 22.0338 25.8264C22.1418 25.7261 22.2087 25.5892 22.2216 25.4424C22.2431 25.1742 22.1881 24.9053 22.0628 24.6672C20.6598 22.2038 19.2373 19.7523 17.8179 17.2977C17.7629 17.2047 17.7002 17.1138 17.6227 16.991L17.6242 16.9884ZM10.9806 8.63152L14.3759 14.5071C14.6497 14.0334 14.8752 13.6152 15.129 13.215C15.2605 13.0095 15.2574 12.8498 15.1326 12.6366C14.2479 11.1262 13.3777 9.60556 12.5013 8.09262C12.4499 8.00014 12.3826 7.91435 12.305 7.79928L10.9806 8.63152ZM9.58737 3.03801C9.28837 2.52427 9.03356 2.05421 8.74331 1.60521C8.50853 1.242 8.08419 1.15312 7.72201 1.34834C7.38911 1.52609 7.19183 1.9304 7.34955 2.26741C7.58895 2.78114 7.88691 3.26559 8.17152 3.78754L9.58737 3.03801ZM23.827 3.77829C24.1126 3.27895 24.3823 2.84484 24.6145 2.39122C24.7083 2.212 24.7278 2.00313 24.6688 1.80966C24.6099 1.61619 24.4773 1.45364 24.2996 1.35707C23.94 1.15158 23.5095 1.23018 23.2747 1.58877C22.9768 2.04496 22.7178 2.52633 22.4204 3.03338L23.827 3.77829Z" fill="white"/>
</svg>
