<svg width="22" height="17" viewBox="0 0 22 17" fill="none" xmlns="http://www.w3.org/2000/svg">
<circle cx="3.40426" cy="3.40426" r="3.40426" transform="matrix(-1 0 0 1 14.617 0.999878)" stroke="white" stroke-width="1.5"/>
<path d="M5.25531 12.8593C5.25531 12.1271 5.71561 11.4739 6.40517 11.2277V11.2277C9.51407 10.1174 12.9114 10.1174 16.0203 11.2277V11.2277C16.7099 11.4739 17.1702 12.1271 17.1702 12.8593V13.9789C17.1702 14.9895 16.2751 15.7658 15.2747 15.6229L14.9412 15.5752C12.4681 15.2219 9.9574 15.2219 7.48436 15.5752L7.15081 15.6229C6.15038 15.7658 5.25531 14.9895 5.25531 13.9789V12.8593Z" stroke="white" stroke-width="1.5"/>
<path d="M16.3191 7.90264C17.7964 7.90264 18.9939 6.70511 18.9939 5.22787C18.9939 3.75064 17.7964 2.5531 16.3191 2.5531" stroke="white" stroke-width="1.5" stroke-linecap="round"/>
<path d="M19.2486 14.0049L19.5107 14.0424C20.2968 14.1547 21 13.5447 21 12.7507V11.871C21 11.2957 20.6384 10.7825 20.0966 10.589C19.5561 10.396 19.0046 10.2457 18.4468 10.1381" stroke="white" stroke-width="1.5" stroke-linecap="round"/>
<path d="M5.68085 7.90264C4.20361 7.90264 3.00607 6.70511 3.00607 5.22787C3.00607 3.75064 4.20361 2.5531 5.68085 2.5531" stroke="white" stroke-width="1.5" stroke-linecap="round"/>
<path d="M2.7514 14.0049L2.48932 14.0424C1.70327 14.1547 1 13.5447 1 12.7507V11.871C1 11.2957 1.36167 10.7825 1.90347 10.589C2.44392 10.396 2.99546 10.2457 3.55319 10.1381" stroke="white" stroke-width="1.5" stroke-linecap="round"/>
</svg>
