<svg width="24" height="36" viewBox="0 0 24 36" fill="none" xmlns="http://www.w3.org/2000/svg">
<path d="M0.424116 35.9388C0.0997564 35.7806 -0.00210604 35.5108 0.00236172 35.1641C0.0121908 34.2982 0.0166586 33.4324 0.00236172 32.5674C-0.00985855 32.3983 0.0255171 32.2292 0.104479 32.0791C0.183441 31.9291 0.302834 31.8042 0.449138 31.7185C0.653762 31.5863 0.845878 31.4335 1.06033 31.278C0.75831 30.5828 0.460757 29.9002 0.166778 29.2166C-0.0726943 28.6653 -0.0548274 28.5795 0.380333 28.1443C0.868213 27.6555 1.36324 27.1748 1.8413 26.6771C1.94526 26.5583 2.07882 26.4692 2.2284 26.4189C2.37797 26.3685 2.53822 26.3586 2.69285 26.3903C3.37195 26.5011 4.05463 26.5967 4.79538 26.7084C4.79538 26.2741 4.79538 25.8702 4.79538 25.4663C4.79538 24.6568 5.03217 24.4665 5.8319 24.63L8.36513 25.15V14.2076C8.12587 14.2045 7.88707 14.1857 7.65029 14.1513C6.92383 14.0003 6.35642 13.4561 6.26438 12.7877C6.15626 12.0103 6.36804 11.308 7.06858 10.9113C7.76913 10.5145 8.54115 10.2205 9.2828 9.88545C9.42399 9.82112 9.59644 9.83005 9.59555 9.58701C9.58751 7.59974 9.59555 5.61159 9.59555 3.6967C9.27834 3.46974 8.9656 3.31426 8.74489 3.07122C8.23824 2.51632 8.25343 1.11612 8.73416 0.5371C8.86542 0.371036 9.03276 0.237025 9.22349 0.14522C9.41422 0.0534154 9.62335 0.00622378 9.83502 0.0072225C10.8876 0.000967632 11.9402 -0.00528724 12.9928 0.0072225C13.7139 0.0170516 14.2885 0.561226 14.368 1.30466C14.4038 1.64238 14.4038 1.98292 14.368 2.32063C14.3046 2.90948 13.948 3.28388 13.4119 3.5171C13.3572 3.54421 13.3094 3.58352 13.2722 3.63201C13.235 3.6805 13.2094 3.73687 13.1975 3.79678C13.1858 5.7626 13.1894 7.72842 13.1903 9.69423C13.1903 9.72819 13.2028 9.76214 13.1903 9.70227C14.0169 10.1062 14.7987 10.4573 15.5555 10.8693C16.2311 11.2392 16.492 11.8745 16.4035 12.6197C16.3204 13.3194 15.9389 13.843 15.2642 14.0923C15.0087 14.1861 14.7192 14.1915 14.4118 14.2433V24C14.4966 24.0063 14.5817 24.0063 14.6665 24C15.2571 23.9107 15.4036 23.9634 15.6395 24.5362C15.795 24.9097 15.997 24.9937 16.3767 24.9222C17.2033 24.7685 18.0405 24.6738 18.8697 24.5344C19.0182 24.5012 19.1727 24.5074 19.318 24.5523C19.4633 24.5973 19.5943 24.6795 19.6981 24.7908C20.2342 25.3314 20.7703 25.8711 21.3065 26.3992C21.5567 26.644 21.6076 26.9041 21.4664 27.224C21.176 27.8861 20.899 28.5536 20.6032 29.2479C20.7355 29.2809 20.8427 29.3131 20.9526 29.3372C21.1033 29.3607 21.2453 29.423 21.3646 29.518C21.484 29.6129 21.5766 29.7372 21.6335 29.8787C22.3811 31.5651 23.1296 33.2513 23.879 34.9371C24.1077 35.4563 24.0273 35.652 23.5073 35.9441L0.424116 35.9388ZM1.20151 34.7218H10.792C10.792 33.8389 10.7974 32.9776 10.784 32.1153C10.7643 32.0029 10.7066 31.9006 10.6205 31.8258C10.0566 31.2503 9.48832 30.6775 8.91019 30.1164C8.81106 30.0246 8.68318 29.9699 8.54831 29.9618C7.42719 29.9505 6.30578 29.9505 5.18408 29.9618C5.04651 29.965 4.91278 30.0078 4.79895 30.0851C3.65342 30.8917 2.51325 31.706 1.37844 32.5281C1.33101 32.5653 1.29159 32.6117 1.26257 32.6645C1.23355 32.7173 1.21551 32.7755 1.20955 32.8355C1.19347 33.4511 1.20151 34.0686 1.20151 34.7218ZM22.4627 34.7352C21.8274 33.3269 21.2171 31.9652 20.5934 30.6096C20.5568 30.531 20.4147 30.4756 20.3146 30.4568C19.4211 30.2915 18.5221 30.1325 17.6232 29.9877C17.4741 29.9716 17.3233 29.9941 17.1854 30.0529C15.5511 30.7124 13.9203 31.3834 12.2843 32.0402C12.0707 32.1296 11.9742 32.2234 11.9867 32.4682C12.009 32.923 11.993 33.3805 11.993 33.8363V34.7352H22.4627ZM5.99453 25.8809C5.99453 26.8138 5.98828 27.6886 6.00704 28.5616C6.00704 28.6268 6.18575 28.7403 6.28851 28.7448C7.11832 28.7591 7.94843 28.7606 8.77884 28.7493C8.92379 28.7418 9.0686 28.7665 9.20286 28.8217C9.33711 28.8768 9.45749 28.9611 9.55534 29.0683C10.1317 29.6651 10.7313 30.2406 11.3094 30.8357C11.4532 30.984 11.5694 31.0082 11.7615 30.9251C13.1108 30.3711 14.4654 29.8296 15.8174 29.2836C16.0104 29.2059 16.2025 29.1254 16.4428 29.0263C15.8558 27.7753 15.2812 26.5502 14.6986 25.3332C14.662 25.2564 14.494 25.1902 14.4002 25.2045C14.125 25.2447 13.8578 25.3404 13.5835 25.3931C12.2306 25.6513 10.8706 25.8783 9.52406 26.166C8.75203 26.3313 8.00503 26.3635 7.24729 26.1356C6.8586 26.0266 6.45203 25.9748 5.99453 25.8809ZM13.1599 24.2627C13.1698 24.1868 13.1841 24.1305 13.185 24.0742C13.185 20.6608 13.182 17.2471 13.176 13.8332C13.1659 13.7655 13.1401 13.7011 13.1007 13.6451C13.0613 13.5891 13.0094 13.543 12.9491 13.5106C11.9483 13.0808 10.9341 13.0906 9.91097 13.4498C9.66167 13.5392 9.58393 13.675 9.58483 13.9377C9.59376 17.481 9.59614 21.0236 9.59198 24.5656C9.59198 24.6755 9.6027 24.7863 9.60985 24.9168L10.7893 24.6898V24.2395C10.7893 21.6565 10.7893 19.073 10.7893 16.4888C10.7854 16.3486 10.7914 16.2082 10.8072 16.0688C10.8492 15.7731 11.0368 15.6158 11.3273 15.5935C11.6177 15.5711 11.8634 15.69 11.9393 15.9965C11.9753 16.1556 11.9912 16.3186 11.9867 16.4817C11.9867 19.0068 11.9867 21.5323 11.9867 24.0581V24.4745L13.1599 24.2627ZM11.5721 10.7915H11.304C10.0117 10.7982 8.74908 11.1803 7.66994 11.8915C7.3563 12.0934 7.29554 12.4071 7.48319 12.7091C7.65743 12.9879 7.95588 13.0531 8.27309 12.8797C8.39551 12.8127 8.51524 12.7395 8.63677 12.6698C9.84217 11.9808 11.1307 11.7297 12.479 12.0782C13.0884 12.2364 13.6603 12.55 14.2393 12.8136C14.5968 12.9754 14.8845 12.9325 15.0659 12.6421C15.266 12.3222 15.1552 11.9871 14.7487 11.7387C13.7568 11.1364 12.7132 10.6959 11.5721 10.7915ZM16.5 26.1687C16.7681 26.7843 17.071 27.3446 17.2533 27.9424C17.4588 28.6152 17.8439 28.9333 18.5418 28.9306C18.8286 28.9306 19.1896 29.1281 19.3844 29.0129C19.598 28.886 19.6677 28.5044 19.7865 28.2292C19.9375 27.8763 20.2396 27.4831 20.1743 27.1703C20.1064 26.8406 19.6632 26.5994 19.4166 26.2929C19.1181 25.9238 18.7911 25.7782 18.3023 25.8935C17.7171 26.0266 17.1094 26.0793 16.5 26.1687ZM10.8197 3.61182V9.55484H11.9661V3.61182H10.8197ZM4.70156 28.6313C4.71854 27.8789 4.71049 27.8691 3.92774 27.744C3.77733 27.7307 3.62803 27.7068 3.48096 27.6725C2.8939 27.4876 2.42747 27.6162 2.05843 28.1318C1.8967 28.357 1.66258 28.5285 1.47226 28.735C1.41864 28.7939 1.3552 28.9074 1.37754 28.9628C1.58931 29.4873 1.81806 30.0038 2.04949 30.5399L4.70156 28.6313ZM11.3889 1.19922H10.3399C9.5884 1.19922 9.5884 1.19922 9.59465 1.94087C9.59465 2.35727 9.63308 2.3939 10.0602 2.3948C10.8412 2.3948 11.6221 2.3948 12.4031 2.3948C13.1742 2.3948 13.2073 2.54402 13.1903 1.55486C13.1903 1.30645 13.0697 1.19744 12.8222 1.19744C12.3441 1.20458 11.867 1.20101 11.3889 1.20012V1.19922Z" fill="white"/>
</svg>
